{
.appVersion = "1300";
copyright = "Copyright 2020 Google Inc. All Rights Reserved.";
customParameters = (
{
name = glyphOrder;
value = (
.notdef,
NULL,
CR,
space,
nbspace,
zerowidthspace,
dottedCircle,
ZWJ,
ZWNJ,
"e-mtei",
"o-mtei",
"cha-mtei",
"nya-mtei",
"tta-mtei",
"ttha-mtei",
"dda-mtei",
"ddha-mtei",
"nna-mtei",
"sha-mtei",
"ssa-mtei",
"iiMatra-mtei",
"uuMatra-mtei",
"aaiMatra-mtei",
"auMatra-mtei",
"aauMatra-mtei",
"cheikhan-mtei",
"ahangKhudam-mtei",
"anji-mtei",
"syllableRepetitionMark-mtei",
"wordRepetitionMark-mtei",
"visargaMatra-mtei",
"virama-mtei",
"kok-mtei",
"sam-mtei",
"lai-mtei",
"mit-mtei",
"pa-mtei",
"na-mtei",
"chil-mtei",
"til-mtei",
"khou-mtei",
"ngou-mtei",
"thou-mtei",
"wai-mtei",
"yang-mtei",
"huk-mtei",
"un-mtei",
"i-mtei",
"pham-mtei",
"atiya-mtei",
"gok-mtei",
"jham-mtei",
"rai-mtei",
"ba-mtei",
"jil-mtei",
"dil-mtei",
"ghou-mtei",
"dhou-mtei",
"bham-mtei",
"kokLonsum-mtei",
"laiLonsum-mtei",
"mitLonsum-mtei",
"paLonsum-mtei",
"naLonsum-mtei",
"tilLonsum-mtei",
"ngouLonsum-mtei",
"iLonsum-mtei",
"onapMatra-mtei",
"inapMatra-mtei",
"anapMatra-mtei",
"yenapMatra-mtei",
"sounapMatra-mtei",
"unapMatra-mtei",
"cheinapMatra-mtei",
"nungMatra-mtei",
"cheikhei-mtei",
"lumIyek-mtei",
"apunIyek-mtei",
"digitZero-mtei",
"digitOne-mtei",
"digitTwo-mtei",
"digitThree-mtei",
"digitFour-mtei",
"digitFive-mtei",
"digitSix-mtei",
"digitSeven-mtei",
"digitEight-mtei",
"digitNine-mtei",
"apunIyek-unap",
apunIyek.left1,
apunIyek.right1,
apunIyek.right2
);
},
{
name = description;
value = "Designed by Monotype design team.";
},
{
name = license;
value = "This Font Software is licensed under the SIL Open Font License, Version 1.1. This Font Software is distributed on an \"AS IS\" BASIS, WITHOUT WARRANTIES OR CONDITIONS OF ANY KIND, either express or implied. See the SIL Open Font License for the specific language, permissions and limitations governing your use of this Font Software.";
},
{
name = licenseURL;
value = "http://scripts.sil.org/OFL";
},
{

glyphs = (
{
glyphname = .notdef;
lastChange = "2020-03-25 01:49:53 +0000";
layers = (
{
layerId = UUID0;
paths = (
{
closed = 1;
nodes = (
"505 0 LINE",
"505 714 LINE",
"94 714 LINE",
"94 0 LINE"
);
},
{
closed = 1;
nodes = (
"145 663 LINE",
"454 663 LINE",
"454 51 LINE",
"145 51 LINE"
);
}
);
width = 600;
},
{
layerId = "C50897A6-2E0F-4413-920D-1E10F1328263";
paths = (
{
closed = 1;
nodes = (
"505 0 LINE",
"505 714 LINE",
"94 714 LINE",
"94 0 LINE"
);
},
{
closed = 1;
nodes = (
"145 663 LINE",
"454 663 LINE",
"454 51 LINE",
"145 51 LINE"
);
}
);
width = 600;
},
{
layerId = "B2B7298B-4574-4E4E-9E4E-FF4301209A8A";
paths = (
{
closed = 1;
nodes = (
"505 0 LINE",
"505 714 LINE",
"94 714 LINE",
"94 0 LINE"
);
},
{
closed = 1;
nodes = (
"145 663 LINE",
"454 663 LINE",
"454 51 LINE",
"145 51 LINE"
);
}
);
width = 600;
}
);
script = "";
category = Separator;
subCategory = Other;
},
{
glyphname = dottedCircle;
lastChange = "2020-03-25 01:49:53 +0000";
layers = (
{
anchors = (
{
name = bottom;
position = "{297, -48}";
},
{
name = top;
position = "{297, 608}";
}
);
layerId = UUID0;
paths = (
{
closed = 1;
nodes = (
"469 423 OFFCURVE",
"481 435 OFFCURVE",
"481 449 CURVE SMOOTH",
"481 463 OFFCURVE",
"469 475 OFFCURVE",
"455 475 CURVE SMOOTH",
"441 475 OFFCURVE",
"429 463 OFFCURVE",
"429 449 CURVE SMOOTH",
"429 435 OFFCURVE",
"441 423 OFFCURVE",
"455 423 CURVE SMOOTH"
);
},
{
closed = 1;
nodes = (
"153 107 OFFCURVE",
"165 119 OFFCURVE",
"165 133 CURVE SMOOTH",
"165 147 OFFCURVE",
"153 159 OFFCURVE",
"139 159 CURVE SMOOTH",
"125 159 OFFCURVE",
"113 147 OFFCURVE",
"113 133 CURVE SMOOTH",
"113 119 OFFCURVE",
"125 107 OFFCURVE",
"139 107 CURVE SMOOTH"
);
},
{
closed = 1;
nodes = (
"227 60 OFFCURVE",
"239 72 OFFCURVE",
"239 86 CURVE SMOOTH",
"239 100 OFFCURVE",
"227 112 OFFCURVE",
"213 112 CURVE SMOOTH",
"199 112 OFFCURVE",
"187 100 OFFCURVE",
"187 86 CURVE SMOOTH",
"187 72 OFFCURVE",
"199 60 OFFCURVE",
"213 60 CURVE SMOOTH"
);
},
{
closed = 1;
nodes = (
"106 181 OFFCURVE",
"118 193 OFFCURVE",
"118 207 CURVE SMOOTH",
"118 221 OFFCURVE",
"106 233 OFFCURVE",
"92 233 CURVE SMOOTH",
"78 233 OFFCURVE",
"66 221 OFFCURVE",
"66 207 CURVE SMOOTH",
"66 193 OFFCURVE",
"78 181 OFFCURVE",
"92 181 CURVE SMOOTH"
);
},
{
closed = 1;
nodes = (
"311 42 OFFCURVE",
"323 54 OFFCURVE",
"323 68 CURVE SMOOTH",
"323 82 OFFCURVE",
"311 94 OFFCURVE",
"297 94 CURVE SMOOTH",
"283 94 OFFCURVE",
"271 82 OFFCURVE",
"271 68 CURVE SMOOTH",
"271 54 OFFCURVE",
"283 42 OFFCURVE",
"297 42 CURVE SMOOTH"
);
},
{
closed = 1;
nodes = (
"88 265 OFFCURVE",
"100 277 OFFCURVE",
"100 291 CURVE SMOOTH",
"100 305 OFFCURVE",
"88 317 OFFCURVE",
"74 317 CURVE SMOOTH",
"60 317 OFFCURVE",
"48 305 OFFCURVE",
"48 291 CURVE SMOOTH",
"48 277 OFFCURVE",
"60 265 OFFCURVE",
"74 265 CURVE SMOOTH"
);
},
{
closed = 1;
nodes = (
"395 60 OFFCURVE",
"407 72 OFFCURVE",
"407 86 CURVE SMOOTH",
"407 100 OFFCURVE",
"395 112 OFFCURVE",
"381 112 CURVE SMOOTH",
"367 112 OFFCURVE",
"355 100 OFFCURVE",
"355 86 CURVE SMOOTH",
"355 72 OFFCURVE",
"367 60 OFFCURVE",
"381 60 CURVE SMOOTH"
);
},
{
closed = 1;
nodes = (
"106 349 OFFCURVE",
"118 361 OFFCURVE",
"118 375 CURVE SMOOTH",
"118 389 OFFCURVE",
"106 401 OFFCURVE",
"92 401 CURVE SMOOTH",
"78 401 OFFCURVE",
"66 389 OFFCURVE",
"66 375 CURVE SMOOTH",
"66 361 OFFCURVE",
"78 349 OFFCURVE",
"92 349 CURVE SMOOTH"
);
},
{
closed = 1;
nodes = (
"153 423 OFFCURVE",
"165 435 OFFCURVE",
"165 449 CURVE SMOOTH",
"165 463 OFFCURVE",
"153 475 OFFCURVE",
"139 475 CURVE SMOOTH",
"125 475 OFFCURVE",
"113 463 OFFCURVE",
"113 449 CURVE SMOOTH",
"113 435 OFFCURVE",
"125 423 OFFCURVE",
"139 423 CURVE SMOOTH"
);
},
{
closed = 1;
nodes = (
"469 107 OFFCURVE",
"481 119 OFFCURVE",
"481 133 CURVE SMOOTH",
"481 147 OFFCURVE",
"469 159 OFFCURVE",
"455 159 CURVE SMOOTH",
"441 159 OFFCURVE",
"429 147 OFFCURVE",
"429 133 CURVE SMOOTH",
"429 119 OFFCURVE",
"441 107 OFFCURVE",
"455 107 CURVE SMOOTH"
);
},
{
closed = 1;
nodes = (
"227 470 OFFCURVE",
"239 482 OFFCURVE",
"239 496 CURVE SMOOTH",
"239 510 OFFCURVE",
"227 522 OFFCURVE",
"213 522 CURVE SMOOTH",
"199 522 OFFCURVE",
"187 510 OFFCURVE",
"187 496 CURVE SMOOTH",
"187 482 OFFCURVE",
"199 470 OFFCURVE",
"213 470 CURVE SMOOTH"
);
},
{
closed = 1;
nodes = (
"516 181 OFFCURVE",
"528 193 OFFCURVE",
"528 207 CURVE SMOOTH",
"528 221 OFFCURVE",
"516 233 OFFCURVE",
"502 233 CURVE SMOOTH",
"488 233 OFFCURVE",
"476 221 OFFCURVE",
"476 207 CURVE SMOOTH",
"476 193 OFFCURVE",
"488 181 OFFCURVE",
"502 181 CURVE SMOOTH"
);
},
{
closed = 1;
nodes = (
"311 488 OFFCURVE",
"323 500 OFFCURVE",
"323 514 CURVE SMOOTH",
"323 528 OFFCURVE",
"311 540 OFFCURVE",
"297 540 CURVE SMOOTH",
"283 540 OFFCURVE",
"271 528 OFFCURVE",
"271 514 CURVE SMOOTH",
"271 500 OFFCURVE",
"283 488 OFFCURVE",
"297 488 CURVE SMOOTH"
);
},
{
closed = 1;
nodes = (
"534 265 OFFCURVE",
"546 277 OFFCURVE",
"546 291 CURVE SMOOTH",
"546 305 OFFCURVE",
"534 317 OFFCURVE",
"520 317 CURVE SMOOTH",
"506 317 OFFCURVE",
"494 305 OFFCURVE",
"494 291 CURVE SMOOTH",
"494 277 OFFCURVE",
"506 265 OFFCURVE",
"520 265 CURVE SMOOTH"
);
},
{
closed = 1;
nodes = (
"395 470 OFFCURVE",
"407 482 OFFCURVE",
"407 496 CURVE SMOOTH",
"407 510 OFFCURVE",
"395 522 OFFCURVE",
"381 522 CURVE SMOOTH",
"367 522 OFFCURVE",
"355 510 OFFCURVE",
"355 496 CURVE SMOOTH",
"355 482 OFFCURVE",
"367 470 OFFCURVE",
"381 470 CURVE SMOOTH"
);
},
{
closed = 1;
nodes = (
"516 349 OFFCURVE",
"528 361 OFFCURVE",
"528 375 CURVE SMOOTH",
"528 389 OFFCURVE",
"516 401 OFFCURVE",
"502 401 CURVE SMOOTH",
"488 401 OFFCURVE",
"476 389 OFFCURVE",
"476 375 CURVE SMOOTH",
"476 361 OFFCURVE",
"488 349 OFFCURVE",
"502 349 CURVE SMOOTH"
);
}
);
width = 594;
},
{
anchors = (
{
name = bottom;
position = "{297, -48}";
},
{
name = top;
position = "{297, 608}";
}
);
layerId = "C50897A6-2E0F-4413-920D-1E10F1328263";
paths = (
{
closed = 1;
nodes = (
"469 423 OFFCURVE",
"481 435 OFFCURVE",
"481 449 CURVE SMOOTH",
"481 463 OFFCURVE",
"469 475 OFFCURVE",
"455 475 CURVE SMOOTH",
"441 475 OFFCURVE",
"429 463 OFFCURVE",
"429 449 CURVE SMOOTH",
"429 435 OFFCURVE",
"441 423 OFFCURVE",
"455 423 CURVE SMOOTH"
);
},
{
closed = 1;
nodes = (
"153 107 OFFCURVE",
"165 119 OFFCURVE",
"165 133 CURVE SMOOTH",
"165 147 OFFCURVE",
"153 159 OFFCURVE",
"139 159 CURVE SMOOTH",
"125 159 OFFCURVE",
"113 147 OFFCURVE",
"113 133 CURVE SMOOTH",
"113 119 OFFCURVE",
"125 107 OFFCURVE",
"139 107 CURVE SMOOTH"
);
},
{
closed = 1;
nodes = (
"227 60 OFFCURVE",
"239 72 OFFCURVE",
"239 86 CURVE SMOOTH",
"239 100 OFFCURVE",
"227 112 OFFCURVE",
"213 112 CURVE SMOOTH",
"199 112 OFFCURVE",
"187 100 OFFCURVE",
"187 86 CURVE SMOOTH",
"187 72 OFFCURVE",
"199 60 OFFCURVE",
"213 60 CURVE SMOOTH"
);
},
{
closed = 1;
nodes = (
"106 181 OFFCURVE",
"118 193 OFFCURVE",
"118 207 CURVE SMOOTH",
"118 221 OFFCURVE",
"106 233 OFFCURVE",
"92 233 CURVE SMOOTH",
"78 233 OFFCURVE",
"66 221 OFFCURVE",
"66 207 CURVE SMOOTH",
"66 193 OFFCURVE",
"78 181 OFFCURVE",
"92 181 CURVE SMOOTH"
);
},
{
closed = 1;
nodes = (
"311 42 OFFCURVE",
"323 54 OFFCURVE",
"323 68 CURVE SMOOTH",
"323 82 OFFCURVE",
"311 94 OFFCURVE",
"297 94 CURVE SMOOTH",
"283 94 OFFCURVE",
"271 82 OFFCURVE",
"271 68 CURVE SMOOTH",
"271 54 OFFCURVE",
"283 42 OFFCURVE",
"297 42 CURVE SMOOTH"
);
},
{
closed = 1;
nodes = (
"88 265 OFFCURVE",
"100 277 OFFCURVE",
"100 291 CURVE SMOOTH",
"100 305 OFFCURVE",
"88 317 OFFCURVE",
"74 317 CURVE SMOOTH",
"60 317 OFFCURVE",
"48 305 OFFCURVE",
"48 291 CURVE SMOOTH",
"48 277 OFFCURVE",
"60 265 OFFCURVE",
"74 265 CURVE SMOOTH"
);
},
{
closed = 1;
nodes = (
"395 60 OFFCURVE",
"407 72 OFFCURVE",
"407 86 CURVE SMOOTH",
"407 100 OFFCURVE",
"395 112 OFFCURVE",
"381 112 CURVE SMOOTH",
"367 112 OFFCURVE",
"355 100 OFFCURVE",
"355 86 CURVE SMOOTH",
"355 72 OFFCURVE",
"367 60 OFFCURVE",
"381 60 CURVE SMOOTH"
);
},
{
closed = 1;
nodes = (
"106 349 OFFCURVE",
"118 361 OFFCURVE",
"118 375 CURVE SMOOTH",
"118 389 OFFCURVE",
"106 401 OFFCURVE",
"92 401 CURVE SMOOTH",
"78 401 OFFCURVE",
"66 389 OFFCURVE",
"66 375 CURVE SMOOTH",
"66 361 OFFCURVE",
"78 349 OFFCURVE",
"92 349 CURVE SMOOTH"
);
},
{
closed = 1;
nodes = (
"153 423 OFFCURVE",
"165 435 OFFCURVE",
"165 449 CURVE SMOOTH",
"165 463 OFFCURVE",
"153 475 OFFCURVE",
"139 475 CURVE SMOOTH",
"125 475 OFFCURVE",
"113 463 OFFCURVE",
"113 449 CURVE SMOOTH",
"113 435 OFFCURVE",
"125 423 OFFCURVE",
"139 423 CURVE SMOOTH"
);
},
{
closed = 1;
nodes = (
"469 107 OFFCURVE",
"481 119 OFFCURVE",
"481 133 CURVE SMOOTH",
"481 147 OFFCURVE",
"469 159 OFFCURVE",
"455 159 CURVE SMOOTH",
"441 159 OFFCURVE",
"429 147 OFFCURVE",
"429 133 CURVE SMOOTH",
"429 119 OFFCURVE",
"441 107 OFFCURVE",
"455 107 CURVE SMOOTH"
);
},
{
closed = 1;
nodes = (
"227 470 OFFCURVE",
"239 482 OFFCURVE",
"239 496 CURVE SMOOTH",
"239 510 OFFCURVE",
"227 522 OFFCURVE",
"213 522 CURVE SMOOTH",
"199 522 OFFCURVE",
"187 510 OFFCURVE",
"187 496 CURVE SMOOTH",
"187 482 OFFCURVE",
"199 470 OFFCURVE",
"213 470 CURVE SMOOTH"
);
},
{
closed = 1;
nodes = (
"516 181 OFFCURVE",
"528 193 OFFCURVE",
"528 207 CURVE SMOOTH",
"528 221 OFFCURVE",
"516 233 OFFCURVE",
"502 233 CURVE SMOOTH",
"488 233 OFFCURVE",
"476 221 OFFCURVE",
"476 207 CURVE SMOOTH",
"476 193 OFFCURVE",
"488 181 OFFCURVE",
"502 181 CURVE SMOOTH"
);
},
{
closed = 1;
nodes = (
"311 488 OFFCURVE",
"323 500 OFFCURVE",
"323 514 CURVE SMOOTH",
"323 528 OFFCURVE",
"311 540 OFFCURVE",
"297 540 CURVE SMOOTH",
"283 540 OFFCURVE",
"271 528 OFFCURVE",
"271 514 CURVE SMOOTH",
"271 500 OFFCURVE",
"283 488 OFFCURVE",
"297 488 CURVE SMOOTH"
);
},
{
closed = 1;
nodes = (
"534 265 OFFCURVE",
"546 277 OFFCURVE",
"546 291 CURVE SMOOTH",
"546 305 OFFCURVE",
"534 317 OFFCURVE",
"520 317 CURVE SMOOTH",
"506 317 OFFCURVE",
"494 305 OFFCURVE",
"494 291 CURVE SMOOTH",
"494 277 OFFCURVE",
"506 265 OFFCURVE",
"520 265 CURVE SMOOTH"
);
},
{
closed = 1;
nodes = (
"395 470 OFFCURVE",
"407 482 OFFCURVE",
"407 496 CURVE SMOOTH",
"407 510 OFFCURVE",
"395 522 OFFCURVE",
"381 522 CURVE SMOOTH",
"367 522 OFFCURVE",
"355 510 OFFCURVE",
"355 496 CURVE SMOOTH",
"355 482 OFFCURVE",
"367 470 OFFCURVE",
"381 470 CURVE SMOOTH"
);
},
{
closed = 1;
nodes = (
"516 349 OFFCURVE",
"528 361 OFFCURVE",
"528 375 CURVE SMOOTH",
"528 389 OFFCURVE",
"516 401 OFFCURVE",
"502 401 CURVE SMOOTH",
"488 401 OFFCURVE",
"476 389 OFFCURVE",
"476 375 CURVE SMOOTH",
"476 361 OFFCURVE",
"488 349 OFFCURVE",
"502 349 CURVE SMOOTH"
);
}
);
width = 594;
},
{
anchors = (
{
name = bottom;
position = "{297, -48}";
},
{
name = top;
position = "{297, 608}";
}
);
layerId = "B2B7298B-4574-4E4E-9E4E-FF4301209A8A";
paths = (
{
closed = 1;
nodes = (
"469 423 OFFCURVE",
"481 435 OFFCURVE",
"481 449 CURVE SMOOTH",
"481 463 OFFCURVE",
"469 475 OFFCURVE",
"455 475 CURVE SMOOTH",
"441 475 OFFCURVE",
"429 463 OFFCURVE",
"429 449 CURVE SMOOTH",
"429 435 OFFCURVE",
"441 423 OFFCURVE",
"455 423 CURVE SMOOTH"
);
},
{
closed = 1;
nodes = (
"153 107 OFFCURVE",
"165 119 OFFCURVE",
"165 133 CURVE SMOOTH",
"165 147 OFFCURVE",
"153 159 OFFCURVE",
"139 159 CURVE SMOOTH",
"125 159 OFFCURVE",
"113 147 OFFCURVE",
"113 133 CURVE SMOOTH",
"113 119 OFFCURVE",
"125 107 OFFCURVE",
"139 107 CURVE SMOOTH"
);
},
{
closed = 1;
nodes = (
"227 60 OFFCURVE",
"239 72 OFFCURVE",
"239 86 CURVE SMOOTH",
"239 100 OFFCURVE",
"227 112 OFFCURVE",
"213 112 CURVE SMOOTH",
"199 112 OFFCURVE",
"187 100 OFFCURVE",
"187 86 CURVE SMOOTH",
"187 72 OFFCURVE",
"199 60 OFFCURVE",
"213 60 CURVE SMOOTH"
);
},
{
closed = 1;
nodes = (
"106 181 OFFCURVE",
"118 193 OFFCURVE",
"118 207 CURVE SMOOTH",
"118 221 OFFCURVE",
"106 233 OFFCURVE",
"92 233 CURVE SMOOTH",
"78 233 OFFCURVE",
"66 221 OFFCURVE",
"66 207 CURVE SMOOTH",
"66 193 OFFCURVE",
"78 181 OFFCURVE",
"92 181 CURVE SMOOTH"
);
},
{
closed = 1;
nodes = (
"311 42 OFFCURVE",
"323 54 OFFCURVE",
"323 68 CURVE SMOOTH",
"323 82 OFFCURVE",
"311 94 OFFCURVE",
"297 94 CURVE SMOOTH",
"283 94 OFFCURVE",
"271 82 OFFCURVE",
"271 68 CURVE SMOOTH",
"271 54 OFFCURVE",
"283 42 OFFCURVE",
"297 42 CURVE SMOOTH"
);
},
{
closed = 1;
nodes = (
"88 265 OFFCURVE",
"100 277 OFFCURVE",
"100 291 CURVE SMOOTH",
"100 305 OFFCURVE",
"88 317 OFFCURVE",
"74 317 CURVE SMOOTH",
"60 317 OFFCURVE",
"48 305 OFFCURVE",
"48 291 CURVE SMOOTH",
"48 277 OFFCURVE",
"60 265 OFFCURVE",
"74 265 CURVE SMOOTH"
);
},
{
closed = 1;
nodes = (
"395 60 OFFCURVE",
"407 72 OFFCURVE",
"407 86 CURVE SMOOTH",
"407 100 OFFCURVE",
"395 112 OFFCURVE",
"381 112 CURVE SMOOTH",
"367 112 OFFCURVE",
"355 100 OFFCURVE",
"355 86 CURVE SMOOTH",
"355 72 OFFCURVE",
"367 60 OFFCURVE",
"381 60 CURVE SMOOTH"
);
},
{
closed = 1;
nodes = (
"106 349 OFFCURVE",
"118 361 OFFCURVE",
"118 375 CURVE SMOOTH",
"118 389 OFFCURVE",
"106 401 OFFCURVE",
"92 401 CURVE SMOOTH",
"78 401 OFFCURVE",
"66 389 OFFCURVE",
"66 375 CURVE SMOOTH",
"66 361 OFFCURVE",
"78 349 OFFCURVE",
"92 349 CURVE SMOOTH"
);
},
{
closed = 1;
nodes = (
"153 423 OFFCURVE",
"165 435 OFFCURVE",
"165 449 CURVE SMOOTH",
"165 463 OFFCURVE",
"153 475 OFFCURVE",
"139 475 CURVE SMOOTH",
"125 475 OFFCURVE",
"113 463 OFFCURVE",
"113 449 CURVE SMOOTH",
"113 435 OFFCURVE",
"125 423 OFFCURVE",
"139 423 CURVE SMOOTH"
);
},
{
closed = 1;
nodes = (
"469 107 OFFCURVE",
"481 119 OFFCURVE",
"481 133 CURVE SMOOTH",
"481 147 OFFCURVE",
"469 159 OFFCURVE",
"455 159 CURVE SMOOTH",
"441 159 OFFCURVE",
"429 147 OFFCURVE",
"429 133 CURVE SMOOTH",
"429 119 OFFCURVE",
"441 107 OFFCURVE",
"455 107 CURVE SMOOTH"
);
},
{
closed = 1;
nodes = (
"227 470 OFFCURVE",
"239 482 OFFCURVE",
"239 496 CURVE SMOOTH",
"239 510 OFFCURVE",
"227 522 OFFCURVE",
"213 522 CURVE SMOOTH",
"199 522 OFFCURVE",
"187 510 OFFCURVE",
"187 496 CURVE SMOOTH",
"187 482 OFFCURVE",
"199 470 OFFCURVE",
"213 470 CURVE SMOOTH"
);
},
{
closed = 1;
nodes = (
"516 181 OFFCURVE",
"528 193 OFFCURVE",
"528 207 CURVE SMOOTH",
"528 221 OFFCURVE",
"516 233 OFFCURVE",
"502 233 CURVE SMOOTH",
"488 233 OFFCURVE",
"476 221 OFFCURVE",
"476 207 CURVE SMOOTH",
"476 193 OFFCURVE",
"488 181 OFFCURVE",
"502 181 CURVE SMOOTH"
);
},
{
closed = 1;
nodes = (
"311 488 OFFCURVE",
"323 500 OFFCURVE",
"323 514 CURVE SMOOTH",
"323 528 OFFCURVE",
"311 540 OFFCURVE",
"297 540 CURVE SMOOTH",
"283 540 OFFCURVE",
"271 528 OFFCURVE",
"271 514 CURVE SMOOTH",
"271 500 OFFCURVE",
"283 488 OFFCURVE",
"297 488 CURVE SMOOTH"
);
},
{
closed = 1;
nodes = (
"534 265 OFFCURVE",
"546 277 OFFCURVE",
"546 291 CURVE SMOOTH",
"546 305 OFFCURVE",
"534 317 OFFCURVE",
"520 317 CURVE SMOOTH",
"506 317 OFFCURVE",
"494 305 OFFCURVE",
"494 291 CURVE SMOOTH",
"494 277 OFFCURVE",
"506 265 OFFCURVE",
"520 265 CURVE SMOOTH"
);
},
{
closed = 1;
nodes = (
"395 470 OFFCURVE",
"407 482 OFFCURVE",
"407 496 CURVE SMOOTH",
"407 510 OFFCURVE",
"395 522 OFFCURVE",
"381 522 CURVE SMOOTH",
"367 522 OFFCURVE",
"355 510 OFFCURVE",
"355 496 CURVE SMOOTH",
"355 482 OFFCURVE",
"367 470 OFFCURVE",
"381 470 CURVE SMOOTH"
);
},
{
closed = 1;
nodes = (
"516 349 OFFCURVE",
"528 361 OFFCURVE",
"528 375 CURVE SMOOTH",
"528 389 OFFCURVE",
"516 401 OFFCURVE",
"502 401 CURVE SMOOTH",
"488 401 OFFCURVE",
"476 389 OFFCURVE",
"476 375 CURVE SMOOTH",
"476 361 OFFCURVE",
"488 349 OFFCURVE",
"502 349 CURVE SMOOTH"
);
}
);
width = 594;
}
);
note = uni25CC;
unicode = 25CC;
category = Letter;
subCategory = Other;
},
{
glyphname = "e-mtei";
production = uAAE0;
lastChange = "2020-03-25 01:49:53 +0000";
layers = (
{
anchors = (
{
name = bottom;
position = "{556, 0}";
},
{
name = bottom_left;
position = "{0, 0}";
},
{
name = bottom_right;
position = "{636, 0}";
},
{
name = top;
position = "{472, 713}";
}
);
layerId = UUID0;
paths = (
{
closed = 1;
nodes = (
"20 77 LINE",
"70 29 OFFCURVE",
"117 15 OFFCURVE",
"175 15 CURVE SMOOTH",
"276 15 OFFCURVE",
"340 54 OFFCURVE",
"419 54 CURVE SMOOTH",
"461 54 OFFCURVE",
"512 43 OFFCURVE",
"522 0 CURVE",
"556 0 LINE",
"556 418 LINE SMOOTH",
"556 559 OFFCURVE",
"483 663 OFFCURVE",
"323 663 CURVE SMOOTH",
"214 663 OFFCURVE",
"140 615 OFFCURVE",
"90 514 CURVE",
"121 498 LINE",
"166 593 OFFCURVE",
"235 631 OFFCURVE",
"323 631 CURVE SMOOTH",
"447 631 OFFCURVE",
"522 556 OFFCURVE",
"522 422 CURVE SMOOTH",
"522 45 LINE",
"548 24 LINE",
"519 78 OFFCURVE",
"457 87 OFFCURVE",
"419 87 CURVE SMOOTH",
"340 87 OFFCURVE",
"259 47 OFFCURVE",
"175 47 CURVE SMOOTH",
"109 47 OFFCURVE",
"74 72 OFFCURVE",
"42 102 CURVE"
);
}
);
width = 636;
},
{
anchors = (
{
name = bottom;
position = "{676, 0}";
},
{
name = bottom_left;
position = "{0, 0}";
},
{
name = bottom_right;
position = "{716, 0}";
},
{
name = top;
position = "{472, 713}";
}
);
background = {
paths = (
{
closed = 1;
nodes = (
"12 102 LINE",
"75 22 OFFCURVE",
"161 4 OFFCURVE",
"236 4 CURVE SMOOTH",
"327 4 OFFCURVE",
"392 31 OFFCURVE",
"455 31 CURVE SMOOTH",
"487 31 OFFCURVE",
"510 24 OFFCURVE",
"522 0 CURVE",
"676 0 LINE",
"676 394 LINE SMOOTH",
"676 563 OFFCURVE",
"591 678 OFFCURVE",
"386 678 CURVE SMOOTH",
"248 678 OFFCURVE",
"147 626 OFFCURVE",
"85 504 CURVE",
"229 432 LINE",
"269 510 OFFCURVE",
"314 546 OFFCURVE",
"388 546 CURVE SMOOTH",
"475 546 OFFCURVE",
"522 496 OFFCURVE",
"522 413 CURVE SMOOTH",
"522 65 LINE",
"622 78 LINE",
"563 157 OFFCURVE",
"494 172 OFFCURVE",
"437 172 CURVE SMOOTH",
"362 172 OFFCURVE",
"304 146 OFFCURVE",
"234 146 CURVE SMOOTH",
"173 146 OFFCURVE",
"141 166 OFFCURVE",
"99 211 CURVE"
);
}
);
};
layerId = "C50897A6-2E0F-4413-920D-1E10F1328263";
paths = (
{
closed = 1;
nodes = (
"12 102 LINE",
"75 22 OFFCURVE",
"161 4 OFFCURVE",
"236 4 CURVE SMOOTH",
"327 4 OFFCURVE",
"392 31 OFFCURVE",
"455 31 CURVE SMOOTH",
"487 31 OFFCURVE",
"510 24 OFFCURVE",
"522 0 CURVE",
"676 0 LINE",
"676 394 LINE SMOOTH",
"676 563 OFFCURVE",
"591 678 OFFCURVE",
"386 678 CURVE SMOOTH",
"248 678 OFFCURVE",
"147 626 OFFCURVE",
"85 504 CURVE",
"229 432 LINE",
"269 510 OFFCURVE",
"314 546 OFFCURVE",
"388 546 CURVE SMOOTH",
"475 546 OFFCURVE",
"522 496 OFFCURVE",
"522 413 CURVE SMOOTH",
"522 65 LINE",
"622 78 LINE",
"563 157 OFFCURVE",
"494 172 OFFCURVE",
"437 172 CURVE SMOOTH",
"362 172 OFFCURVE",
"304 146 OFFCURVE",
"234 146 CURVE SMOOTH",
"173 146 OFFCURVE",
"141 166 OFFCURVE",
"99 211 CURVE"
);
}
);
width = 716;
},
{
anchors = (
{
name = bottom;
position = "{603, 0}";
},
{
name = bottom_left;
position = "{0, 0}";
},
{
name = bottom_right;
position = "{683, 0}";
},
{
name = top;
position = "{471, 713}";
}
);
layerId = "B2B7298B-4574-4E4E-9E4E-FF4301209A8A";
paths = (
{
closed = 1;
nodes = (
"20 89 LINE",
"77 26 OFFCURVE",
"142 11 OFFCURVE",
"213 11 CURVE SMOOTH",
"306 11 OFFCURVE",
"361 37 OFFCURVE",
"438 37 CURVE SMOOTH",
"472 37 OFFCURVE",
"498 32 OFFCURVE",
"522 0 CURVE",
"603 0 LINE",
"603 394 LINE SMOOTH",
"603 557 OFFCURVE",
"525 668 OFFCURVE",
"345 668 CURVE SMOOTH",
"224 668 OFFCURVE",
"140 618 OFFCURVE",
"90 514 CURVE",
"161 476 LINE",
"201 554 OFFCURVE",
"254 593 OFFCURVE",
"342 593 CURVE SMOOTH",
"457 593 OFFCURVE",
"521 526 OFFCURVE",
"521 411 CURVE SMOOTH",
"521 65 LINE",
"564 61 LINE",
"520 108 OFFCURVE",
"472 113 OFFCURVE",
"434 113 CURVE SMOOTH",
"346 113 OFFCURVE",
"283 87 OFFCURVE",
"208 87 CURVE SMOOTH",
"143 87 OFFCURVE",
"105 107 OFFCURVE",
"69 144 CURVE"
);
}
);
width = 683;
}
);
unicode = AAE0;
script = mtei;
category = Letter;
subCategory = Other;
},
{
glyphname = "o-mtei";
production = uAAE1;
lastChange = "2020-03-25 01:49:53 +0000";
layers = (
{
anchors = (
{
name = bottom;
position = "{556, 0}";
},
{
name = bottom_left;
position = "{0, 0}";
},
{
name = bottom_right;
position = "{591, 0}";
},
{
name = top;
position = "{456, 713}";
}
);
background = {
paths = (
{
closed = 1;
nodes = (
"556 627 LINE",
"556 659 LINE",
"40 659 LINE",
"40 627 LINE"
);
},
{
closed = 1;
nodes = (
"88 637 LINE",
"88 242 LINE SMOOTH",
"88 101 OFFCURVE",
"162 -3 OFFCURVE",
"320 -3 CURVE SMOOTH",
"434 -3 OFFCURVE",
"505 51 OFFCURVE",
"554 156 CURVE",
"523 172 LINE",
"478 70 OFFCURVE",
"410 29 OFFCURVE",
"320 29 CURVE SMOOTH",
"198 29 OFFCURVE",
"122 104 OFFCURVE",
"122 238 CURVE SMOOTH",
"122 637 LINE"
);
}
);
};
layerId = UUID0;
paths = (
{
closed = 1;
nodes = (
"556 627 LINE",
"556 659 LINE",
"40 659 LINE",
"40 627 LINE"
);
},
{
closed = 1;
nodes = (
"88 637 LINE",
"88 242 LINE SMOOTH",
"88 101 OFFCURVE",
"162 -3 OFFCURVE",
"320 -3 CURVE SMOOTH",
"434 -3 OFFCURVE",
"505 51 OFFCURVE",
"554 156 CURVE",
"523 172 LINE",
"478 70 OFFCURVE",
"410 29 OFFCURVE",
"320 29 CURVE SMOOTH",
"198 29 OFFCURVE",
"122 104 OFFCURVE",
"122 238 CURVE SMOOTH",
"122 637 LINE"
);
}
);
width = 591;
},
{
anchors = (
{
name = bottom;
position = "{651, 0}";
},
{
name = bottom_left;
position = "{0, 0}";
},
{
name = bottom_right;
position = "{673, 0}";
},
{
name = top;
position = "{471, 713}";
}
);
background = {
paths = (
{
closed = 1;
nodes = (
"137 602 LINE",
"137 274 LINE SMOOTH",
"137 106 OFFCURVE",
"217 0 OFFCURVE",
"404 0 CURVE SMOOTH",
"529 0 OFFCURVE",
"611 62 OFFCURVE",
"651 160 CURVE",
"582 198 LINE",
"549 123 OFFCURVE",
"496 75 OFFCURVE",
"403 75 CURVE SMOOTH",
"287 75 OFFCURVE",
"219 130 OFFCURVE",
"219 252 CURVE SMOOTH",
"219 602 LINE"
);
},
{
closed = 1;
nodes = (
"651 586 LINE",
"651 659 LINE",
"73 659 LINE",
"73 586 LINE"
);
}
);
};
layerId = "C50897A6-2E0F-4413-920D-1E10F1328263";
paths = (
{
closed = 1;
nodes = (
"651 537 LINE",
"651 659 LINE",
"16 659 LINE",
"16 537 LINE"
);
},
{
closed = 1;
nodes = (
"64 616 LINE",
"64 273 LINE SMOOTH",
"64 104 OFFCURVE",
"149 -11 OFFCURVE",
"354 -11 CURVE SMOOTH",
"492 -11 OFFCURVE",
"593 41 OFFCURVE",
"654 163 CURVE",
"511 235 LINE",
"471 157 OFFCURVE",
"426 121 OFFCURVE",
"352 121 CURVE SMOOTH",
"265 121 OFFCURVE",
"218 171 OFFCURVE",
"218 254 CURVE SMOOTH",
"218 616 LINE"
);
}
);
width = 673;
},
{
anchors = (
{
name = bottom;
position = "{594, 0}";
},
{
name = bottom_left;
position = "{0, 0}";
},
{
name = bottom_right;
position = "{639, 0}";
},
{
name = top;
position = "{474, 713}";
}
);
layerId = "B2B7298B-4574-4E4E-9E4E-FF4301209A8A";
paths = (
{
closed = 1;
nodes = (
"604 586 LINE",
"604 659 LINE",
"40 659 LINE",
"40 586 LINE"
);
},
{
closed = 1;
nodes = (
"90 602 LINE",
"90 272 LINE SMOOTH",
"90 106 OFFCURVE",
"173 0 OFFCURVE",
"351 0 CURVE SMOOTH",
"479 0 OFFCURVE",
"560 55 OFFCURVE",
"604 160 CURVE",
"535 198 LINE",
"501 123 OFFCURVE",
"453 75 OFFCURVE",
"351 75 CURVE SMOOTH",
"242 75 OFFCURVE",
"172 130 OFFCURVE",
"172 252 CURVE SMOOTH",
"172 602 LINE"
);
}
);
width = 639;
}
);
unicode = AAE1;
script = mtei;
category = Letter;
subCategory = Other;
},
{
glyphname = "cha-mtei";
production = uAAE2;
lastChange = "2020-03-25 01:49:53 +0000";
layers = (
{
anchors = (
{
name = bottom;
position = "{643, 0}";
},
{
name = bottom_left;
position = "{0, 0}";
},
{
name = bottom_right;
position = "{766, 0}";
},
{
name = top;
position = "{604, 713}";
}
);
layerId = UUID0;
paths = (
{
closed = 1;
nodes = (
"527 493 LINE",
"524 506 OFFCURVE",
"523 519 OFFCURVE",
"523 531 CURVE SMOOTH",
"523 592 OFFCURVE",
"548 631 OFFCURVE",
"603 631 CURVE SMOOTH",
"665 631 OFFCURVE",
"691 581 OFFCURVE",
"691 530 CURVE SMOOTH",
"691 466 OFFCURVE",
"650 407 OFFCURVE",
"606 355 CURVE SMOOTH",
"556 296 OFFCURVE",
"505 234 OFFCURVE",
"505 151 CURVE SMOOTH",
"505 73 OFFCURVE",
"551 14 OFFCURVE",
"630 -4 CURVE",
"643 27 LINE",
"575 44 OFFCURVE",
"540 87 OFFCURVE",
"540 153 CURVE SMOOTH",
"540 208 OFFCURVE",
"564 251 OFFCURVE",
"615 313 CURVE SMOOTH",
"671 381 OFFCURVE",
"725 448 OFFCURVE",
"725 529 CURVE SMOOTH",
"725 601 OFFCURVE",
"683 663 OFFCURVE",
"604 663 CURVE SMOOTH",
"525 663 OFFCURVE",
"492 600 OFFCURVE",
"492 539 CURVE SMOOTH",
"492 530 OFFCURVE",
"492 521 OFFCURVE",
"493 513 CURVE",
"500 525 LINE",
"265 525 LINE",
"272 513 LINE",
"273 521 OFFCURVE",
"273 530 OFFCURVE",
"273 539 CURVE SMOOTH",
"273 600 OFFCURVE",
"240 663 OFFCURVE",
"161 663 CURVE SMOOTH",
"82 663 OFFCURVE",
"40 601 OFFCURVE",
"40 529 CURVE SMOOTH",
"40 448 OFFCURVE",
"94 381 OFFCURVE",
"150 313 CURVE SMOOTH",
"201 251 OFFCURVE",
"225 208 OFFCURVE",
"225 153 CURVE SMOOTH",
"225 87 OFFCURVE",
"190 44 OFFCURVE",
"122 27 CURVE",
"135 -4 LINE",
"214 14 OFFCURVE",
"260 73 OFFCURVE",
"260 151 CURVE SMOOTH",
"260 234 OFFCURVE",
"209 296 OFFCURVE",
"159 355 CURVE SMOOTH",
"115 407 OFFCURVE",
"74 466 OFFCURVE",
"74 530 CURVE SMOOTH",
"74 581 OFFCURVE",
"100 631 OFFCURVE",
"162 631 CURVE SMOOTH",
"217 631 OFFCURVE",
"242 592 OFFCURVE",
"242 531 CURVE SMOOTH",
"242 519 OFFCURVE",
"241 506 OFFCURVE",
"238 493 CURVE"
);
}
);
width = 766;
},
{
anchors = (
{
name = bottom;
position = "{745, 0}";
},
{
name = bottom_left;
position = "{0, 0}";
},
{
name = bottom_right;
position = "{855, 0}";
},
{
name = top;
position = "{650, 713}";
}
);
layerId = "C50897A6-2E0F-4413-920D-1E10F1328263";
paths = (
{
closed = 1;
nodes = (
"602 423 LINE",
"600 447 OFFCURVE",
"599 466 OFFCURVE",
"599 483 CURVE SMOOTH",
"599 527 OFFCURVE",
"610 552 OFFCURVE",
"642 552 CURVE SMOOTH",
"669 552 OFFCURVE",
"681 533 OFFCURVE",
"681 509 CURVE SMOOTH",
"681 458 OFFCURVE",
"641 409 OFFCURVE",
"601 364 CURVE SMOOTH",
"559 316 OFFCURVE",
"501 257 OFFCURVE",
"501 167 CURVE SMOOTH",
"501 40 OFFCURVE",
"615 -7 OFFCURVE",
"686 -14 CURVE",
"745 115 LINE",
"725 118 OFFCURVE",
"652 129 OFFCURVE",
"652 178 CURVE SMOOTH",
"652 216 OFFCURVE",
"696 257 OFFCURVE",
"742 311 CURVE SMOOTH",
"777 352 OFFCURVE",
"834 426 OFFCURVE",
"834 507 CURVE SMOOTH",
"834 592 OFFCURVE",
"772 673 OFFCURVE",
"650 673 CURVE SMOOTH",
"536 673 OFFCURVE",
"477 602 OFFCURVE",
"477 525 CURVE SMOOTH",
"477 515 OFFCURVE",
"478 497 OFFCURVE",
"480 483 CURVE",
"515 545 LINE",
"339 545 LINE",
"374 483 LINE",
"376 497 OFFCURVE",
"377 515 OFFCURVE",
"377 525 CURVE SMOOTH",
"377 602 OFFCURVE",
"318 673 OFFCURVE",
"204 673 CURVE SMOOTH",
"82 673 OFFCURVE",
"20 592 OFFCURVE",
"20 507 CURVE SMOOTH",
"20 426 OFFCURVE",
"77 352 OFFCURVE",
"112 311 CURVE SMOOTH",
"158 257 OFFCURVE",
"202 216 OFFCURVE",
"202 178 CURVE SMOOTH",
"202 129 OFFCURVE",
"129 118 OFFCURVE",
"109 115 CURVE",
"168 -14 LINE",
"239 -7 OFFCURVE",
"353 40 OFFCURVE",
"353 167 CURVE SMOOTH",
"353 257 OFFCURVE",
"295 316 OFFCURVE",
"253 364 CURVE SMOOTH",
"213 409 OFFCURVE",
"173 458 OFFCURVE",
"173 509 CURVE SMOOTH",
"173 533 OFFCURVE",
"185 552 OFFCURVE",
"212 552 CURVE SMOOTH",
"244 552 OFFCURVE",
"255 527 OFFCURVE",
"255 483 CURVE SMOOTH",
"255 466 OFFCURVE",
"254 447 OFFCURVE",
"252 423 CURVE"
);
}
);
width = 855;
},
{
anchors = (
{
name = bottom;
position = "{682, 0}";
},
{
name = bottom_left;
position = "{0, 0}";
},
{
name = bottom_right;
position = "{802, 0}";
},
{
name = top;
position = "{622, 713}";
}
);
background = {
paths = (
{
closed = 1;
nodes = (
"569 465 LINE",
"564 481 OFFCURVE",
"562 496 OFFCURVE",
"562 511 CURVE SMOOTH",
"562 552 OFFCURVE",
"582 582 OFFCURVE",
"620 582 CURVE SMOOTH",
"664 582 OFFCURVE",
"681 552 OFFCURVE",
"681 521 CURVE SMOOTH",
"681 467 OFFCURVE",
"640 410 OFFCURVE",
"601 364 CURVE SMOOTH",
"554 308 OFFCURVE",
"501 241 OFFCURVE",
"501 161 CURVE SMOOTH",
"501 40 OFFCURVE",
"612 2 OFFCURVE",
"651 -4 CURVE",
"672 75 LINE",
"651 79 OFFCURVE",
"582 101 OFFCURVE",
"582 161 CURVE SMOOTH",
"582 215 OFFCURVE",
"610 257 OFFCURVE",
"656 313 CURVE SMOOTH",
"706 373 OFFCURVE",
"761 442 OFFCURVE",
"761 521 CURVE SMOOTH",
"761 592 OFFCURVE",
"716 658 OFFCURVE",
"619 658 CURVE SMOOTH",
"533 658 OFFCURVE",
"487 597 OFFCURVE",
"487 539 CURVE SMOOTH",
"487 530 OFFCURVE",
"488 521 OFFCURVE",
"490 513 CURVE",
"525 535 LINE",
"276 535 LINE",
"311 513 LINE",
"313 521 OFFCURVE",
"314 530 OFFCURVE",
"314 539 CURVE SMOOTH",
"314 597 OFFCURVE",
"268 658 OFFCURVE",
"182 658 CURVE SMOOTH",
"85 658 OFFCURVE",
"40 592 OFFCURVE",
"40 521 CURVE SMOOTH",
"40 442 OFFCURVE",
"96 374 OFFCURVE",
"145 313 CURVE SMOOTH",
"190 257 OFFCURVE",
"219 215 OFFCURVE",
"219 161 CURVE SMOOTH",
"219 101 OFFCURVE",
"150 79 OFFCURVE",
"129 75 CURVE",
"150 -4 LINE",
"189 2 OFFCURVE",
"300 40 OFFCURVE",
"300 161 CURVE SMOOTH",
"300 241 OFFCURVE",
"247 308 OFFCURVE",
"200 364 CURVE SMOOTH",
"161 410 OFFCURVE",
"120 467 OFFCURVE",
"120 521 CURVE SMOOTH",
"120 552 OFFCURVE",
"137 582 OFFCURVE",
"181 582 CURVE SMOOTH",
"219 582 OFFCURVE",
"239 552 OFFCURVE",
"239 512 CURVE SMOOTH",
"239 493 OFFCURVE",
"237 481 OFFCURVE",
"232 465 CURVE"
);
}
);
};
layerId = "B2B7298B-4574-4E4E-9E4E-FF4301209A8A";
paths = (
{
closed = 1;
nodes = (
"569 465 LINE",
"564 481 OFFCURVE",
"562 496 OFFCURVE",
"562 511 CURVE SMOOTH",
"562 558 OFFCURVE",
"581 592 OFFCURVE",
"622 592 CURVE SMOOTH",
"661 592 OFFCURVE",
"681 560 OFFCURVE",
"681 521 CURVE SMOOTH",
"681 465 OFFCURVE",
"639 410 OFFCURVE",
"601 364 CURVE SMOOTH",
"553 306 OFFCURVE",
"501 242 OFFCURVE",
"501 160 CURVE SMOOTH",
"501 41 OFFCURVE",
"610 0 OFFCURVE",
"651 -6 CURVE",
"682 73 LINE",
"651 80 OFFCURVE",
"582 98 OFFCURVE",
"582 168 CURVE SMOOTH",
"582 212 OFFCURVE",
"610 257 OFFCURVE",
"656 313 CURVE SMOOTH",
"707 375 OFFCURVE",
"761 441 OFFCURVE",
"761 521 CURVE SMOOTH",
"761 595 OFFCURVE",
"715 665 OFFCURVE",
"622 665 CURVE SMOOTH",
"532 665 OFFCURVE",
"487 600 OFFCURVE",
"487 539 CURVE SMOOTH",
"487 530 OFFCURVE",
"488 521 OFFCURVE",
"490 513 CURVE",
"525 535 LINE",
"276 535 LINE",
"311 513 LINE",
"313 521 OFFCURVE",
"314 530 OFFCURVE",
"314 539 CURVE SMOOTH",
"314 600 OFFCURVE",
"269 665 OFFCURVE",
"179 665 CURVE SMOOTH",
"86 665 OFFCURVE",
"40 595 OFFCURVE",
"40 522 CURVE SMOOTH",
"40 439 OFFCURVE",
"99 371 OFFCURVE",
"145 313 CURVE SMOOTH",
"184 264 OFFCURVE",
"219 216 OFFCURVE",
"219 167 CURVE SMOOTH",
"219 98 OFFCURVE",
"150 80 OFFCURVE",
"119 73 CURVE",
"150 -6 LINE",
"191 0 OFFCURVE",
"300 41 OFFCURVE",
"300 160 CURVE SMOOTH",
"300 242 OFFCURVE",
"248 306 OFFCURVE",
"200 364 CURVE SMOOTH",
"162 410 OFFCURVE",
"120 465 OFFCURVE",
"120 522 CURVE SMOOTH",
"120 560 OFFCURVE",
"139 592 OFFCURVE",
"179 592 CURVE SMOOTH",
"219 592 OFFCURVE",
"239 560 OFFCURVE",
"239 510 CURVE SMOOTH",
"239 494 OFFCURVE",
"237 481 OFFCURVE",
"232 465 CURVE"
);
}
);
width = 802;
}
);
unicode = AAE2;
script = mtei;
category = Letter;
subCategory = Other;
},
{
glyphname = "nya-mtei";
production = uAAE3;
lastChange = "2020-03-25 01:49:53 +0000";
layers = (
{
anchors = (
{
name = bottom;
position = "{767, 0}";
},
{
name = bottom_left;
position = "{0, 0}";
},
{
name = bottom_right;
position = "{832, 0}";
},
{
name = top;
position = "{631, 713}";
}
);
background = {
paths = (
{
closed = 1;
nodes = (
"767 481 OFFCURVE",
"721 415 OFFCURVE",
"631 415 CURVE SMOOTH",
"538 415 OFFCURVE",
"477 486 OFFCURVE",
"477 583 CURVE SMOOTH",
"477 601 OFFCURVE",
"479 629 OFFCURVE",
"482 659 CURVE",
"449 659 LINE",
"377 175 LINE",
"391 147 LINE",
"388 242 OFFCURVE",
"319 346 OFFCURVE",
"201 346 CURVE SMOOTH",
"119 346 OFFCURVE",
"30 296 OFFCURVE",
"30 169 CURVE SMOOTH",
"30 150 OFFCURVE",
"32 129 OFFCURVE",
"37 106 CURVE",
"69 115 LINE",
"65 134 OFFCURVE",
"63 149 OFFCURVE",
"63 167 CURVE SMOOTH",
"63 262 OFFCURVE",
"119 314 OFFCURVE",
"200 314 CURVE SMOOTH",
"295 314 OFFCURVE",
"365 243 OFFCURVE",
"365 117 CURVE SMOOTH",
"365 102 OFFCURVE",
"364 90 OFFCURVE",
"360 61 CURVE SMOOTH",
"352 0 LINE",
"386 0 LINE",
"465 537 LINE",
"447 557 LINE",
"460 449 OFFCURVE",
"537 383 OFFCURVE",
"632 383 CURVE SMOOTH",
"733 383 OFFCURVE",
"802 458 OFFCURVE",
"802 588 CURVE",
"767 588 LINE"
);
}
);
};
layerId = UUID0;
paths = (
{
closed = 1;
nodes = (
"767 481 OFFCURVE",
"721 415 OFFCURVE",
"631 415 CURVE SMOOTH",
"538 415 OFFCURVE",
"477 486 OFFCURVE",
"477 583 CURVE SMOOTH",
"477 601 OFFCURVE",
"479 629 OFFCURVE",
"482 659 CURVE",
"449 659 LINE",
"377 175 LINE",
"391 147 LINE",
"388 242 OFFCURVE",
"319 346 OFFCURVE",
"201 346 CURVE SMOOTH",
"119 346 OFFCURVE",
"30 296 OFFCURVE",
"30 169 CURVE SMOOTH",
"30 150 OFFCURVE",
"32 129 OFFCURVE",
"37 106 CURVE",
"69 113 LINE",
"65 133 OFFCURVE",
"63 148 OFFCURVE",
"63 166 CURVE SMOOTH",
"63 262 OFFCURVE",
"119 314 OFFCURVE",
"200 314 CURVE SMOOTH",
"295 314 OFFCURVE",
"365 243 OFFCURVE",
"365 117 CURVE SMOOTH",
"365 102 OFFCURVE",
"364 90 OFFCURVE",
"360 61 CURVE SMOOTH",
"352 0 LINE",
"386 0 LINE",
"465 537 LINE",
"447 557 LINE",
"460 449 OFFCURVE",
"537 383 OFFCURVE",
"632 383 CURVE SMOOTH",
"733 383 OFFCURVE",
"802 458 OFFCURVE",
"802 588 CURVE",
"767 588 LINE"
);
}
);
width = 832;
},
{
anchors = (
{
name = bottom;
position = "{902, 0}";
},
{
name = bottom_left;
position = "{0, 0}";
},
{
name = bottom_right;
position = "{921, 0}";
},
{
name = top;
position = "{670, 713}";
}
);
layerId = "C50897A6-2E0F-4413-920D-1E10F1328263";
paths = (
{
closed = 1;
nodes = (
"752 522 OFFCURVE",
"725 481 OFFCURVE",
"670 481 CURVE SMOOTH",
"618 481 OFFCURVE",
"581 519 OFFCURVE",
"581 591 CURVE SMOOTH",
"581 608 OFFCURVE",
"583 632 OFFCURVE",
"586 659 CURVE",
"435 659 LINE",
"367 205 LINE",
"448 177 LINE",
"444 252 OFFCURVE",
"381 376 OFFCURVE",
"231 376 CURVE SMOOTH",
"128 376 OFFCURVE",
"15 318 OFFCURVE",
"15 170 CURVE SMOOTH",
"15 139 OFFCURVE",
"20 104 OFFCURVE",
"31 67 CURVE",
"178 101 LINE",
"171 124 OFFCURVE",
"167 146 OFFCURVE",
"167 165 CURVE SMOOTH",
"167 221 OFFCURVE",
"203 248 OFFCURVE",
"250 248 CURVE SMOOTH",
"317 248 OFFCURVE",
"350 193 OFFCURVE",
"350 118 CURVE SMOOTH",
"350 105 OFFCURVE",
"349 88 OFFCURVE",
"345 61 CURVE SMOOTH",
"337 0 LINE",
"489 0 LINE",
"564 507 LINE",
"489 517 LINE",
"502 440 OFFCURVE",
"572 353 OFFCURVE",
"688 353 CURVE SMOOTH",
"804 353 OFFCURVE",
"906 439 OFFCURVE",
"906 588 CURVE",
"752 588 LINE"
);
}
);
width = 921;
},
{
anchors = (
{
name = bottom;
position = "{824, 0}";
},
{
name = bottom_left;
position = "{0, 0}";
},
{
name = bottom_right;
position = "{878, 0}";
},
{
name = top;
position = "{655, 713}";
}
);
layerId = "B2B7298B-4574-4E4E-9E4E-FF4301209A8A";
paths = (
{
closed = 1;
nodes = (
"767 497 OFFCURVE",
"732 441 OFFCURVE",
"655 441 CURVE SMOOTH",
"580 441 OFFCURVE",
"523 493 OFFCURVE",
"523 590 CURVE SMOOTH",
"523 608 OFFCURVE",
"525 632 OFFCURVE",
"528 659 CURVE",
"450 659 LINE",
"382 205 LINE",
"390 227 LINE",
"388 276 OFFCURVE",
"333 358 OFFCURVE",
"222 358 CURVE SMOOTH",
"132 358 OFFCURVE",
"30 304 OFFCURVE",
"30 169 CURVE SMOOTH",
"30 146 OFFCURVE",
"33 120 OFFCURVE",
"40 92 CURVE",
"118 109 LINE",
"113 130 OFFCURVE",
"111 149 OFFCURVE",
"111 165 CURVE SMOOTH",
"111 247 OFFCURVE",
"158 288 OFFCURVE",
"224 288 CURVE SMOOTH",
"314 288 OFFCURVE",
"365 214 OFFCURVE",
"365 116 CURVE SMOOTH",
"365 102 OFFCURVE",
"364 88 OFFCURVE",
"360 61 CURVE SMOOTH",
"352 0 LINE",
"431 0 LINE",
"506 507 LINE",
"494 487 LINE",
"503 438 OFFCURVE",
"565 371 OFFCURVE",
"662 371 CURVE SMOOTH",
"767 371 OFFCURVE",
"848 451 OFFCURVE",
"848 588 CURVE",
"767 588 LINE"
);
}
);
width = 878;
}
);
unicode = AAE3;
script = mtei;
category = Letter;
subCategory = Other;
},
{
glyphname = "tta-mtei";
production = uAAE4;
lastChange = "2020-03-25 01:49:53 +0000";
layers = (
{
anchors = (
{
name = bottom;
position = "{983, 0}";
},
{
name = bottom_left;
position = "{0, 0}";
},
{
name = bottom_right;
position = "{1063, 0}";
},
{
name = top;
position = "{898, 713}";
}
);
background = {
paths = (
{
closed = 1;
nodes = (
"637 428 LINE",
"759 595 OFFCURVE",
"792 631 OFFCURVE",
"854 631 CURVE SMOOTH",
"908 631 OFFCURVE",
"948 604 OFFCURVE",
"948 472 CURVE SMOOTH",
"948 0 LINE",
"983 0 LINE",
"983 476 LINE SMOOTH",
"983 614 OFFCURVE",
"933 663 OFFCURVE",
"858 663 CURVE SMOOTH",
"783 663 OFFCURVE",
"729 613 OFFCURVE",
"621 463 CURVE"
);
},
{
closed = 1;
nodes = (
"470 631 OFFCURVE",
"523 559 OFFCURVE",
"580 482 CURVE SMOOTH",
"725 284 OFFCURVE",
"743 222 OFFCURVE",
"743 165 CURVE SMOOTH",
"743 68 OFFCURVE",
"692 28 OFFCURVE",
"626 28 CURVE SMOOTH",
"556 28 OFFCURVE",
"500 72 OFFCURVE",
"500 153 CURVE SMOOTH",
"500 229 OFFCURVE",
"549 313 OFFCURVE",
"635 424 CURVE",
"612 451 LINE",
"521 324 OFFCURVE",
"466 246 OFFCURVE",
"466 153 CURVE SMOOTH",
"466 35 OFFCURVE",
"555 -4 OFFCURVE",
"624 -4 CURVE SMOOTH",
"699 -4 OFFCURVE",
"777 42 OFFCURVE",
"777 159 CURVE SMOOTH",
"777 256 OFFCURVE",
"723 343 OFFCURVE",
"608 499 CURVE SMOOTH",
"549 579 OFFCURVE",
"484 663 OFFCURVE",
"409 663 CURVE SMOOTH",
"332 663 OFFCURVE",
"266 576 OFFCURVE",
"209 499 CURVE SMOOTH",
"98 349 OFFCURVE",
"40 259 OFFCURVE",
"40 162 CURVE SMOOTH",
"40 48 OFFCURVE",
"120 -4 OFFCURVE",
"199 -4 CURVE SMOOTH",
"268 -4 OFFCURVE",
"351 36 OFFCURVE",
"351 152 CURVE SMOOTH",
"351 245 OFFCURVE",
"299 320 OFFCURVE",
"205 451 CURVE",
"182 424 LINE",
"268 313 OFFCURVE",
"317 229 OFFCURVE",
"317 152 CURVE SMOOTH",
"317 72 OFFCURVE",
"265 28 OFFCURVE",
"196 28 CURVE SMOOTH",
"127 28 OFFCURVE",
"74 72 OFFCURVE",
"74 166 CURVE SMOOTH",
"74 220 OFFCURVE",
"91 283 OFFCURVE",
"237 482 CURVE SMOOTH",
"302 571 OFFCURVE",
"352 631 OFFCURVE",
"409 631 CURVE SMOOTH"
);
}
);
};
layerId = UUID0;
paths = (
{
closed = 1;
nodes = (
"637 428 LINE",
"759 595 OFFCURVE",
"800 631 OFFCURVE",
"858 631 CURVE SMOOTH",
"908 631 OFFCURVE",
"948 602 OFFCURVE",
"948 482 CURVE SMOOTH",
"948 0 LINE",
"983 0 LINE",
"983 486 LINE SMOOTH",
"983 614 OFFCURVE",
"933 663 OFFCURVE",
"857 663 CURVE SMOOTH",
"780 663 OFFCURVE",
"729 613 OFFCURVE",
"621 463 CURVE"
);
},
{
closed = 1;
nodes = (
"470 631 OFFCURVE",
"523 559 OFFCURVE",
"580 482 CURVE SMOOTH",
"725 284 OFFCURVE",
"743 222 OFFCURVE",
"743 165 CURVE SMOOTH",
"743 68 OFFCURVE",
"692 28 OFFCURVE",
"626 28 CURVE SMOOTH",
"556 28 OFFCURVE",
"500 72 OFFCURVE",
"500 153 CURVE SMOOTH",
"500 229 OFFCURVE",
"549 313 OFFCURVE",
"635 424 CURVE",
"612 451 LINE",
"521 324 OFFCURVE",
"466 246 OFFCURVE",
"466 153 CURVE SMOOTH",
"466 35 OFFCURVE",
"555 -4 OFFCURVE",
"624 -4 CURVE SMOOTH",
"699 -4 OFFCURVE",
"777 42 OFFCURVE",
"777 159 CURVE SMOOTH",
"777 256 OFFCURVE",
"723 343 OFFCURVE",
"608 499 CURVE SMOOTH",
"549 579 OFFCURVE",
"484 663 OFFCURVE",
"409 663 CURVE SMOOTH",
"332 663 OFFCURVE",
"266 576 OFFCURVE",
"209 499 CURVE SMOOTH",
"98 349 OFFCURVE",
"40 259 OFFCURVE",
"40 162 CURVE SMOOTH",
"40 48 OFFCURVE",
"120 -4 OFFCURVE",
"199 -4 CURVE SMOOTH",
"268 -4 OFFCURVE",
"351 36 OFFCURVE",
"351 152 CURVE SMOOTH",
"351 245 OFFCURVE",
"299 320 OFFCURVE",
"205 451 CURVE",
"182 424 LINE",
"268 313 OFFCURVE",
"317 229 OFFCURVE",
"317 152 CURVE SMOOTH",
"317 72 OFFCURVE",
"265 28 OFFCURVE",
"196 28 CURVE SMOOTH",
"127 28 OFFCURVE",
"74 72 OFFCURVE",
"74 166 CURVE SMOOTH",
"74 220 OFFCURVE",
"91 283 OFFCURVE",
"237 482 CURVE SMOOTH",
"302 571 OFFCURVE",
"352 631 OFFCURVE",
"409 631 CURVE SMOOTH"
);
}
);
width = 1063;
},
{
anchors = (
{
name = bottom;
position = "{1127, 0}";
},
{
name = bottom_left;
position = "{0, 0}";
},
{
name = bottom_right;
position = "{1167, 0}";
},
{
name = top;
position = "{923, 713}";
}
);
layerId = "C50897A6-2E0F-4413-920D-1E10F1328263";
paths = (
{
closed = 1;
nodes = (
"759 400 LINE",
"850 518 OFFCURVE",
"880 542 OFFCURVE",
"917 542 CURVE SMOOTH",
"949 542 OFFCURVE",
"973 526 OFFCURVE",
"973 452 CURVE SMOOTH",
"973 0 LINE",
"1127 0 LINE",
"1127 456 LINE SMOOTH",
"1127 615 OFFCURVE",
"1047 673 OFFCURVE",
"925 673 CURVE SMOOTH",
"814 673 OFFCURVE",
"751 625 OFFCURVE",
"636 483 CURVE"
);
},
{
closed = 1;
nodes = (
"508 539 OFFCURVE",
"547 503 OFFCURVE",
"585 452 CURVE SMOOTH",
"729 259 OFFCURVE",
"749 226 OFFCURVE",
"749 182 CURVE SMOOTH",
"749 130 OFFCURVE",
"722 110 OFFCURVE",
"687 110 CURVE SMOOTH",
"649 110 OFFCURVE",
"623 134 OFFCURVE",
"623 177 CURVE SMOOTH",
"623 232 OFFCURVE",
"664 293 OFFCURVE",
"731 372 CURVE",
"609 451 LINE",
"517 321 OFFCURVE",
"479 254 OFFCURVE",
"479 175 CURVE SMOOTH",
"479 41 OFFCURVE",
"588 -14 OFFCURVE",
"687 -14 CURVE SMOOTH",
"787 -14 OFFCURVE",
"893 43 OFFCURVE",
"893 170 CURVE SMOOTH",
"893 262 OFFCURVE",
"837 346 OFFCURVE",
"725 492 CURVE SMOOTH",
"649 591 OFFCURVE",
"587 669 OFFCURVE",
"457 669 CURVE SMOOTH",
"324 669 OFFCURVE",
"259 588 OFFCURVE",
"190 499 CURVE SMOOTH",
"77 353 OFFCURVE",
"20 264 OFFCURVE",
"20 171 CURVE SMOOTH",
"20 42 OFFCURVE",
"130 -14 OFFCURVE",
"230 -14 CURVE SMOOTH",
"329 -14 OFFCURVE",
"439 41 OFFCURVE",
"439 175 CURVE SMOOTH",
"439 254 OFFCURVE",
"400 321 OFFCURVE",
"306 451 CURVE",
"187 377 LINE",
"255 296 OFFCURVE",
"295 233 OFFCURVE",
"295 178 CURVE SMOOTH",
"295 134 OFFCURVE",
"270 110 OFFCURVE",
"230 110 CURVE SMOOTH",
"195 110 OFFCURVE",
"168 128 OFFCURVE",
"168 172 CURVE SMOOTH",
"168 206 OFFCURVE",
"184 261 OFFCURVE",
"333 452 CURVE SMOOTH",
"367 496 OFFCURVE",
"403 539 OFFCURVE",
"458 539 CURVE SMOOTH"
);
}
);
width = 1167;
},
{
anchors = (
{
name = bottom;
position = "{1032, 0}";
},
{
name = bottom_left;
position = "{0, 0}";
},
{
name = bottom_right;
position = "{1112, 0}";
},
{
name = top;
position = "{900, 713}";
}
);
layerId = "B2B7298B-4574-4E4E-9E4E-FF4301209A8A";
paths = (
{
closed = 1;
nodes = (
"684 420 LINE",
"789 564 OFFCURVE",
"814 592 OFFCURVE",
"867 592 CURVE SMOOTH",
"915 592 OFFCURVE",
"950 568 OFFCURVE",
"950 462 CURVE SMOOTH",
"950 0 LINE",
"1032 0 LINE",
"1032 466 LINE SMOOTH",
"1032 611 OFFCURVE",
"968 665 OFFCURVE",
"872 665 CURVE SMOOTH",
"782 665 OFFCURVE",
"734 617 OFFCURVE",
"635 483 CURVE"
);
},
{
closed = 1;
nodes = (
"485 592 OFFCURVE",
"529 526 OFFCURVE",
"579 458 CURVE SMOOTH",
"708 281 OFFCURVE",
"744 231 OFFCURVE",
"744 169 CURVE SMOOTH",
"744 102 OFFCURVE",
"703 67 OFFCURVE",
"646 67 CURVE SMOOTH",
"590 67 OFFCURVE",
"548 102 OFFCURVE",
"548 165 CURVE SMOOTH",
"548 224 OFFCURVE",
"585 283 OFFCURVE",
"658 384 CURVE",
"612 451 LINE",
"512 315 OFFCURVE",
"466 238 OFFCURVE",
"466 158 CURVE SMOOTH",
"466 38 OFFCURVE",
"568 -6 OFFCURVE",
"649 -6 CURVE SMOOTH",
"730 -6 OFFCURVE",
"826 37 OFFCURVE",
"826 159 CURVE SMOOTH",
"826 243 OFFCURVE",
"781 316 OFFCURVE",
"658 482 CURVE SMOOTH",
"579 588 OFFCURVE",
"519 665 OFFCURVE",
"436 665 CURVE SMOOTH",
"344 665 OFFCURVE",
"277 571 OFFCURVE",
"208 479 CURVE SMOOTH",
"100 334 OFFCURVE",
"40 251 OFFCURVE",
"40 158 CURVE SMOOTH",
"40 37 OFFCURVE",
"141 -6 OFFCURVE",
"222 -6 CURVE SMOOTH",
"304 -6 OFFCURVE",
"399 39 OFFCURVE",
"399 155 CURVE SMOOTH",
"399 237 OFFCURVE",
"351 316 OFFCURVE",
"254 451 CURVE",
"205 382 LINE",
"282 281 OFFCURVE",
"317 222 OFFCURVE",
"317 166 CURVE SMOOTH",
"317 107 OFFCURVE",
"280 67 OFFCURVE",
"219 67 CURVE SMOOTH",
"164 67 OFFCURVE",
"122 99 OFFCURVE",
"122 173 CURVE SMOOTH",
"122 229 OFFCURVE",
"146 265 OFFCURVE",
"290 462 CURVE SMOOTH",
"341 531 OFFCURVE",
"382 592 OFFCURVE",
"433 592 CURVE SMOOTH"
);
}
);
width = 1112;
}
);
unicode = AAE4;
script = mtei;
category = Letter;
subCategory = Other;
},
{
glyphname = "ttha-mtei";
production = uAAE5;
lastChange = "2020-03-25 01:49:53 +0000";
layers = (
{
anchors = (
{
name = bottom;
position = "{586, 0}";
},
{
name = bottom_left;
position = "{0, 0}";
},
{
name = bottom_right;
position = "{633, 0}";
},
{
name = top;
position = "{504, 713}";
}
);
background = {
paths = (
{
closed = 0;
nodes = (
"504 419 LINE",
"504 14 LINE"
);
}
);
};
layerId = UUID0;
paths = (
{
closed = 1;
nodes = (
"334 419 LINE",
"334 643 LINE",
"300 643 LINE",
"300 419 LINE"
);
},
{
closed = 1;
nodes = (
"334 16 LINE",
"334 417 LINE",
"300 417 LINE",
"300 16 LINE"
);
},
{
closed = 1;
nodes = (
"593 627 LINE",
"593 659 LINE",
"40 659 LINE",
"40 627 LINE"
);
},
{
closed = 1;
nodes = (
"95 435 LINE",
"95 0 LINE",
"538 0 LINE",
"538 435 LINE"
);
},
{
closed = 1;
nodes = (
"116 32 LINE",
"129 14 LINE",
"129 419 LINE",
"116 403 LINE",
"515 403 LINE",
"504 419 LINE",
"504 14 LINE",
"515 32 LINE"
);
}
);
width = 633;
},
{
anchors = (
{
name = bottom;
position = "{638, 0}";
},
{
name = bottom_left;
position = "{0, 0}";
},
{
name = bottom_right;
position = "{713, 0}";
},
{
name = top;
position = "{513, 713}";
}
);
layerId = "C50897A6-2E0F-4413-920D-1E10F1328263";
paths = (
{
closed = 1;
nodes = (
"429 419 LINE",
"429 553 LINE",
"285 553 LINE",
"285 419 LINE"
);
},
{
closed = 1;
nodes = (
"424 54 LINE",
"424 377 LINE",
"290 377 LINE",
"290 54 LINE"
);
},
{
closed = 1;
nodes = (
"693 537 LINE",
"693 659 LINE",
"20 659 LINE",
"20 537 LINE"
);
},
{
closed = 1;
nodes = (
"75 435 LINE",
"75 0 LINE",
"638 0 LINE",
"638 435 LINE"
);
},
{
closed = 1;
nodes = (
"194 122 LINE",
"215 32 LINE",
"215 399 LINE",
"194 319 LINE",
"593 319 LINE",
"498 399 LINE",
"498 32 LINE",
"593 122 LINE"
);
}
);
width = 713;
},
{
anchors = (
{
name = bottom;
position = "{586, 0}";
},
{
name = bottom_left;
position = "{0, 0}";
},
{
name = bottom_right;
position = "{680, 0}";
},
{
name = top;
position = "{510, 713}";
}
);
layerId = "B2B7298B-4574-4E4E-9E4E-FF4301209A8A";
paths = (
{
closed = 1;
nodes = (
"381 419 LINE",
"381 601 LINE",
"300 601 LINE",
"300 419 LINE"
);
},
{
closed = 1;
nodes = (
"381 54 LINE",
"381 377 LINE",
"300 377 LINE",
"300 54 LINE"
);
},
{
closed = 1;
nodes = (
"640 586 LINE",
"640 659 LINE",
"40 659 LINE",
"40 586 LINE"
);
},
{
closed = 1;
nodes = (
"95 435 LINE",
"95 0 LINE",
"585 0 LINE",
"585 435 LINE"
);
},
{
closed = 1;
nodes = (
"141 72 LINE",
"177 32 LINE",
"177 399 LINE",
"141 363 LINE",
"540 363 LINE",
"504 399 LINE",
"504 32 LINE",
"540 72 LINE"
);
}
);
width = 680;
}
);
unicode = AAE5;
script = mtei;
category = Letter;
subCategory = Other;
},
{
glyphname = "dda-mtei";
production = uAAE6;
lastChange = "2020-03-25 01:49:53 +0000";
layers = (
{
anchors = (
{
name = bottom;
position = "{685, 0}";
},
{
name = bottom_left;
position = "{0, 0}";
},
{
name = bottom_right;
position = "{817, 0}";
},
{
name = top;
position = "{574, 713}";
}
);
background = {
paths = (
{
closed = 1;
nodes = (
"427 543 LINE",
"354 637 OFFCURVE",
"296 663 OFFCURVE",
"239 663 CURVE SMOOTH",
"137 663 OFFCURVE",
"48 580 OFFCURVE",
"48 366 CURVE SMOOTH",
"48 129 OFFCURVE",
"156 5 OFFCURVE",
"326 -1 CURVE",
"326 32 LINE",
"167 42 OFFCURVE",
"82 154 OFFCURVE",
"82 365 CURVE SMOOTH",
"82 562 OFFCURVE",
"156 631 OFFCURVE",
"241 631 CURVE SMOOTH",
"289 631 OFFCURVE",
"335 610 OFFCURVE",
"402 522 CURVE"
);
},
{
closed = 1;
nodes = (
"477 602 OFFCURVE",
"521 631 OFFCURVE",
"576 631 CURVE SMOOTH",
"661 631 OFFCURVE",
"735 562 OFFCURVE",
"735 365 CURVE SMOOTH",
"735 154 OFFCURVE",
"650 42 OFFCURVE",
"491 32 CURVE",
"491 -1 LINE",
"661 5 OFFCURVE",
"769 129 OFFCURVE",
"769 365 CURVE SMOOTH",
"769 579 OFFCURVE",
"680 663 OFFCURVE",
"578 663 CURVE SMOOTH",
"523 663 OFFCURVE",
"465 638 OFFCURVE",
"399 554 CURVE SMOOTH",
"316 449 OFFCURVE",
"273 391 OFFCURVE",
"273 310 CURVE SMOOTH",
"273 206 OFFCURVE",
"344 163 OFFCURVE",
"407 163 CURVE SMOOTH",
"466 163 OFFCURVE",
"544 201 OFFCURVE",
"544 306 CURVE SMOOTH",
"544 378 OFFCURVE",
"507 437 OFFCURVE",
"421 549 CURVE",
"401 523 LINE",
"467 433 OFFCURVE",
"509 377 OFFCURVE",
"509 307 CURVE SMOOTH",
"509 235 OFFCURVE",
"465 195 OFFCURVE",
"408 195 CURVE SMOOTH",
"350 195 OFFCURVE",
"308 235 OFFCURVE",
"308 308 CURVE SMOOTH",
"308 378 OFFCURVE",
"347 432 OFFCURVE",
"415 523 CURVE"
);
}
);
};
layerId = UUID0;
paths = (
{
closed = 1;
nodes = (
"358 632 OFFCURVE",
"308 663 OFFCURVE",
"242 663 CURVE SMOOTH",
"135 663 OFFCURVE",
"48 580 OFFCURVE",
"48 366 CURVE SMOOTH",
"48 129 OFFCURVE",
"156 5 OFFCURVE",
"326 -1 CURVE",
"326 32 LINE",
"167 42 OFFCURVE",
"82 154 OFFCURVE",
"82 366 CURVE SMOOTH",
"82 561 OFFCURVE",
"154 631 OFFCURVE",
"246 631 CURVE SMOOTH",
"298 631 OFFCURVE",
"337 608 OFFCURVE",
"402 522 CURVE",
"427 543 LINE"
);
},
{
closed = 1;
nodes = (
"475 600 OFFCURVE",
"512 631 OFFCURVE",
"572 631 CURVE SMOOTH",
"662 631 OFFCURVE",
"735 563 OFFCURVE",
"735 366 CURVE SMOOTH",
"735 154 OFFCURVE",
"650 42 OFFCURVE",
"491 32 CURVE",
"491 -1 LINE",
"659 5 OFFCURVE",
"769 126 OFFCURVE",
"769 366 CURVE SMOOTH",
"769 579 OFFCURVE",
"682 663 OFFCURVE",
"574 663 CURVE SMOOTH",
"515 663 OFFCURVE",
"465 638 OFFCURVE",
"399 554 CURVE SMOOTH",
"316 449 OFFCURVE",
"273 391 OFFCURVE",
"273 310 CURVE SMOOTH",
"273 206 OFFCURVE",
"344 163 OFFCURVE",
"407 163 CURVE SMOOTH",
"466 163 OFFCURVE",
"544 201 OFFCURVE",
"544 306 CURVE SMOOTH",
"544 378 OFFCURVE",
"507 437 OFFCURVE",
"421 549 CURVE",
"401 523 LINE",
"468 433 OFFCURVE",
"510 377 OFFCURVE",
"510 307 CURVE SMOOTH",
"510 235 OFFCURVE",
"465 195 OFFCURVE",
"407 195 CURVE SMOOTH",
"349 195 OFFCURVE",
"307 235 OFFCURVE",
"307 308 CURVE SMOOTH",
"307 378 OFFCURVE",
"346 432 OFFCURVE",
"415 523 CURVE"
);
}
);
width = 817;
},
{
anchors = (
{
name = bottom;
position = "{784, 0}";
},
{
name = bottom_left;
position = "{0, 0}";
},
{
name = bottom_right;
position = "{886, 0}";
},
{
name = top;
position = "{606, 713}";
}
);
background = {
paths = (
{
closed = 1;
nodes = (
"485 557 LINE",
"409 646 OFFCURVE",
"351 673 OFFCURVE",
"278 673 CURVE SMOOTH",
"143 673 OFFCURVE",
"24 583 OFFCURVE",
"24 352 CURVE SMOOTH",
"24 104 OFFCURVE",
"161 -5 OFFCURVE",
"387 -11 CURVE",
"387 127 LINE",
"221 135 OFFCURVE",
"179 216 OFFCURVE",
"179 347 CURVE SMOOTH",
"179 489 OFFCURVE",
"228 541 OFFCURVE",
"290 541 CURVE SMOOTH",
"330 541 OFFCURVE",
"357 519 OFFCURVE",
"400 474 CURVE"
);
},
{
closed = 1;
nodes = (
"530 520 OFFCURVE",
"557 541 OFFCURVE",
"596 541 CURVE SMOOTH",
"658 541 OFFCURVE",
"707 489 OFFCURVE",
"707 347 CURVE SMOOTH",
"707 216 OFFCURVE",
"665 135 OFFCURVE",
"499 127 CURVE",
"499 -11 LINE",
"725 -5 OFFCURVE",
"862 104 OFFCURVE",
"862 352 CURVE SMOOTH",
"862 583 OFFCURVE",
"744 673 OFFCURVE",
"606 673 CURVE SMOOTH",
"515 673 OFFCURVE",
"468 634 OFFCURVE",
"397 556 CURVE SMOOTH",
"299 449 OFFCURVE",
"264 392 OFFCURVE",
"264 328 CURVE SMOOTH",
"264 217 OFFCURVE",
"367 171 OFFCURVE",
"449 171 CURVE SMOOTH",
"530 171 OFFCURVE",
"625 216 OFFCURVE",
"625 332 CURVE SMOOTH",
"625 404 OFFCURVE",
"588 443 OFFCURVE",
"496 547 CURVE",
"377 506 LINE",
"447 432 OFFCURVE",
"490 393 OFFCURVE",
"490 339 CURVE SMOOTH",
"490 303 OFFCURVE",
"471 285 OFFCURVE",
"445 285 CURVE SMOOTH",
"419 285 OFFCURVE",
"399 303 OFFCURVE",
"399 337 CURVE SMOOTH",
"399 381 OFFCURVE",
"433 418 OFFCURVE",
"486 469 CURVE"
);
}
);
};
layerId = "C50897A6-2E0F-4413-920D-1E10F1328263";
paths = (
{
closed = 1;
nodes = (
"409 646 OFFCURVE",
"351 673 OFFCURVE",
"278 673 CURVE SMOOTH",
"143 673 OFFCURVE",
"24 583 OFFCURVE",
"24 352 CURVE SMOOTH",
"24 104 OFFCURVE",
"161 -5 OFFCURVE",
"387 -11 CURVE",
"387 127 LINE",
"221 135 OFFCURVE",
"179 216 OFFCURVE",
"179 347 CURVE SMOOTH",
"179 489 OFFCURVE",
"228 541 OFFCURVE",
"290 541 CURVE SMOOTH",
"330 541 OFFCURVE",
"357 519 OFFCURVE",
"400 474 CURVE",
"485 557 LINE"
);
},
{
closed = 1;
nodes = (
"530 520 OFFCURVE",
"557 541 OFFCURVE",
"596 541 CURVE SMOOTH",
"658 541 OFFCURVE",
"707 489 OFFCURVE",
"707 347 CURVE SMOOTH",
"707 216 OFFCURVE",
"665 135 OFFCURVE",
"499 127 CURVE",
"499 -11 LINE",
"725 -5 OFFCURVE",
"862 104 OFFCURVE",
"862 352 CURVE SMOOTH",
"862 583 OFFCURVE",
"744 673 OFFCURVE",
"606 673 CURVE SMOOTH",
"515 673 OFFCURVE",
"468 634 OFFCURVE",
"397 556 CURVE SMOOTH",
"299 449 OFFCURVE",
"264 392 OFFCURVE",
"264 328 CURVE SMOOTH",
"264 217 OFFCURVE",
"367 171 OFFCURVE",
"449 171 CURVE SMOOTH",
"530 171 OFFCURVE",
"625 216 OFFCURVE",
"625 332 CURVE SMOOTH",
"625 404 OFFCURVE",
"588 443 OFFCURVE",
"496 547 CURVE",
"377 506 LINE",
"447 432 OFFCURVE",
"490 393 OFFCURVE",
"490 339 CURVE SMOOTH",
"490 303 OFFCURVE",
"471 285 OFFCURVE",
"445 285 CURVE SMOOTH",
"419 285 OFFCURVE",
"399 303 OFFCURVE",
"399 337 CURVE SMOOTH",
"399 381 OFFCURVE",
"433 418 OFFCURVE",
"486 469 CURVE"
);
}
);
width = 886;
},
{
anchors = (
{
name = bottom;
position = "{727, 0}";
},
{
name = bottom_left;
position = "{0, 0}";
},
{
name = bottom_right;
position = "{857, 0}";
},
{
name = top;
position = "{597, 713}";
}
);
layerId = "B2B7298B-4574-4E4E-9E4E-FF4301209A8A";
paths = (
{
closed = 1;
nodes = (
"415 618 OFFCURVE",
"368 665 OFFCURVE",
"276 665 CURVE SMOOTH",
"161 665 OFFCURVE",
"48 592 OFFCURVE",
"48 355 CURVE SMOOTH",
"48 108 OFFCURVE",
"170 3 OFFCURVE",
"331 -1 CURVE",
"331 75 LINE",
"200 79 OFFCURVE",
"130 160 OFFCURVE",
"130 353 CURVE SMOOTH",
"130 548 OFFCURVE",
"201 592 OFFCURVE",
"273 592 CURVE SMOOTH",
"329 592 OFFCURVE",
"371 566 OFFCURVE",
"404 512 CURVE",
"445 579 LINE"
);
},
{
closed = 1;
nodes = (
"496 563 OFFCURVE",
"541 592 OFFCURVE",
"597 592 CURVE SMOOTH",
"665 592 OFFCURVE",
"727 548 OFFCURVE",
"727 360 CURVE SMOOTH",
"727 157 OFFCURVE",
"654 83 OFFCURVE",
"531 75 CURVE",
"531 -1 LINE",
"696 7 OFFCURVE",
"809 105 OFFCURVE",
"809 360 CURVE SMOOTH",
"809 608 OFFCURVE",
"702 665 OFFCURVE",
"595 665 CURVE SMOOTH",
"499 665 OFFCURVE",
"455 619 OFFCURVE",
"404 557 CURVE SMOOTH",
"291 420 OFFCURVE",
"273 364 OFFCURVE",
"273 310 CURVE SMOOTH",
"273 190 OFFCURVE",
"363 152 OFFCURVE",
"434 152 CURVE SMOOTH",
"508 152 OFFCURVE",
"592 193 OFFCURVE",
"592 307 CURVE SMOOTH",
"592 389 OFFCURVE",
"549 444 OFFCURVE",
"458 567 CURVE",
"411 506 LINE",
"469 425 OFFCURVE",
"511 374 OFFCURVE",
"511 310 CURVE SMOOTH",
"511 254 OFFCURVE",
"478 225 OFFCURVE",
"433 225 CURVE SMOOTH",
"388 225 OFFCURVE",
"354 253 OFFCURVE",
"354 309 CURVE SMOOTH",
"354 370 OFFCURVE",
"394 419 OFFCURVE",
"461 511 CURVE"
);
}
);
width = 857;
}
);
unicode = AAE6;
script = mtei;
category = Letter;
subCategory = Other;
},
{
glyphname = "ddha-mtei";
production = uAAE7;
lastChange = "2020-03-25 01:49:53 +0000";
layers = (
{
anchors = (
{
name = bottom;
position = "{802, 0}";
},
{
name = bottom_left;
position = "{0, 0}";
},
{
name = bottom_right;
position = "{882, 0}";
},
{
name = top;
position = "{717, 713}";
}
);
layerId = UUID0;
paths = (
{
closed = 1;
nodes = (
"456 440 LINE",
"575 597 OFFCURVE",
"619 631 OFFCURVE",
"676 631 CURVE SMOOTH",
"727 631 OFFCURVE",
"767 603 OFFCURVE",
"767 482 CURVE SMOOTH",
"767 0 LINE",
"802 0 LINE",
"802 486 LINE SMOOTH",
"802 614 OFFCURVE",
"752 663 OFFCURVE",
"675 663 CURVE SMOOTH",
"599 663 OFFCURVE",
"548 616 OFFCURVE",
"440 473 CURVE"
);
},
{
closed = 1;
nodes = (
"335 618 OFFCURVE",
"282 663 OFFCURVE",
"207 663 CURVE SMOOTH",
"130 663 OFFCURVE",
"80 615 OFFCURVE",
"80 486 CURVE SMOOTH",
"80 0 LINE",
"115 0 LINE",
"115 482 LINE SMOOTH",
"115 603 OFFCURVE",
"155 631 OFFCURVE",
"205 631 CURVE SMOOTH",
"256 631 OFFCURVE",
"310 601 OFFCURVE",
"429 437 CURVE SMOOTH",
"551 269 OFFCURVE",
"562 208 OFFCURVE",
"562 163 CURVE SMOOTH",
"562 62 OFFCURVE",
"508 28 OFFCURVE",
"445 28 CURVE SMOOTH",
"373 28 OFFCURVE",
"319 72 OFFCURVE",
"319 153 CURVE SMOOTH",
"319 231 OFFCURVE",
"368 319 OFFCURVE",
"454 434 CURVE",
"431 461 LINE",
"340 330 OFFCURVE",
"285 248 OFFCURVE",
"285 154 CURVE SMOOTH",
"285 34 OFFCURVE",
"373 -4 OFFCURVE",
"443 -4 CURVE SMOOTH",
"514 -4 OFFCURVE",
"596 36 OFFCURVE",
"596 157 CURVE SMOOTH",
"596 240 OFFCURVE",
"557 319 OFFCURVE",
"447 467 CURVE SMOOTH"
);
}
);
width = 882;
},
{
anchors = (
{
name = bottom;
position = "{922, 0}";
},
{
name = bottom_left;
position = "{0, 0}";
},
{
name = bottom_right;
position = "{962, 0}";
},
{
name = top;
position = "{717, 713}";
}
);
layerId = "C50897A6-2E0F-4413-920D-1E10F1328263";
paths = (
{
closed = 1;
nodes = (
"554 400 LINE",
"645 518 OFFCURVE",
"675 542 OFFCURVE",
"712 542 CURVE SMOOTH",
"744 542 OFFCURVE",
"767 526 OFFCURVE",
"767 452 CURVE SMOOTH",
"767 0 LINE",
"922 0 LINE",
"922 456 LINE SMOOTH",
"922 615 OFFCURVE",
"842 673 OFFCURVE",
"720 673 CURVE SMOOTH",
"609 673 OFFCURVE",
"546 625 OFFCURVE",
"431 483 CURVE"
);
},
{
closed = 1;
nodes = (
"414 625 OFFCURVE",
"351 673 OFFCURVE",
"242 673 CURVE SMOOTH",
"120 673 OFFCURVE",
"40 615 OFFCURVE",
"40 456 CURVE SMOOTH",
"40 0 LINE",
"195 0 LINE",
"195 452 LINE SMOOTH",
"195 526 OFFCURVE",
"218 542 OFFCURVE",
"250 542 CURVE SMOOTH",
"289 542 OFFCURVE",
"321 517 OFFCURVE",
"418 396 CURVE SMOOTH",
"527 252 OFFCURVE",
"544 221 OFFCURVE",
"544 177 CURVE SMOOTH",
"544 134 OFFCURVE",
"517 110 OFFCURVE",
"482 110 CURVE SMOOTH",
"444 110 OFFCURVE",
"418 134 OFFCURVE",
"418 177 CURVE SMOOTH",
"418 232 OFFCURVE",
"459 293 OFFCURVE",
"526 372 CURVE",
"404 451 LINE",
"312 321 OFFCURVE",
"274 254 OFFCURVE",
"274 175 CURVE SMOOTH",
"274 43 OFFCURVE",
"383 -11 OFFCURVE",
"482 -11 CURVE SMOOTH",
"582 -11 OFFCURVE",
"688 45 OFFCURVE",
"688 170 CURVE SMOOTH",
"688 262 OFFCURVE",
"632 346 OFFCURVE",
"520 492 CURVE SMOOTH"
);
}
);
width = 962;
},
{
anchors = (
{
name = bottom;
position = "{852, 0}";
},
{
name = bottom_left;
position = "{0, 0}";
},
{
name = bottom_right;
position = "{932, 0}";
},
{
name = top;
position = "{767, 713}";
}
);
layerId = "B2B7298B-4574-4E4E-9E4E-FF4301209A8A";
paths = (
{
closed = 1;
nodes = (
"506 419 LINE",
"587 531 OFFCURVE",
"629 592 OFFCURVE",
"690 592 CURVE SMOOTH",
"733 592 OFFCURVE",
"767 562 OFFCURVE",
"767 466 CURVE SMOOTH",
"767 0 LINE",
"852 0 LINE",
"852 470 LINE SMOOTH",
"852 610 OFFCURVE",
"787 665 OFFCURVE",
"693 665 CURVE SMOOTH",
"606 665 OFFCURVE",
"552 618 OFFCURVE",
"455 482 CURVE"
);
},
{
closed = 1;
nodes = (
"396 593 OFFCURVE",
"345 665 OFFCURVE",
"239 665 CURVE SMOOTH",
"146 665 OFFCURVE",
"80 610 OFFCURVE",
"80 470 CURVE SMOOTH",
"80 0 LINE",
"166 0 LINE",
"166 466 LINE SMOOTH",
"166 560 OFFCURVE",
"197 592 OFFCURVE",
"244 592 CURVE SMOOTH",
"294 592 OFFCURVE",
"324 557 OFFCURVE",
"431 414 CURVE SMOOTH",
"531 281 OFFCURVE",
"565 231 OFFCURVE",
"565 170 CURVE SMOOTH",
"565 103 OFFCURVE",
"523 67 OFFCURVE",
"467 67 CURVE SMOOTH",
"411 67 OFFCURVE",
"368 103 OFFCURVE",
"368 167 CURVE SMOOTH",
"368 227 OFFCURVE",
"405 287 OFFCURVE",
"479 385 CURVE",
"433 451 LINE",
"331 315 OFFCURVE",
"287 238 OFFCURVE",
"287 159 CURVE SMOOTH",
"287 38 OFFCURVE",
"387 -6 OFFCURVE",
"469 -6 CURVE SMOOTH",
"551 -6 OFFCURVE",
"646 37 OFFCURVE",
"646 162 CURVE SMOOTH",
"646 236 OFFCURVE",
"612 296 OFFCURVE",
"477 482 CURVE SMOOTH"
);
}
);
width = 932;
}
);
unicode = AAE7;
script = mtei;
category = Letter;
subCategory = Other;
},
{
glyphname = "nna-mtei";
production = uAAE8;
lastChange = "2020-03-25 01:49:53 +0000";
layers = (
{
anchors = (
{
name = bottom;
position = "{555, 0}";
},
{
name = bottom_left;
position = "{0, 0}";
},
{
name = bottom_right;
position = "{618, 0}";
},
{
name = top;
position = "{473, 713}";
}
);
layerId = UUID0;
paths = (
{
closed = 1;
nodes = (
"103 644 LINE",
"103 0 LINE",
"138 0 LINE",
"138 644 LINE"
);
},
{
closed = 1;
nodes = (
"547 312 LINE SMOOTH",
"551 325 OFFCURVE",
"555 352 OFFCURVE",
"555 370 CURVE SMOOTH",
"555 444 OFFCURVE",
"495 468 OFFCURVE",
"433 468 CURVE SMOOTH",
"243 468 LINE",
"243 436 LINE",
"428 436 LINE SMOOTH",
"492 436 OFFCURVE",
"521 417 OFFCURVE",
"521 367 CURVE SMOOTH",
"521 356 OFFCURVE",
"520 344 OFFCURVE",
"517 330 CURVE SMOOTH",
"431 0 LINE",
"463 -7 LINE"
);
},
{
closed = 1;
nodes = (
"573 627 LINE",
"573 659 LINE",
"55 659 LINE",
"55 627 LINE"
);
}
);
width = 618;
},
{
anchors = (
{
name = bottom;
position = "{686, 0}";
},
{
name = bottom_left;
position = "{0, 0}";
},
{
name = bottom_right;
position = "{737, 0}";
},
{
name = top;
position = "{532, 713}";
}
);
background = {
paths = (
{
closed = 1;
nodes = (
"146 602 LINE",
"146 0 LINE",
"227 0 LINE",
"227 603 LINE"
);
},
{
closed = 1;
nodes = (
"633 309 LINE SMOOTH",
"637 323 OFFCURVE",
"642 354 OFFCURVE",
"642 366 CURVE SMOOTH",
"642 454 OFFCURVE",
"572 478 OFFCURVE",
"512 478 CURVE SMOOTH",
"286 478 LINE",
"286 408 LINE",
"497 408 LINE SMOOTH",
"540 408 OFFCURVE",
"563 393 OFFCURVE",
"563 355 CURVE SMOOTH",
"563 347 OFFCURVE",
"563 339 OFFCURVE",
"561 330 CURVE SMOOTH",
"476 8 LINE",
"549 -7 LINE"
);
},
{
closed = 1;
nodes = (
"662 585 LINE",
"662 659 LINE",
"84 659 LINE",
"84 585 LINE"
);
}
);
};
layerId = "C50897A6-2E0F-4413-920D-1E10F1328263";
paths = (
{
closed = 1;
nodes = (
"73 602 LINE",
"73 0 LINE",
"227 0 LINE",
"227 603 LINE"
);
},
{
closed = 1;
nodes = (
"677 289 LINE SMOOTH",
"681 303 OFFCURVE",
"686 331 OFFCURVE",
"686 353 CURVE SMOOTH",
"686 447 OFFCURVE",
"596 478 OFFCURVE",
"522 478 CURVE SMOOTH",
"283 478 LINE",
"283 348 LINE",
"484 348 LINE SMOOTH",
"514 348 OFFCURVE",
"532 339 OFFCURVE",
"532 316 CURVE SMOOTH",
"532 308 OFFCURVE",
"530 298 OFFCURVE",
"528 290 CURVE SMOOTH",
"453 17 LINE",
"599 -12 LINE"
);
},
{
closed = 1;
nodes = (
"712 537 LINE",
"712 659 LINE",
"25 659 LINE",
"25 537 LINE"
);
}
);
width = 737;
},
{
anchors = (
{
name = bottom;
position = "{601, 0}";
},
{
name = bottom_left;
position = "{0, 0}";
},
{
name = bottom_right;
position = "{666, 0}";
},
{
name = top;
position = "{491, 713}";
}
);
layerId = "B2B7298B-4574-4E4E-9E4E-FF4301209A8A";
paths = (
{
closed = 1;
nodes = (
"105 602 LINE",
"105 0 LINE",
"187 0 LINE",
"187 603 LINE"
);
},
{
closed = 1;
nodes = (
"592 309 LINE SMOOTH",
"596 323 OFFCURVE",
"601 354 OFFCURVE",
"601 366 CURVE SMOOTH",
"601 454 OFFCURVE",
"531 478 OFFCURVE",
"471 478 CURVE SMOOTH",
"245 478 LINE",
"245 408 LINE",
"456 408 LINE SMOOTH",
"499 408 OFFCURVE",
"522 393 OFFCURVE",
"522 355 CURVE SMOOTH",
"522 347 OFFCURVE",
"522 339 OFFCURVE",
"520 330 CURVE SMOOTH",
"435 8 LINE",
"508 -7 LINE"
);
},
{
closed = 1;
nodes = (
"621 586 LINE",
"621 659 LINE",
"55 659 LINE",
"55 586 LINE"
);
}
);
width = 666;
}
);
unicode = AAE8;
script = mtei;
category = Letter;
subCategory = Other;
},
{
glyphname = "sha-mtei";
production = uAAE9;
lastChange = "2020-03-25 01:49:53 +0000";
layers = (
{
anchors = (
{
name = bottom;
position = "{1053, 0}";
},
{
name = bottom_left;
position = "{0, 0}";
},
{
name = bottom_right;
position = "{1073, 0}";
},
{
name = top;
position = "{953, 713}";
}
);
background = {
paths = (
{
closed = 1;
nodes = (
"455 587 OFFCURVE",
"363 513 OFFCURVE",
"280 431 CURVE",
"274 426 LINE",
"173 332 OFFCURVE",
"120 261 OFFCURVE",
"120 169 CURVE SMOOTH",
"120 44 OFFCURVE",
"218 -3 OFFCURVE",
"292 -3 CURVE SMOOTH",
"366 -3 OFFCURVE",
"464 44 OFFCURVE",
"464 167 CURVE SMOOTH",
"464 267 OFFCURVE",
"399 334 OFFCURVE",
"309 425 CURVE",
"292 397 LINE",
"386 305 OFFCURVE",
"430 242 OFFCURVE",
"430 168 CURVE SMOOTH",
"430 79 OFFCURVE",
"366 29 OFFCURVE",
"291 29 CURVE SMOOTH",
"214 29 OFFCURVE",
"154 82 OFFCURVE",
"154 172 CURVE SMOOTH",
"154 241 OFFCURVE",
"189 300 OFFCURVE",
"295 400 CURVE",
"303 408 LINE",
"390 493 OFFCURVE",
"522 600 OFFCURVE",
"563 627 CURVE",
"563 659 LINE",
"20 659 LINE",
"20 627 LINE",
"45 610 OFFCURVE",
"181 507 OFFCURVE",
"286 402 CURVE",
"301 432 LINE",
"224 506 OFFCURVE",
"133 582 OFFCURVE",
"62 638 CURVE",
"59 627 LINE",
"524 627 LINE",
"525 640 LINE"
);
},
{
closed = 1;
nodes = (
"945 587 OFFCURVE",
"853 513 OFFCURVE",
"770 431 CURVE",
"764 426 LINE",
"663 332 OFFCURVE",
"610 261 OFFCURVE",
"610 169 CURVE SMOOTH",
"610 44 OFFCURVE",
"708 -3 OFFCURVE",
"782 -3 CURVE SMOOTH",
"856 -3 OFFCURVE",
"954 44 OFFCURVE",
"954 167 CURVE SMOOTH",
"954 267 OFFCURVE",
"889 334 OFFCURVE",
"799 425 CURVE",
"782 397 LINE",
"876 305 OFFCURVE",
"920 242 OFFCURVE",
"920 168 CURVE SMOOTH",
"920 79 OFFCURVE",
"856 29 OFFCURVE",
"781 29 CURVE SMOOTH",
"704 29 OFFCURVE",
"644 82 OFFCURVE",
"644 172 CURVE SMOOTH",
"644 241 OFFCURVE",
"679 300 OFFCURVE",
"785 400 CURVE",
"793 408 LINE",
"880 493 OFFCURVE",
"1012 600 OFFCURVE",
"1053 627 CURVE",
"1053 659 LINE",
"510 659 LINE",
"510 627 LINE",
"535 610 OFFCURVE",
"671 507 OFFCURVE",
"776 402 CURVE",
"791 432 LINE",
"714 506 OFFCURVE",
"623 582 OFFCURVE",
"552 638 CURVE",
"549 627 LINE",
"1014 627 LINE",
"1015 640 LINE"
);
}
);
};
layerId = UUID0;
paths = (
{
closed = 1;
nodes = (
"20 659 LINE",
"20 627 LINE",
"45 610 OFFCURVE",
"181 507 OFFCURVE",
"286 402 CURVE",
"301 432 LINE",
"224 506 OFFCURVE",
"133 582 OFFCURVE",
"62 638 CURVE",
"59 627 LINE",
"524 627 LINE",
"525 640 LINE",
"431 569 OFFCURVE",
"346 496 OFFCURVE",
"274 426 CURVE SMOOTH",
"173 332 OFFCURVE",
"120 261 OFFCURVE",
"120 169 CURVE SMOOTH",
"120 44 OFFCURVE",
"218 -3 OFFCURVE",
"292 -3 CURVE SMOOTH",
"366 -3 OFFCURVE",
"464 44 OFFCURVE",
"464 167 CURVE SMOOTH",
"464 267 OFFCURVE",
"399 334 OFFCURVE",
"309 425 CURVE",
"284 405 LINE",
"386 304 OFFCURVE",
"430 245 OFFCURVE",
"430 168 CURVE SMOOTH",
"430 79 OFFCURVE",
"366 29 OFFCURVE",
"291 29 CURVE SMOOTH",
"214 29 OFFCURVE",
"154 82 OFFCURVE",
"154 172 CURVE SMOOTH",
"154 244 OFFCURVE",
"191 302 OFFCURVE",
"303 408 CURVE SMOOTH",
"390 493 OFFCURVE",
"522 600 OFFCURVE",
"563 627 CURVE",
"563 659 LINE"
);
},
{
closed = 1;
nodes = (
"510 659 LINE",
"510 627 LINE",
"535 610 OFFCURVE",
"671 507 OFFCURVE",
"776 402 CURVE",
"791 432 LINE",
"714 506 OFFCURVE",
"623 582 OFFCURVE",
"552 638 CURVE",
"549 627 LINE",
"1014 627 LINE",
"1015 640 LINE",
"921 569 OFFCURVE",
"836 496 OFFCURVE",
"764 426 CURVE SMOOTH",
"663 332 OFFCURVE",
"610 261 OFFCURVE",
"610 169 CURVE SMOOTH",
"610 44 OFFCURVE",
"708 -3 OFFCURVE",
"782 -3 CURVE SMOOTH",
"856 -3 OFFCURVE",
"954 44 OFFCURVE",
"954 167 CURVE SMOOTH",
"954 267 OFFCURVE",
"889 334 OFFCURVE",
"799 425 CURVE",
"774 405 LINE",
"876 304 OFFCURVE",
"920 245 OFFCURVE",
"920 168 CURVE SMOOTH",
"920 79 OFFCURVE",
"856 29 OFFCURVE",
"781 29 CURVE SMOOTH",
"704 29 OFFCURVE",
"644 82 OFFCURVE",
"644 172 CURVE SMOOTH",
"644 244 OFFCURVE",
"681 302 OFFCURVE",
"793 408 CURVE SMOOTH",
"880 493 OFFCURVE",
"1012 600 OFFCURVE",
"1053 627 CURVE",
"1053 659 LINE"
);
}
);
width = 1073;
},
{
anchors = (
{
name = bottom;
position = "{1165, 0}";
},
{
name = bottom_left;
position = "{0, 0}";
},
{
name = bottom_right;
position = "{1175, 0}";
},
{
name = top;
position = "{940, 713}";
}
);
background = {
paths = (
{
closed = 1;
nodes = (
"10 659 LINE",
"10 537 LINE",
"34 523 OFFCURVE",
"165 439 OFFCURVE",
"266 352 CURVE",
"407 417 LINE",
"335 477 OFFCURVE",
"249 537 OFFCURVE",
"182 583 CURVE",
"115 537 LINE",
"560 537 LINE",
"505 583 LINE",
"402 517 OFFCURVE",
"325 465 OFFCURVE",
"258 411 CURVE SMOOTH",
"161 332 OFFCURVE",
"108 270 OFFCURVE",
"108 183 CURVE SMOOTH",
"108 46 OFFCURVE",
"238 -13 OFFCURVE",
"338 -13 CURVE SMOOTH",
"438 -13 OFFCURVE",
"566 46 OFFCURVE",
"566 183 CURVE SMOOTH",
"566 274 OFFCURVE",
"508 331 OFFCURVE",
"415 410 CURVE",
"272 347 LINE",
"368 283 OFFCURVE",
"412 238 OFFCURVE",
"412 185 CURVE SMOOTH",
"412 138 OFFCURVE",
"377 109 OFFCURVE",
"337 109 CURVE SMOOTH",
"295 109 OFFCURVE",
"262 141 OFFCURVE",
"262 189 CURVE SMOOTH",
"262 243 OFFCURVE",
"305 282 OFFCURVE",
"407 359 CURVE SMOOTH",
"492 423 OFFCURVE",
"623 515 OFFCURVE",
"663 537 CURVE",
"663 659 LINE"
);
},
{
closed = 1;
nodes = (
"512 659 LINE",
"512 537 LINE",
"536 523 OFFCURVE",
"667 439 OFFCURVE",
"768 352 CURVE",
"909 417 LINE",
"837 477 OFFCURVE",
"751 537 OFFCURVE",
"684 583 CURVE",
"617 537 LINE",
"1062 537 LINE",
"1007 583 LINE",
"904 517 OFFCURVE",
"821 461 OFFCURVE",
"760 411 CURVE SMOOTH",
"660 328 OFFCURVE",
"610 270 OFFCURVE",
"610 184 CURVE SMOOTH",
"610 45 OFFCURVE",
"741 -13 OFFCURVE",
"840 -13 CURVE SMOOTH",
"940 -13 OFFCURVE",
"1068 46 OFFCURVE",
"1068 183 CURVE SMOOTH",
"1068 274 OFFCURVE",
"1010 331 OFFCURVE",
"917 410 CURVE",
"774 347 LINE",
"870 283 OFFCURVE",
"914 238 OFFCURVE",
"914 185 CURVE SMOOTH",
"914 138 OFFCURVE",
"879 109 OFFCURVE",
"839 109 CURVE SMOOTH",
"797 109 OFFCURVE",
"764 141 OFFCURVE",
"764 190 CURVE SMOOTH",
"764 241 OFFCURVE",
"803 279 OFFCURVE",
"909 359 CURVE SMOOTH",
"1001 428 OFFCURVE",
"1125 515 OFFCURVE",
"1165 537 CURVE",
"1165 659 LINE"
);
}
);
};
layerId = "C50897A6-2E0F-4413-920D-1E10F1328263";
paths = (
{
closed = 1;
nodes = (
"10 659 LINE",
"10 537 LINE",
"34 523 OFFCURVE",
"165 439 OFFCURVE",
"271 352 CURVE",
"402 413 LINE",
"325 474 OFFCURVE",
"233 536 OFFCURVE",
"162 583 CURVE",
"115 537 LINE",
"560 537 LINE",
"525 583 LINE",
"376 491 OFFCURVE",
"322 454 OFFCURVE",
"263 407 CURVE SMOOTH",
"169 332 OFFCURVE",
"108 269 OFFCURVE",
"108 179 CURVE SMOOTH",
"108 47 OFFCURVE",
"239 -13 OFFCURVE",
"338 -13 CURVE SMOOTH",
"438 -13 OFFCURVE",
"566 47 OFFCURVE",
"566 181 CURVE SMOOTH",
"566 270 OFFCURVE",
"510 325 OFFCURVE",
"410 406 CURVE",
"277 347 LINE",
"368 283 OFFCURVE",
"412 238 OFFCURVE",
"412 185 CURVE SMOOTH",
"412 138 OFFCURVE",
"377 109 OFFCURVE",
"337 109 CURVE SMOOTH",
"295 109 OFFCURVE",
"262 141 OFFCURVE",
"262 189 CURVE SMOOTH",
"262 243 OFFCURVE",
"305 282 OFFCURVE",
"407 359 CURVE SMOOTH",
"503 431 OFFCURVE",
"623 515 OFFCURVE",
"663 537 CURVE",
"663 659 LINE"
);
},
{
closed = 1;
nodes = (
"512 659 LINE",
"512 537 LINE",
"536 523 OFFCURVE",
"667 439 OFFCURVE",
"773 352 CURVE",
"904 413 LINE",
"827 474 OFFCURVE",
"735 536 OFFCURVE",
"664 583 CURVE",
"617 537 LINE",
"1062 537 LINE",
"1027 583 LINE",
"895 501 OFFCURVE",
"833 461 OFFCURVE",
"765 407 CURVE SMOOTH",
"660 324 OFFCURVE",
"610 262 OFFCURVE",
"610 180 CURVE SMOOTH",
"610 46 OFFCURVE",
"742 -13 OFFCURVE",
"841 -13 CURVE SMOOTH",
"940 -13 OFFCURVE",
"1068 47 OFFCURVE",
"1068 182 CURVE SMOOTH",
"1068 270 OFFCURVE",
"1012 325 OFFCURVE",
"912 406 CURVE",
"779 347 LINE",
"870 283 OFFCURVE",
"914 238 OFFCURVE",
"914 185 CURVE SMOOTH",
"914 138 OFFCURVE",
"879 109 OFFCURVE",
"839 109 CURVE SMOOTH",
"797 109 OFFCURVE",
"764 141 OFFCURVE",
"764 189 CURVE SMOOTH",
"764 243 OFFCURVE",
"807 282 OFFCURVE",
"909 359 CURVE SMOOTH",
"998 426 OFFCURVE",
"1125 515 OFFCURVE",
"1165 537 CURVE",
"1165 659 LINE"
);
}
);
width = 1175;
},
{
anchors = (
{
name = bottom;
position = "{1102, 0}";
},
{
name = bottom_left;
position = "{0, 0}";
},
{
name = bottom_right;
position = "{1122, 0}";
},
{
name = top;
position = "{933, 713}";
}
);
layerId = "B2B7298B-4574-4E4E-9E4E-FF4301209A8A";
paths = (
{
closed = 1;
nodes = (
"20 659 LINE",
"20 586 LINE",
"46 572 OFFCURVE",
"171 486 OFFCURVE",
"282 390 CURVE",
"334 441 LINE",
"253 509 OFFCURVE",
"200 549 OFFCURVE",
"128 601 CURVE",
"111 586 LINE",
"533 586 LINE",
"518 603 LINE",
"433 547 OFFCURVE",
"367 497 OFFCURVE",
"302 441 CURVE SMOOTH",
"176 332 OFFCURVE",
"120 258 OFFCURVE",
"120 168 CURVE SMOOTH",
"120 42 OFFCURVE",
"233 -6 OFFCURVE",
"318 -6 CURVE SMOOTH",
"403 -6 OFFCURVE",
"517 41 OFFCURVE",
"517 170 CURVE SMOOTH",
"517 265 OFFCURVE",
"455 326 OFFCURVE",
"356 418 CURVE",
"304 364 LINE",
"386 298 OFFCURVE",
"436 237 OFFCURVE",
"436 172 CURVE SMOOTH",
"436 103 OFFCURVE",
"378 65 OFFCURVE",
"317 65 CURVE SMOOTH",
"260 65 OFFCURVE",
"201 99 OFFCURVE",
"201 176 CURVE SMOOTH",
"201 236 OFFCURVE",
"237 285 OFFCURVE",
"340 377 CURVE SMOOTH",
"469 493 OFFCURVE",
"574 562 OFFCURVE",
"612 586 CURVE",
"612 659 LINE"
);
},
{
closed = 1;
nodes = (
"510 659 LINE",
"510 586 LINE",
"536 572 OFFCURVE",
"661 486 OFFCURVE",
"772 390 CURVE",
"824 441 LINE",
"743 509 OFFCURVE",
"690 549 OFFCURVE",
"618 601 CURVE",
"601 586 LINE",
"1023 586 LINE",
"1008 603 LINE",
"923 547 OFFCURVE",
"857 497 OFFCURVE",
"792 441 CURVE SMOOTH",
"666 332 OFFCURVE",
"610 258 OFFCURVE",
"610 168 CURVE SMOOTH",
"610 42 OFFCURVE",
"723 -6 OFFCURVE",
"808 -6 CURVE SMOOTH",
"893 -6 OFFCURVE",
"1007 41 OFFCURVE",
"1007 170 CURVE SMOOTH",
"1007 265 OFFCURVE",
"945 326 OFFCURVE",
"846 418 CURVE",
"794 364 LINE",
"876 298 OFFCURVE",
"926 237 OFFCURVE",
"926 172 CURVE SMOOTH",
"926 103 OFFCURVE",
"868 65 OFFCURVE",
"807 65 CURVE SMOOTH",
"750 65 OFFCURVE",
"691 99 OFFCURVE",
"691 176 CURVE SMOOTH",
"691 236 OFFCURVE",
"727 285 OFFCURVE",
"830 377 CURVE SMOOTH",
"959 493 OFFCURVE",
"1064 562 OFFCURVE",
"1102 586 CURVE",
"1102 659 LINE"
);
}
);
width = 1122;
}
);
unicode = AAE9;
script = mtei;
category = Letter;
subCategory = Other;
},
{
glyphname = "ssa-mtei";
production = uAAEA;
lastChange = "2020-03-25 01:49:53 +0000";
layers = (
{
anchors = (
{
name = bottom;
position = "{563, 0}";
},
{
name = bottom_left;
position = "{0, 0}";
},
{
name = bottom_right;
position = "{643, 0}";
},
{
name = top;
position = "{479, 713}";
}
);
layerId = UUID0;
paths = (
{
closed = 1;
nodes = (
"563 0 LINE",
"563 434 LINE SMOOTH",
"563 550 OFFCURVE",
"508 663 OFFCURVE",
"323 663 CURVE SMOOTH",
"140 663 OFFCURVE",
"80 552 OFFCURVE",
"80 434 CURVE SMOOTH",
"80 0 LINE"
);
},
{
closed = 1;
nodes = (
"547 334 LINE",
"99 334 LINE",
"99 302 LINE",
"547 302 LINE"
);
},
{
closed = 1;
nodes = (
"529 13 LINE",
"547 32 LINE",
"97 32 LINE",
"115 13 LINE",
"115 443 LINE SMOOTH",
"115 538 OFFCURVE",
"166 631 OFFCURVE",
"323 631 CURVE SMOOTH",
"479 631 OFFCURVE",
"529 540 OFFCURVE",
"529 443 CURVE SMOOTH"
);
}
);
width = 643;
},
{
anchors = (
{
name = bottom;
position = "{643, 0}";
},
{
name = bottom_left;
position = "{0, 0}";
},
{
name = bottom_right;
position = "{683, 0}";
},
{
name = top;
position = "{438, 713}";
}
);
layerId = "C50897A6-2E0F-4413-920D-1E10F1328263";
paths = (
{
closed = 1;
nodes = (
"643 0 LINE",
"643 388 LINE SMOOTH",
"643 546 OFFCURVE",
"565 677 OFFCURVE",
"342 677 CURVE SMOOTH",
"119 677 OFFCURVE",
"40 546 OFFCURVE",
"40 388 CURVE SMOOTH",
"40 0 LINE"
);
},
{
closed = 1;
nodes = (
"572 374 LINE",
"114 374 LINE",
"114 252 LINE",
"572 252 LINE"
);
},
{
closed = 1;
nodes = (
"489 13 LINE",
"571 122 LINE",
"111 122 LINE",
"195 13 LINE",
"195 387 LINE SMOOTH",
"195 464 OFFCURVE",
"222 535 OFFCURVE",
"345 535 CURVE SMOOTH",
"468 535 OFFCURVE",
"489 464 OFFCURVE",
"489 390 CURVE SMOOTH"
);
}
);
width = 683;
},
{
anchors = (
{
name = bottom;
position = "{611, 0}";
},
{
name = bottom_left;
position = "{0, 0}";
},
{
name = bottom_right;
position = "{691, 0}";
},
{
name = top;
position = "{479, 713}";
}
);
layerId = "B2B7298B-4574-4E4E-9E4E-FF4301209A8A";
paths = (
{
closed = 1;
nodes = (
"611 0 LINE",
"611 386 LINE SMOOTH",
"611 541 OFFCURVE",
"528 665 OFFCURVE",
"344 665 CURVE SMOOTH",
"166 665 OFFCURVE",
"80 541 OFFCURVE",
"80 386 CURVE SMOOTH",
"80 0 LINE"
);
},
{
closed = 1;
nodes = (
"545 354 LINE",
"147 354 LINE",
"147 282 LINE",
"545 282 LINE"
);
},
{
closed = 1;
nodes = (
"529 33 LINE",
"567 72 LINE",
"125 72 LINE",
"162 33 LINE",
"162 399 LINE SMOOTH",
"162 521 OFFCURVE",
"229 592 OFFCURVE",
"345 592 CURVE SMOOTH",
"461 592 OFFCURVE",
"529 523 OFFCURVE",
"529 399 CURVE SMOOTH"
);
}
);
width = 691;
}
);
unicode = AAEA;
script = mtei;
category = Letter;
subCategory = Other;
},
{
glyphname = "iiMatra-mtei";
production = uAAEB;
lastChange = "2020-03-25 01:49:53 +0000";
layers = (
{
background = {
paths = (
{
closed = 1;
nodes = (
"215 794 OFFCURVE",
"167 835 OFFCURVE",
"106 835 CURVE SMOOTH",
"48 835 OFFCURVE",
"0 797 OFFCURVE",
"0 734 CURVE SMOOTH",
"0 662 OFFCURVE",
"60 627 OFFCURVE",
"150 627 CURVE",
"183 627 LINE",
"183 659 LINE",
"149 659 LINE",
"79 659 OFFCURVE",
"33 684 OFFCURVE",
"33 736 CURVE SMOOTH",
"33 776 OFFCURVE",
"60 803 OFFCURVE",
"104 803 CURVE SMOOTH",
"145 803 OFFCURVE",
"181 780 OFFCURVE",
"181 713 CURVE SMOOTH",
"181 0 LINE",
"215 0 LINE",
"215 713 LINE SMOOTH"
);
},
{
closed = 1;
nodes = (
"320 627 LINE",
"320 659 LINE",
"199 659 LINE",
"199 627 LINE"
);
}
);
};
layerId = UUID0;
paths = (
{
closed = 1;
nodes = (
"215 794 OFFCURVE",
"167 835 OFFCURVE",
"106 835 CURVE SMOOTH",
"48 835 OFFCURVE",
"0 797 OFFCURVE",
"0 734 CURVE SMOOTH",
"0 662 OFFCURVE",
"60 627 OFFCURVE",
"150 627 CURVE",
"183 627 LINE",
"183 659 LINE",
"149 659 LINE",
"79 659 OFFCURVE",
"33 684 OFFCURVE",
"33 736 CURVE SMOOTH",
"33 776 OFFCURVE",
"60 803 OFFCURVE",
"104 803 CURVE SMOOTH",
"145 803 OFFCURVE",
"181 780 OFFCURVE",
"181 713 CURVE SMOOTH",
"181 0 LINE",
"215 0 LINE",
"215 713 LINE SMOOTH"
);
},
{
closed = 1;
nodes = (
"263 627 LINE",
"263 659 LINE",
"199 659 LINE",
"199 627 LINE"
);
}
);
width = 318;
},
{
layerId = "C50897A6-2E0F-4413-920D-1E10F1328263";
paths = (
{
closed = 1;
nodes = (
"375 791 OFFCURVE",
"289 845 OFFCURVE",
"184 845 CURVE SMOOTH",
"81 845 OFFCURVE",
"0 793 OFFCURVE",
"0 693 CURVE SMOOTH",
"0 594 OFFCURVE",
"79 537 OFFCURVE",
"200 537 CURVE",
"233 537 LINE",
"233 659 LINE",
"199 659 LINE",
"166 659 OFFCURVE",
"143 675 OFFCURVE",
"143 703 CURVE SMOOTH",
"143 726 OFFCURVE",
"158 738 OFFCURVE",
"178 738 CURVE SMOOTH",
"203 738 OFFCURVE",
"221 724 OFFCURVE",
"221 683 CURVE SMOOTH",
"221 0 LINE",
"375 0 LINE",
"375 683 LINE SMOOTH"
);
},
{
closed = 1;
nodes = (
"423 537 LINE",
"423 659 LINE",
"269 659 LINE",
"269 537 LINE"
);
}
);
width = 448;
},
{
layerId = "B2B7298B-4574-4E4E-9E4E-FF4301209A8A";
paths = (
{
closed = 1;
nodes = (
"263 803 OFFCURVE",
"211 845 OFFCURVE",
"135 845 CURVE SMOOTH",
"63 845 OFFCURVE",
"0 806 OFFCURVE",
"0 719 CURVE SMOOTH",
"0 613 OFFCURVE",
"92 586 OFFCURVE",
"174 586 CURVE",
"205 586 LINE",
"205 659 LINE",
"173 659 LINE",
"123 659 OFFCURVE",
"81 669 OFFCURVE",
"81 720 CURVE SMOOTH",
"81 757 OFFCURVE",
"103 774 OFFCURVE",
"133 774 CURVE SMOOTH",
"162 774 OFFCURVE",
"181 757 OFFCURVE",
"181 713 CURVE SMOOTH",
"181 0 LINE",
"263 0 LINE",
"263 713 LINE SMOOTH"
);
},
{
closed = 1;
nodes = (
"313 586 LINE",
"313 659 LINE",
"230 659 LINE",
"230 586 LINE"
);
}
);
width = 368;
}
);
unicode = AAEB;
script = mtei;
category = Letter;
subCategory = Other;
},
{
glyphname = "uuMatra-mtei";
production = uAAEC;
lastChange = "2020-03-25 01:49:53 +0000";
layers = (
{
anchors = (
{
name = _bottom;
position = "{-63, 0}";
}
);
background = {
paths = (
{
closed = 1;
nodes = (
"-370 -70 OFFCURVE",
"-372 -88 OFFCURVE",
"-372 -103 CURVE SMOOTH",
"-372 -145 OFFCURVE",
"-354 -196 OFFCURVE",
"-290 -196 CURVE SMOOTH",
"-253 -196 OFFCURVE",
"-225 -179 OFFCURVE",
"-212 -132 CURVE",
"-220 -132 LINE",
"-211 -172 OFFCURVE",
"-183 -196 OFFCURVE",
"-141 -196 CURVE SMOOTH",
"-81 -196 OFFCURVE",
"-62 -146 OFFCURVE",
"-62 -102 CURVE SMOOTH",
"-62 -84 OFFCURVE",
"-65 -63 OFFCURVE",
"-66 -60 CURVE",
"-97 -60 LINE",
"-95 -75 OFFCURVE",
"-94 -94 OFFCURVE",
"-94 -104 CURVE SMOOTH",
"-94 -142 OFFCURVE",
"-108 -166 OFFCURVE",
"-143 -166 CURVE SMOOTH",
"-177 -166 OFFCURVE",
"-200 -142 OFFCURVE",
"-200 -104 CURVE SMOOTH",
"-200 -60 LINE",
"-232 -60 LINE",
"-232 -104 LINE SMOOTH",
"-232 -149 OFFCURVE",
"-259 -167 OFFCURVE",
"-290 -167 CURVE SMOOTH",
"-325 -167 OFFCURVE",
"-340 -144 OFFCURVE",
"-340 -98 CURVE SMOOTH",
"-340 -81 OFFCURVE",
"-338 -64 OFFCURVE",
"-337 -60 CURVE",
"-368 -60 LINE"
);
}
);
};
layerId = UUID0;
paths = (
{
closed = 1;
nodes = (
"-370 -70 OFFCURVE",
"-372 -88 OFFCURVE",
"-372 -103 CURVE SMOOTH",
"-372 -145 OFFCURVE",
"-354 -196 OFFCURVE",
"-290 -196 CURVE SMOOTH",
"-253 -196 OFFCURVE",
"-225 -179 OFFCURVE",
"-212 -132 CURVE",
"-220 -132 LINE",
"-211 -172 OFFCURVE",
"-183 -196 OFFCURVE",
"-141 -196 CURVE SMOOTH",
"-81 -196 OFFCURVE",
"-62 -146 OFFCURVE",
"-62 -102 CURVE SMOOTH",
"-62 -84 OFFCURVE",
"-65 -63 OFFCURVE",
"-66 -60 CURVE",
"-97 -60 LINE",
"-95 -75 OFFCURVE",
"-94 -94 OFFCURVE",
"-94 -104 CURVE SMOOTH",
"-94 -142 OFFCURVE",
"-108 -166 OFFCURVE",
"-143 -166 CURVE SMOOTH",
"-177 -166 OFFCURVE",
"-200 -142 OFFCURVE",
"-200 -104 CURVE SMOOTH",
"-200 -60 LINE",
"-232 -60 LINE",
"-232 -104 LINE SMOOTH",
"-232 -149 OFFCURVE",
"-259 -167 OFFCURVE",
"-290 -167 CURVE SMOOTH",
"-325 -167 OFFCURVE",
"-340 -144 OFFCURVE",
"-340 -98 CURVE SMOOTH",
"-340 -81 OFFCURVE",
"-338 -64 OFFCURVE",
"-337 -60 CURVE",
"-368 -60 LINE"
);
}
);
width = 0;
},
{
anchors = (
{
name = _bottom;
position = "{-63, 0}";
}
);
background = {
paths = (
{
closed = 1;
nodes = (
"-383 -200 LINE",
"-384 -197 OFFCURVE",
"-386 -184 OFFCURVE",
"-386 -174 CURVE SMOOTH",
"-386 -153 OFFCURVE",
"-378 -143 OFFCURVE",
"-363 -143 CURVE SMOOTH",
"-348 -143 OFFCURVE",
"-338 -152 OFFCURVE",
"-338 -176 CURVE SMOOTH",
"-338 -200 LINE",
"-226 -200 LINE",
"-226 -176 LINE SMOOTH",
"-226 -156 OFFCURVE",
"-218 -144 OFFCURVE",
"-202 -144 CURVE SMOOTH",
"-187 -144 OFFCURVE",
"-180 -156 OFFCURVE",
"-180 -173 CURVE SMOOTH",
"-180 -179 OFFCURVE",
"-181 -190 OFFCURVE",
"-183 -200 CURVE",
"-67 -200 LINE",
"-66 -198 OFFCURVE",
"-63 -183 OFFCURVE",
"-63 -166 CURVE SMOOTH",
"-63 -109 OFFCURVE",
"-96 -44 OFFCURVE",
"-184 -44 CURVE SMOOTH",
"-243 -44 OFFCURVE",
"-275 -73 OFFCURVE",
"-286 -118 CURVE",
"-278 -118 LINE",
"-294 -65 OFFCURVE",
"-327 -44 OFFCURVE",
"-379 -44 CURVE SMOOTH",
"-472 -44 OFFCURVE",
"-503 -111 OFFCURVE",
"-503 -166 CURVE SMOOTH",
"-503 -180 OFFCURVE",
"-501 -192 OFFCURVE",
"-499 -200 CURVE"
);
}
);
};
layerId = "C50897A6-2E0F-4413-920D-1E10F1328263";
paths = (
{
closed = 1;
nodes = (
"-501 -68 OFFCURVE",
"-503 -80 OFFCURVE",
"-503 -94 CURVE SMOOTH",
"-503 -149 OFFCURVE",
"-472 -216 OFFCURVE",
"-379 -216 CURVE SMOOTH",
"-327 -216 OFFCURVE",
"-294 -195 OFFCURVE",
"-278 -142 CURVE",
"-286 -142 LINE",
"-275 -187 OFFCURVE",
"-243 -216 OFFCURVE",
"-184 -216 CURVE SMOOTH",
"-96 -216 OFFCURVE",
"-63 -151 OFFCURVE",
"-63 -94 CURVE SMOOTH",
"-63 -77 OFFCURVE",
"-66 -62 OFFCURVE",
"-67 -60 CURVE",
"-183 -60 LINE",
"-181 -70 OFFCURVE",
"-180 -81 OFFCURVE",
"-180 -87 CURVE SMOOTH",
"-180 -104 OFFCURVE",
"-187 -116 OFFCURVE",
"-202 -116 CURVE SMOOTH",
"-218 -116 OFFCURVE",
"-226 -104 OFFCURVE",
"-226 -84 CURVE SMOOTH",
"-226 -60 LINE",
"-338 -60 LINE",
"-338 -84 LINE SMOOTH",
"-338 -108 OFFCURVE",
"-348 -117 OFFCURVE",
"-363 -117 CURVE SMOOTH",
"-378 -117 OFFCURVE",
"-386 -107 OFFCURVE",
"-386 -86 CURVE SMOOTH",
"-386 -76 OFFCURVE",
"-384 -63 OFFCURVE",
"-383 -60 CURVE",
"-499 -60 LINE"
);
}
);
width = 0;
},
{
anchors = (
{
name = _bottom;
position = "{-63, 0}";
}
);
background = {
paths = (
{
closed = 1;
nodes = (
"-404 -70 OFFCURVE",
"-406 -88 OFFCURVE",
"-406 -102 CURVE SMOOTH",
"-406 -148 OFFCURVE",
"-384 -201 OFFCURVE",
"-311 -201 CURVE SMOOTH",
"-268 -201 OFFCURVE",
"-237 -183 OFFCURVE",
"-221 -122 CURVE",
"-243 -127 LINE",
"-232 -180 OFFCURVE",
"-203 -201 OFFCURVE",
"-158 -201 CURVE SMOOTH",
"-85 -201 OFFCURVE",
"-62 -146 OFFCURVE",
"-62 -99 CURVE SMOOTH",
"-62 -82 OFFCURVE",
"-65 -63 OFFCURVE",
"-66 -60 CURVE",
"-136 -60 LINE",
"-135 -69 OFFCURVE",
"-133 -87 OFFCURVE",
"-133 -100 CURVE SMOOTH",
"-133 -128 OFFCURVE",
"-143 -144 OFFCURVE",
"-165 -144 CURVE SMOOTH",
"-186 -144 OFFCURVE",
"-201 -130 OFFCURVE",
"-201 -96 CURVE SMOOTH",
"-201 -60 LINE",
"-265 -60 LINE",
"-265 -96 LINE SMOOTH",
"-265 -131 OFFCURVE",
"-278 -144 OFFCURVE",
"-299 -144 CURVE SMOOTH",
"-322 -144 OFFCURVE",
"-335 -130 OFFCURVE",
"-335 -96 CURVE SMOOTH",
"-335 -82 OFFCURVE",
"-333 -64 OFFCURVE",
"-332 -60 CURVE",
"-402 -60 LINE"
);
}
);
};
layerId = "B2B7298B-4574-4E4E-9E4E-FF4301209A8A";
paths = (
{
closed = 1;
nodes = (
"-404 -70 OFFCURVE",
"-406 -88 OFFCURVE",
"-406 -102 CURVE SMOOTH",
"-406 -148 OFFCURVE",
"-384 -201 OFFCURVE",
"-311 -201 CURVE SMOOTH",
"-268 -201 OFFCURVE",
"-237 -183 OFFCURVE",
"-221 -122 CURVE",
"-243 -127 LINE",
"-232 -180 OFFCURVE",
"-203 -201 OFFCURVE",
"-158 -201 CURVE SMOOTH",
"-85 -201 OFFCURVE",
"-62 -146 OFFCURVE",
"-62 -99 CURVE SMOOTH",
"-62 -82 OFFCURVE",
"-65 -63 OFFCURVE",
"-66 -60 CURVE",
"-136 -60 LINE",
"-135 -69 OFFCURVE",
"-133 -87 OFFCURVE",
"-133 -100 CURVE SMOOTH",
"-133 -128 OFFCURVE",
"-143 -144 OFFCURVE",
"-165 -144 CURVE SMOOTH",
"-186 -144 OFFCURVE",
"-201 -130 OFFCURVE",
"-201 -96 CURVE SMOOTH",
"-201 -60 LINE",
"-265 -60 LINE",
"-265 -96 LINE SMOOTH",
"-265 -131 OFFCURVE",
"-278 -144 OFFCURVE",
"-299 -144 CURVE SMOOTH",
"-322 -144 OFFCURVE",
"-335 -130 OFFCURVE",
"-335 -96 CURVE SMOOTH",
"-335 -82 OFFCURVE",
"-333 -64 OFFCURVE",
"-332 -60 CURVE",
"-402 -60 LINE"
);
}
);
width = 0;
}
);
unicode = AAEC;
script = mtei;
category = Mark;
subCategory = Nonspacing;
},
{
glyphname = "aaiMatra-mtei";
production = uAAED;
lastChange = "2020-03-25 01:49:53 +0000";
layers = (
{
anchors = (
{
name = _top;
position = "{-381, 698}";
}
);
background = {
paths = (
{
closed = 1;
nodes = (
"-620 1075 LINE",
"-544 1029 OFFCURVE",
"-463 971 OFFCURVE",
"-412 903 CURVE",
"-405 909 LINE",
"-427 926 OFFCURVE",
"-448 932 OFFCURVE",
"-470 932 CURVE SMOOTH",
"-534 932 OFFCURVE",
"-588 880 OFFCURVE",
"-588 809 CURVE SMOOTH",
"-588 738 OFFCURVE",
"-535 690 OFFCURVE",
"-470 690 CURVE SMOOTH",
"-405 690 OFFCURVE",
"-352 737 OFFCURVE",
"-352 812 CURVE SMOOTH",
"-352 943 OFFCURVE",
"-517 1044 OFFCURVE",
"-601 1101 CURVE"
);
},
{
closed = 1;
nodes = (
"-518 720 OFFCURVE",
"-556 757 OFFCURVE",
"-556 810 CURVE SMOOTH",
"-556 862 OFFCURVE",
"-520 902 OFFCURVE",
"-464 902 CURVE SMOOTH",
"-417 902 OFFCURVE",
"-398 873 OFFCURVE",
"-388 863 CURVE",
"-411 896 LINE",
"-390 865 OFFCURVE",
"-384 838 OFFCURVE",
"-384 814 CURVE SMOOTH",
"-384 751 OFFCURVE",
"-425 720 OFFCURVE",
"-470 720 CURVE SMOOTH"
);
}
);
};
layerId = UUID0;
paths = (
{
closed = 1;
nodes = (
"-422 720 OFFCURVE",
"-452 751 OFFCURVE",
"-452 795 CURVE SMOOTH",
"-452 838 OFFCURVE",
"-424 871 OFFCURVE",
"-374 871 CURVE SMOOTH",
"-330 871 OFFCURVE",
"-316 846 OFFCURVE",
"-310 841 CURVE",
"-332 870 LINE",
"-314 843 OFFCURVE",
"-309 819 OFFCURVE",
"-309 799 CURVE SMOOTH",
"-309 746 OFFCURVE",
"-343 720 OFFCURVE",
"-381 720 CURVE SMOOTH"
);
},
{
closed = 1;
nodes = (
"-390 951 OFFCURVE",
"-353 917 OFFCURVE",
"-331 871 CURVE",
"-325 881 LINE",
"-344 896 OFFCURVE",
"-362 901 OFFCURVE",
"-381 901 CURVE SMOOTH",
"-438 901 OFFCURVE",
"-484 856 OFFCURVE",
"-484 793 CURVE SMOOTH",
"-484 731 OFFCURVE",
"-438 690 OFFCURVE",
"-381 690 CURVE SMOOTH",
"-324 690 OFFCURVE",
"-277 730 OFFCURVE",
"-277 799 CURVE SMOOTH",
"-277 884 OFFCURVE",
"-348 960 OFFCURVE",
"-399 1007 CURVE",
"-424 984 LINE"
);
}
);
width = 0;
},
{
anchors = (
{
name = _top;
position = "{-381, 698}";
}
);
layerId = "C50897A6-2E0F-4413-920D-1E10F1328263";
paths = (
{
closed = 1;
nodes = (
"-403 782 OFFCURVE",
"-419 796 OFFCURVE",
"-419 817 CURVE SMOOTH",
"-419 838 OFFCURVE",
"-403 855 OFFCURVE",
"-377 855 CURVE SMOOTH",
"-368 855 OFFCURVE",
"-354 853 OFFCURVE",
"-334 840 CURVE",
"-368 862 LINE",
"-354 852 OFFCURVE",
"-346 834 OFFCURVE",
"-346 819 CURVE SMOOTH",
"-346 798 OFFCURVE",
"-362 782 OFFCURVE",
"-383 782 CURVE SMOOTH"
);
},
{
closed = 1;
nodes = (
"-433 965 OFFCURVE",
"-403 937 OFFCURVE",
"-372 895 CURVE",
"-320 921 LINE",
"-345 938 OFFCURVE",
"-369 943 OFFCURVE",
"-392 943 CURVE SMOOTH",
"-472 943 OFFCURVE",
"-529 884 OFFCURVE",
"-529 816 CURVE SMOOTH",
"-529 743 OFFCURVE",
"-464 690 OFFCURVE",
"-381 690 CURVE SMOOTH",
"-305 690 OFFCURVE",
"-237 735 OFFCURVE",
"-237 825 CURVE SMOOTH",
"-237 911 OFFCURVE",
"-300 991 OFFCURVE",
"-378 1055 CURVE",
"-463 987 LINE"
);
}
);
width = 0;
},
{
anchors = (
{
name = _top;
position = "{-381, 698}";
}
);
layerId = "B2B7298B-4574-4E4E-9E4E-FF4301209A8A";
paths = (
{
closed = 1;
nodes = (
"-409 753 OFFCURVE",
"-430 771 OFFCURVE",
"-430 800 CURVE SMOOTH",
"-430 828 OFFCURVE",
"-410 849 OFFCURVE",
"-377 849 CURVE SMOOTH",
"-360 849 OFFCURVE",
"-343 844 OFFCURVE",
"-324 826 CURVE",
"-342 865 LINE",
"-337 849 OFFCURVE",
"-332 828 OFFCURVE",
"-332 810 CURVE SMOOTH",
"-332 770 OFFCURVE",
"-357 753 OFFCURVE",
"-383 753 CURVE SMOOTH"
);
},
{
closed = 1;
nodes = (
"-400 938 OFFCURVE",
"-366 908 OFFCURVE",
"-347 873 CURVE",
"-321 872 LINE",
"-344 896 OFFCURVE",
"-370 904 OFFCURVE",
"-394 904 CURVE SMOOTH",
"-450 904 OFFCURVE",
"-501 859 OFFCURVE",
"-500 799 CURVE SMOOTH",
"-499 735 OFFCURVE",
"-447 690 OFFCURVE",
"-381 690 CURVE SMOOTH",
"-319 690 OFFCURVE",
"-263 729 OFFCURVE",
"-263 810 CURVE SMOOTH",
"-263 899 OFFCURVE",
"-329 971 OFFCURVE",
"-393 1018 CURVE",
"-441 965 LINE"
);
}
);
width = 0;
}
);
unicode = AAED;
script = mtei;
category = Mark;
subCategory = Nonspacing;
},
{
glyphname = "auMatra-mtei";
production = uAAEE;
lastChange = "2020-03-25 01:49:53 +0000";
layers = (
{
layerId = UUID0;
paths = (
{
closed = 1;
nodes = (
"215 794 OFFCURVE",
"167 835 OFFCURVE",
"106 835 CURVE SMOOTH",
"48 835 OFFCURVE",
"0 797 OFFCURVE",
"0 734 CURVE SMOOTH",
"0 662 OFFCURVE",
"60 627 OFFCURVE",
"150 627 CURVE",
"183 627 LINE",
"183 659 LINE",
"149 659 LINE",
"79 659 OFFCURVE",
"33 684 OFFCURVE",
"33 736 CURVE SMOOTH",
"33 776 OFFCURVE",
"60 803 OFFCURVE",
"104 803 CURVE SMOOTH",
"145 803 OFFCURVE",
"181 780 OFFCURVE",
"181 713 CURVE SMOOTH",
"181 0 LINE",
"215 0 LINE",
"215 713 LINE SMOOTH"
);
},
{
closed = 1;
nodes = (
"263 497 LINE",
"263 529 LINE",
"199 529 LINE",
"199 497 LINE"
);
}
);
width = 318;
},
{
background = {
paths = (
{
closed = 1;
nodes = (
"375 791 OFFCURVE",
"289 845 OFFCURVE",
"184 845 CURVE SMOOTH",
"81 845 OFFCURVE",
"0 793 OFFCURVE",
"0 693 CURVE SMOOTH",
"0 594 OFFCURVE",
"79 537 OFFCURVE",
"200 537 CURVE",
"233 537 LINE",
"233 659 LINE",
"199 659 LINE",
"166 659 OFFCURVE",
"143 675 OFFCURVE",
"143 703 CURVE SMOOTH",
"143 726 OFFCURVE",
"158 738 OFFCURVE",
"178 738 CURVE SMOOTH",
"203 738 OFFCURVE",
"221 724 OFFCURVE",
"221 683 CURVE SMOOTH",
"221 0 LINE",
"375 0 LINE",
"375 683 LINE SMOOTH"
);
},
{
closed = 1;
nodes = (
"480 407 LINE",
"480 529 LINE",
"269 529 LINE",
"269 407 LINE"
);
}
);
};
layerId = "C50897A6-2E0F-4413-920D-1E10F1328263";
paths = (
{
closed = 1;
nodes = (
"375 791 OFFCURVE",
"289 845 OFFCURVE",
"184 845 CURVE SMOOTH",
"81 845 OFFCURVE",
"0 793 OFFCURVE",
"0 693 CURVE SMOOTH",
"0 594 OFFCURVE",
"79 537 OFFCURVE",
"200 537 CURVE",
"233 537 LINE",
"233 659 LINE",
"199 659 LINE",
"166 659 OFFCURVE",
"143 675 OFFCURVE",
"143 703 CURVE SMOOTH",
"143 726 OFFCURVE",
"158 738 OFFCURVE",
"178 738 CURVE SMOOTH",
"203 738 OFFCURVE",
"221 724 OFFCURVE",
"221 683 CURVE SMOOTH",
"221 0 LINE",
"375 0 LINE",
"375 683 LINE SMOOTH"
);
},
{
closed = 1;
nodes = (
"423 407 LINE",
"423 529 LINE",
"269 529 LINE",
"269 407 LINE"
);
}
);
width = 448;
},
{
background = {
paths = (
{
closed = 1;
nodes = (
"313 456 LINE",
"313 529 LINE",
"230 529 LINE",
"230 456 LINE"
);
}
);
};
layerId = "B2B7298B-4574-4E4E-9E4E-FF4301209A8A";
paths = (
{
closed = 1;
nodes = (
"263 803 OFFCURVE",
"211 845 OFFCURVE",
"135 845 CURVE SMOOTH",
"63 845 OFFCURVE",
"0 806 OFFCURVE",
"0 719 CURVE SMOOTH",
"0 613 OFFCURVE",
"92 586 OFFCURVE",
"174 586 CURVE",
"205 586 LINE",
"205 659 LINE",
"173 659 LINE",
"123 659 OFFCURVE",
"81 669 OFFCURVE",
"81 720 CURVE SMOOTH",
"81 757 OFFCURVE",
"103 774 OFFCURVE",
"133 774 CURVE SMOOTH",
"162 774 OFFCURVE",
"181 757 OFFCURVE",
"181 713 CURVE SMOOTH",
"181 0 LINE",
"263 0 LINE",
"263 713 LINE SMOOTH"
);
},
{
closed = 1;
nodes = (
"313 456 LINE",
"313 529 LINE",
"230 529 LINE",
"230 456 LINE"
);
}
);
width = 368;
}
);
unicode = AAEE;
script = mtei;
category = Letter;
subCategory = Other;
},
{
glyphname = "aauMatra-mtei";
production = uAAEF;
lastChange = "2020-03-25 01:49:53 +0000";
layers = (
{
layerId = UUID0;
paths = (
{
closed = 1;
nodes = (
"103 0 LINE",
"137 0 LINE",
"137 713 LINE SMOOTH",
"137 780 OFFCURVE",
"173 803 OFFCURVE",
"214 803 CURVE SMOOTH",
"258 803 OFFCURVE",
"285 776 OFFCURVE",
"285 736 CURVE SMOOTH",
"285 684 OFFCURVE",
"239 659 OFFCURVE",
"169 659 CURVE",
"135 659 LINE",
"135 627 LINE",
"168 627 LINE",
"258 627 OFFCURVE",
"318 662 OFFCURVE",
"318 734 CURVE SMOOTH",
"318 797 OFFCURVE",
"270 835 OFFCURVE",
"212 835 CURVE SMOOTH",
"151 835 OFFCURVE",
"103 794 OFFCURVE",
"103 713 CURVE SMOOTH"
);
},
{
closed = 1;
nodes = (
"119 529 LINE",
"55 529 LINE",
"55 497 LINE",
"119 497 LINE"
);
}
);
width = 318;
},
{
background = {
paths = (
{
closed = 1;
nodes = (
"73 0 LINE",
"227 0 LINE",
"227 683 LINE SMOOTH",
"227 724 OFFCURVE",
"245 738 OFFCURVE",
"270 738 CURVE SMOOTH",
"290 738 OFFCURVE",
"305 726 OFFCURVE",
"305 703 CURVE SMOOTH",
"305 675 OFFCURVE",
"282 659 OFFCURVE",
"249 659 CURVE",
"215 659 LINE",
"215 537 LINE",
"248 537 LINE",
"369 537 OFFCURVE",
"448 594 OFFCURVE",
"448 693 CURVE SMOOTH",
"448 793 OFFCURVE",
"367 845 OFFCURVE",
"264 845 CURVE SMOOTH",
"159 845 OFFCURVE",
"73 791 OFFCURVE",
"73 683 CURVE SMOOTH"
);
},
{
closed = 1;
nodes = (
"179 529 LINE",
"-32 529 LINE",
"-32 407 LINE",
"179 407 LINE"
);
}
);
};
layerId = "C50897A6-2E0F-4413-920D-1E10F1328263";
paths = (
{
closed = 1;
nodes = (
"73 0 LINE",
"227 0 LINE",
"227 683 LINE SMOOTH",
"227 724 OFFCURVE",
"245 738 OFFCURVE",
"270 738 CURVE SMOOTH",
"290 738 OFFCURVE",
"305 726 OFFCURVE",
"305 703 CURVE SMOOTH",
"305 675 OFFCURVE",
"282 659 OFFCURVE",
"249 659 CURVE",
"215 659 LINE",
"215 537 LINE",
"248 537 LINE",
"369 537 OFFCURVE",
"448 594 OFFCURVE",
"448 693 CURVE SMOOTH",
"448 793 OFFCURVE",
"367 845 OFFCURVE",
"264 845 CURVE SMOOTH",
"159 845 OFFCURVE",
"73 791 OFFCURVE",
"73 683 CURVE SMOOTH"
);
},
{
closed = 1;
nodes = (
"179 529 LINE",
"25 529 LINE",
"25 407 LINE",
"179 407 LINE"
);
}
);
width = 448;
},
{
layerId = "B2B7298B-4574-4E4E-9E4E-FF4301209A8A";
paths = (
{
closed = 1;
nodes = (
"105 0 LINE",
"187 0 LINE",
"187 713 LINE SMOOTH",
"187 757 OFFCURVE",
"206 774 OFFCURVE",
"235 774 CURVE SMOOTH",
"265 774 OFFCURVE",
"287 757 OFFCURVE",
"287 720 CURVE SMOOTH",
"287 669 OFFCURVE",
"245 659 OFFCURVE",
"195 659 CURVE",
"163 659 LINE",
"163 586 LINE",
"194 586 LINE",
"276 586 OFFCURVE",
"368 613 OFFCURVE",
"368 719 CURVE SMOOTH",
"368 806 OFFCURVE",
"305 845 OFFCURVE",
"233 845 CURVE SMOOTH",
"157 845 OFFCURVE",
"105 803 OFFCURVE",
"105 713 CURVE SMOOTH"
);
},
{
closed = 1;
nodes = (
"138 529 LINE",
"55 529 LINE",
"55 456 LINE",
"138 456 LINE"
);
}
);
width = 368;
}
);
unicode = AAEF;
script = mtei;
category = Letter;
subCategory = Other;
},
{
glyphname = "cheikhan-mtei";
production = uAAF0;
lastChange = "2020-03-25 01:49:53 +0000";
layers = (
{
background = {
paths = (
{
closed = 1;
nodes = (
"252 -30 LINE",
"252 688 LINE",
"170 688 LINE",
"170 -30 LINE"
);
}
);
};
layerId = UUID0;
paths = (
{
closed = 1;
nodes = (
"214 -30 LINE",
"214 688 LINE",
"180 688 LINE",
"180 -30 LINE"
);
}
);
width = 310;
},
{
background = {
paths = (
{
closed = 1;
nodes = (
"264 -30 LINE",
"264 688 LINE",
"110 688 LINE",
"110 -30 LINE"
);
}
);
};
layerId = "C50897A6-2E0F-4413-920D-1E10F1328263";
paths = (
{
closed = 1;
nodes = (
"264 -30 LINE",
"264 688 LINE",
"110 688 LINE",
"110 -30 LINE"
);
}
);
width = 316;
},
{
layerId = "B2B7298B-4574-4E4E-9E4E-FF4301209A8A";
paths = (
{
closed = 1;
nodes = (
"242 -30 LINE",
"242 688 LINE",
"160 688 LINE",
"160 -30 LINE"
);
}
);
width = 328;
}
);
unicode = AAF0;
script = mtei;
category = Punctuation;
subCategory = Other;
},
{
glyphname = "ahangKhudam-mtei";
production = uAAF1;
lastChange = "2020-03-25 01:49:53 +0000";
layers = (
{
background = {
paths = (
{
closed = 1;
nodes = (
"411 312 OFFCURVE",
"506 344 OFFCURVE",
"576 432 CURVE",
"524 480 LINE",
"466 407 OFFCURVE",
"390 381 OFFCURVE",
"290 381 CURVE SMOOTH",
"192 381 OFFCURVE",
"116 408 OFFCURVE",
"59 480 CURVE",
"6 432 LINE",
"77 342 OFFCURVE",
"166 312 OFFCURVE",
"290 312 CURVE SMOOTH"
);
},
{
closed = 1;
nodes = (
"116 156 OFFCURVE",
"192 183 OFFCURVE",
"290 183 CURVE SMOOTH",
"390 183 OFFCURVE",
"466 157 OFFCURVE",
"524 83 CURVE",
"576 132 LINE",
"506 219 OFFCURVE",
"411 251 OFFCURVE",
"290 251 CURVE SMOOTH",
"166 251 OFFCURVE",
"77 221 OFFCURVE",
"6 132 CURVE",
"59 83 LINE"
);
}
);
};
layerId = UUID0;
paths = (
{
closed = 1;
nodes = (
"406 332 OFFCURVE",
"481 360 OFFCURVE",
"545 444 CURVE",
"519 465 LINE",
"461 389 OFFCURVE",
"394 364 OFFCURVE",
"290 364 CURVE SMOOTH",
"186 364 OFFCURVE",
"119 389 OFFCURVE",
"61 465 CURVE",
"35 444 LINE",
"99 360 OFFCURVE",
"174 332 OFFCURVE",
"290 332 CURVE SMOOTH"
);
},
{
closed = 1;
nodes = (
"174 231 OFFCURVE",
"99 203 OFFCURVE",
"35 119 CURVE",
"61 98 LINE",
"119 174 OFFCURVE",
"186 199 OFFCURVE",
"290 199 CURVE SMOOTH",
"394 199 OFFCURVE",
"461 174 OFFCURVE",
"519 98 CURVE",
"545 119 LINE",
"481 203 OFFCURVE",
"406 231 OFFCURVE",
"290 231 CURVE SMOOTH"
);
}
);
width = 580;
},
{
background = {
paths = (
{
closed = 1;
nodes = (
"494 312 OFFCURVE",
"598 352 OFFCURVE",
"680 482 CURVE",
"571 565 LINE",
"507 475 OFFCURVE",
"454 444 OFFCURVE",
"350 444 CURVE SMOOTH",
"246 444 OFFCURVE",
"193 475 OFFCURVE",
"129 565 CURVE",
"20 482 LINE",
"103 352 OFFCURVE",
"206 312 OFFCURVE",
"350 312 CURVE SMOOTH"
);
}
);
};
layerId = "C50897A6-2E0F-4413-920D-1E10F1328263";
paths = (
{
closed = 1;
nodes = (
"494 312 OFFCURVE",
"598 352 OFFCURVE",
"680 482 CURVE",
"571 565 LINE",
"507 475 OFFCURVE",
"454 444 OFFCURVE",
"350 444 CURVE SMOOTH",
"246 444 OFFCURVE",
"193 475 OFFCURVE",
"129 565 CURVE",
"20 482 LINE",
"103 352 OFFCURVE",
"206 312 OFFCURVE",
"350 312 CURVE SMOOTH"
);
},
{
closed = 1;
nodes = (
"206 252 OFFCURVE",
"103 212 OFFCURVE",
"20 82 CURVE",
"129 -1 LINE",
"193 89 OFFCURVE",
"246 120 OFFCURVE",
"350 120 CURVE SMOOTH",
"454 120 OFFCURVE",
"507 89 OFFCURVE",
"571 -1 CURVE",
"680 82 LINE",
"598 212 OFFCURVE",
"494 252 OFFCURVE",
"350 252 CURVE SMOOTH"
);
}
);
width = 700;
},
{
layerId = "B2B7298B-4574-4E4E-9E4E-FF4301209A8A";
paths = (
{
closed = 1;
nodes = (
"441 312 OFFCURVE",
"535 344 OFFCURVE",
"605 432 CURVE",
"553 480 LINE",
"495 408 OFFCURVE",
"418 382 OFFCURVE",
"320 382 CURVE SMOOTH",
"215 382 OFFCURVE",
"143 412 OFFCURVE",
"88 480 CURVE",
"35 432 LINE",
"106 342 OFFCURVE",
"196 312 OFFCURVE",
"317 312 CURVE SMOOTH"
);
},
{
closed = 1;
nodes = (
"196 251 OFFCURVE",
"106 221 OFFCURVE",
"35 132 CURVE",
"88 83 LINE",
"143 152 OFFCURVE",
"215 182 OFFCURVE",
"320 182 CURVE SMOOTH",
"418 182 OFFCURVE",
"495 156 OFFCURVE",
"553 83 CURVE",
"605 132 LINE",
"535 219 OFFCURVE",
"441 251 OFFCURVE",
"317 251 CURVE SMOOTH"
);
}
);
width = 640;
}
);
unicode = AAF1;
script = mtei;
category = Punctuation;
subCategory = Other;
},
{
glyphname = "anji-mtei";
production = uAAF2;
lastChange = "2020-03-25 01:49:53 +0000";
layers = (
{
layerId = UUID0;
paths = (
{
closed = 1;
nodes = (
"274 -3 OFFCURVE",
"336 31 OFFCURVE",
"376 110 CURVE",
"350 128 LINE",
"307 55 OFFCURVE",
"261 29 OFFCURVE",
"206 29 CURVE SMOOTH",
"135 29 OFFCURVE",
"85 72 OFFCURVE",
"85 141 CURVE SMOOTH",
"85 208 OFFCURVE",
"134 252 OFFCURVE",
"208 307 CURVE SMOOTH",
"289 367 OFFCURVE",
"360 407 OFFCURVE",
"360 488 CURVE SMOOTH",
"360 562 OFFCURVE",
"300 612 OFFCURVE",
"217 612 CURVE SMOOTH",
"155 612 OFFCURVE",
"97 585 OFFCURVE",
"62 517 CURVE",
"95 501 LINE",
"125 561 OFFCURVE",
"167 580 OFFCURVE",
"217 580 CURVE SMOOTH",
"283 580 OFFCURVE",
"326 547 OFFCURVE",
"326 487 CURVE SMOOTH",
"326 432 OFFCURVE",
"291 411 OFFCURVE",
"207 347 CURVE SMOOTH",
"107 272 OFFCURVE",
"51 226 OFFCURVE",
"51 142 CURVE SMOOTH",
"51 44 OFFCURVE",
"128 -3 OFFCURVE",
"207 -3 CURVE SMOOTH"
);
},
{
closed = 1;
nodes = (
"163 669 OFFCURVE",
"102 689 OFFCURVE",
"77 754 CURVE",
"106 767 LINE",
"127 720 OFFCURVE",
"166 701 OFFCURVE",
"214 701 CURVE SMOOTH",
"262 701 OFFCURVE",
"301 720 OFFCURVE",
"322 767 CURVE",
"351 754 LINE",
"326 689 OFFCURVE",
"266 669 OFFCURVE",
"214 669 CURVE SMOOTH"
);
},
{
closed = 1;
nodes = (
"231 768 OFFCURVE",
"246 782 OFFCURVE",
"246 800 CURVE SMOOTH",
"246 818 OFFCURVE",
"231 833 OFFCURVE",
"213 833 CURVE SMOOTH",
"195 833 OFFCURVE",
"181 818 OFFCURVE",
"181 800 CURVE SMOOTH",
"181 782 OFFCURVE",
"195 768 OFFCURVE",
"213 768 CURVE SMOOTH"
);
}
);
width = 426;
},
{
layerId = "C50897A6-2E0F-4413-920D-1E10F1328263";
paths = (
{
closed = 1;
nodes = (
"341 -13 OFFCURVE",
"427 26 OFFCURVE",
"467 130 CURVE",
"338 192 LINE",
"318 130 OFFCURVE",
"282 105 OFFCURVE",
"239 105 CURVE SMOOTH",
"205 105 OFFCURVE",
"176 121 OFFCURVE",
"176 154 CURVE SMOOTH",
"176 198 OFFCURVE",
"226 228 OFFCURVE",
"296 273 CURVE SMOOTH",
"382 328 OFFCURVE",
"448 375 OFFCURVE",
"448 466 CURVE SMOOTH",
"448 562 OFFCURVE",
"376 632 OFFCURVE",
"243 632 CURVE SMOOTH",
"144 632 OFFCURVE",
"74 593 OFFCURVE",
"27 502 CURVE",
"159 441 LINE",
"180 495 OFFCURVE",
"212 514 OFFCURVE",
"246 514 CURVE SMOOTH",
"275 514 OFFCURVE",
"300 500 OFFCURVE",
"300 472 CURVE SMOOTH",
"300 436 OFFCURVE",
"257 414 OFFCURVE",
"182 364 CURVE SMOOTH",
"76 293 OFFCURVE",
"26 244 OFFCURVE",
"26 160 CURVE SMOOTH",
"26 43 OFFCURVE",
"123 -13 OFFCURVE",
"241 -13 CURVE SMOOTH"
);
},
{
closed = 1;
nodes = (
"151 659 OFFCURVE",
"78 691 OFFCURVE",
"30 776 CURVE",
"124 839 LINE",
"155 785 OFFCURVE",
"193 763 OFFCURVE",
"247 763 CURVE SMOOTH",
"301 763 OFFCURVE",
"338 785 OFFCURVE",
"370 839 CURVE",
"464 776 LINE",
"416 691 OFFCURVE",
"343 659 OFFCURVE",
"247 659 CURVE SMOOTH"
);
},
{
closed = 1;
nodes = (
"281 798 OFFCURVE",
"309 825 OFFCURVE",
"309 860 CURVE SMOOTH",
"309 895 OFFCURVE",
"281 923 OFFCURVE",
"246 923 CURVE SMOOTH",
"211 923 OFFCURVE",
"184 895 OFFCURVE",
"184 860 CURVE SMOOTH",
"184 825 OFFCURVE",
"211 798 OFFCURVE",
"246 798 CURVE SMOOTH"
);
}
);
width = 492;
},
{
layerId = "B2B7298B-4574-4E4E-9E4E-FF4301209A8A";
paths = (
{
closed = 1;
nodes = (
"302 -3 OFFCURVE",
"371 31 OFFCURVE",
"416 110 CURVE",
"355 152 LINE",
"322 94 OFFCURVE",
"280 67 OFFCURVE",
"226 67 CURVE SMOOTH",
"172 67 OFFCURVE",
"128 94 OFFCURVE",
"128 145 CURVE SMOOTH",
"128 198 OFFCURVE",
"175 237 OFFCURVE",
"248 290 CURVE SMOOTH",
"343 358 OFFCURVE",
"400 392 OFFCURVE",
"400 475 CURVE SMOOTH",
"400 565 OFFCURVE",
"332 622 OFFCURVE",
"236 622 CURVE SMOOTH",
"167 622 OFFCURVE",
"101 592 OFFCURVE",
"62 517 CURVE",
"130 483 LINE",
"155 536 OFFCURVE",
"194 554 OFFCURVE",
"237 554 CURVE SMOOTH",
"290 554 OFFCURVE",
"325 525 OFFCURVE",
"325 475 CURVE SMOOTH",
"325 431 OFFCURVE",
"297 413 OFFCURVE",
"207 347 CURVE SMOOTH",
"109 275 OFFCURVE",
"51 232 OFFCURVE",
"51 149 CURVE SMOOTH",
"51 49 OFFCURVE",
"136 -3 OFFCURVE",
"228 -3 CURVE SMOOTH"
);
},
{
closed = 1;
nodes = (
"175 659 OFFCURVE",
"106 679 OFFCURVE",
"77 756 CURVE",
"136 778 LINE",
"157 736 OFFCURVE",
"190 719 OFFCURVE",
"234 719 CURVE SMOOTH",
"279 719 OFFCURVE",
"313 736 OFFCURVE",
"332 776 CURVE",
"391 756 LINE",
"364 680 OFFCURVE",
"293 659 OFFCURVE",
"234 659 CURVE SMOOTH"
);
},
{
closed = 1;
nodes = (
"256 768 OFFCURVE",
"274 786 OFFCURVE",
"274 809 CURVE SMOOTH",
"274 832 OFFCURVE",
"256 850 OFFCURVE",
"233 850 CURVE SMOOTH",
"210 850 OFFCURVE",
"192 832 OFFCURVE",
"192 809 CURVE SMOOTH",
"192 786 OFFCURVE",
"210 768 OFFCURVE",
"233 768 CURVE SMOOTH"
);
}
);
width = 466;
}
);
unicode = AAF2;
script = mtei;
category = Letter;
subCategory = Other;
},
{
glyphname = "syllableRepetitionMark-mtei";
production = uAAF3;
lastChange = "2020-03-25 01:49:53 +0000";
layers = (
{
background = {
paths = (
{
closed = 1;
nodes = (
"261 260 LINE",
"172 166 OFFCURVE",
"100 95 OFFCURVE",
"20 16 CURVE",
"46 -9 LINE",
"132 79 OFFCURVE",
"212 163 OFFCURVE",
"280 229 CURVE"
);
},
{
closed = 1;
nodes = (
"174 360 OFFCURVE",
"132 415 OFFCURVE",
"132 490 CURVE SMOOTH",
"132 579 OFFCURVE",
"191 631 OFFCURVE",
"273 631 CURVE SMOOTH",
"355 631 OFFCURVE",
"412 579 OFFCURVE",
"412 490 CURVE SMOOTH",
"412 408 OFFCURVE",
"363 366 OFFCURVE",
"261 257 CURVE",
"282 231 LINE",
"369 321 OFFCURVE",
"446 389 OFFCURVE",
"446 494 CURVE SMOOTH",
"446 605 OFFCURVE",
"360 663 OFFCURVE",
"272 663 CURVE SMOOTH",
"186 663 OFFCURVE",
"98 608 OFFCURVE",
"98 490 CURVE SMOOTH",
"98 403 OFFCURVE",
"145 342 OFFCURVE",
"259 234 CURVE SMOOTH",
"339 158 OFFCURVE",
"389 111 OFFCURVE",
"519 -9 CURVE",
"542 16 LINE",
"464 85 OFFCURVE",
"396 150 OFFCURVE",
"296 244 CURVE"
);
}
);
};
layerId = UUID0;
paths = (
{
closed = 1;
nodes = (
"261 260 LINE",
"172 166 OFFCURVE",
"100 95 OFFCURVE",
"20 16 CURVE",
"46 -9 LINE",
"132 79 OFFCURVE",
"212 163 OFFCURVE",
"280 229 CURVE"
);
},
{
closed = 1;
nodes = (
"174 360 OFFCURVE",
"132 415 OFFCURVE",
"132 490 CURVE SMOOTH",
"132 579 OFFCURVE",
"191 631 OFFCURVE",
"273 631 CURVE SMOOTH",
"355 631 OFFCURVE",
"412 579 OFFCURVE",
"412 490 CURVE SMOOTH",
"412 408 OFFCURVE",
"363 366 OFFCURVE",
"261 257 CURVE",
"282 231 LINE",
"369 321 OFFCURVE",
"446 389 OFFCURVE",
"446 494 CURVE SMOOTH",
"446 605 OFFCURVE",
"360 663 OFFCURVE",
"272 663 CURVE SMOOTH",
"186 663 OFFCURVE",
"98 608 OFFCURVE",
"98 490 CURVE SMOOTH",
"98 403 OFFCURVE",
"145 342 OFFCURVE",
"259 234 CURVE SMOOTH",
"339 158 OFFCURVE",
"389 111 OFFCURVE",
"519 -9 CURVE",
"542 16 LINE",
"464 85 OFFCURVE",
"396 150 OFFCURVE",
"291 250 CURVE SMOOTH"
);
}
);
width = 562;
},
{
background = {
paths = (
{
closed = 1;
nodes = (
"259 283 LINE",
"159 202 OFFCURVE",
"90 149 OFFCURVE",
"10 89 CURVE",
"117 -19 LINE",
"214 60 OFFCURVE",
"302 135 OFFCURVE",
"378 193 CURVE"
);
},
{
closed = 1;
nodes = (
"378 305 LINE",
"292 369 OFFCURVE",
"253 409 OFFCURVE",
"253 464 CURVE SMOOTH",
"253 519 OFFCURVE",
"292 548 OFFCURVE",
"333 548 CURVE SMOOTH",
"374 548 OFFCURVE",
"413 519 OFFCURVE",
"413 464 CURVE SMOOTH",
"413 411 OFFCURVE",
"377 369 OFFCURVE",
"278 305 CURVE",
"405 219 LINE",
"493 298 OFFCURVE",
"567 365 OFFCURVE",
"567 473 CURVE SMOOTH",
"567 617 OFFCURVE",
"437 673 OFFCURVE",
"333 673 CURVE SMOOTH",
"230 673 OFFCURVE",
"99 618 OFFCURVE",
"99 473 CURVE SMOOTH",
"99 370 OFFCURVE",
"166 306 OFFCURVE",
"260 228 CURVE",
"289 203 LINE SMOOTH",
"360 142 OFFCURVE",
"445 74 OFFCURVE",
"559 -19 CURVE",
"656 89 LINE",
"576 148 OFFCURVE",
"502 203 OFFCURVE",
"400 284 CURVE"
);
}
);
};
layerId = "C50897A6-2E0F-4413-920D-1E10F1328263";
paths = (
{
closed = 1;
nodes = (
"259 283 LINE",
"159 202 OFFCURVE",
"90 149 OFFCURVE",
"10 89 CURVE",
"117 -19 LINE",
"214 60 OFFCURVE",
"302 135 OFFCURVE",
"378 193 CURVE"
);
},
{
closed = 1;
nodes = (
"282 377 OFFCURVE",
"253 413 OFFCURVE",
"253 464 CURVE SMOOTH",
"253 519 OFFCURVE",
"292 548 OFFCURVE",
"333 548 CURVE SMOOTH",
"374 548 OFFCURVE",
"413 519 OFFCURVE",
"413 464 CURVE SMOOTH",
"413 411 OFFCURVE",
"377 369 OFFCURVE",
"278 305 CURVE",
"405 219 LINE",
"493 298 OFFCURVE",
"567 365 OFFCURVE",
"567 473 CURVE SMOOTH",
"567 617 OFFCURVE",
"437 673 OFFCURVE",
"333 673 CURVE SMOOTH",
"230 673 OFFCURVE",
"99 618 OFFCURVE",
"99 473 CURVE SMOOTH",
"99 381 OFFCURVE",
"139 329 OFFCURVE",
"289 203 CURVE SMOOTH",
"360 142 OFFCURVE",
"445 74 OFFCURVE",
"559 -19 CURVE",
"656 89 LINE",
"576 148 OFFCURVE",
"502 203 OFFCURVE",
"400 284 CURVE SMOOTH"
);
}
);
width = 666;
},
{
background = {
paths = (
{
closed = 1;
nodes = (
"269 273 LINE",
"169 180 OFFCURVE",
"100 118 OFFCURVE",
"20 49 CURVE",
"72 -9 LINE",
"163 77 OFFCURVE",
"246 159 OFFCURVE",
"318 223 CURVE"
);
},
{
closed = 1;
nodes = (
"236 370 OFFCURVE",
"196 411 OFFCURVE",
"196 476 CURVE SMOOTH",
"196 555 OFFCURVE",
"251 588 OFFCURVE",
"308 588 CURVE SMOOTH",
"365 588 OFFCURVE",
"420 555 OFFCURVE",
"420 476 CURVE SMOOTH",
"420 414 OFFCURVE",
"386 368 OFFCURVE",
"288 295 CURVE",
"345 249 LINE",
"437 323 OFFCURVE",
"507 389 OFFCURVE",
"507 479 CURVE SMOOTH",
"507 620 OFFCURVE",
"396 659 OFFCURVE",
"306 659 CURVE SMOOTH",
"220 659 OFFCURVE",
"109 620 OFFCURVE",
"109 479 CURVE SMOOTH",
"109 398 OFFCURVE",
"155 340 OFFCURVE",
"273 241 CURVE SMOOTH",
"370 160 OFFCURVE",
"436 93 OFFCURVE",
"544 -9 CURVE",
"596 49 LINE",
"516 117 OFFCURVE",
"443 182 OFFCURVE",
"333 282 CURVE SMOOTH"
);
}
);
};
layerId = "B2B7298B-4574-4E4E-9E4E-FF4301209A8A";
paths = (
{
closed = 1;
nodes = (
"269 273 LINE",
"169 180 OFFCURVE",
"100 118 OFFCURVE",
"20 49 CURVE",
"76 -9 LINE",
"167 77 OFFCURVE",
"250 159 OFFCURVE",
"322 223 CURVE"
);
},
{
closed = 1;
nodes = (
"230 376 OFFCURVE",
"191 414 OFFCURVE",
"191 479 CURVE SMOOTH",
"191 558 OFFCURVE",
"249 594 OFFCURVE",
"308 594 CURVE SMOOTH",
"366 594 OFFCURVE",
"425 558 OFFCURVE",
"425 480 CURVE SMOOTH",
"425 416 OFFCURVE",
"386 371 OFFCURVE",
"288 291 CURVE",
"345 246 LINE",
"442 328 OFFCURVE",
"507 388 OFFCURVE",
"507 482 CURVE SMOOTH",
"507 605 OFFCURVE",
"397 665 OFFCURVE",
"307 665 CURVE SMOOTH",
"219 665 OFFCURVE",
"109 608 OFFCURVE",
"109 482 CURVE SMOOTH",
"109 394 OFFCURVE",
"162 343 OFFCURVE",
"273 241 CURVE SMOOTH",
"362 160 OFFCURVE",
"378 147 OFFCURVE",
"541 -9 CURVE",
"596 49 LINE",
"522 112 OFFCURVE",
"434 190 OFFCURVE",
"333 282 CURVE SMOOTH"
);
}
);
width = 616;
}
);
unicode = AAF3;
script = mtei;
category = Letter;
subCategory = Modifier;
},
{
glyphname = "wordRepetitionMark-mtei";
production = uAAF4;
lastChange = "2020-03-25 01:49:53 +0000";
layers = (
{
layerId = UUID0;
paths = (
{
closed = 1;
nodes = (
"324 14 LINE",
"239 109 OFFCURVE",
"170 188 OFFCURVE",
"98 270 CURVE",
"99 258 LINE",
"197 348 OFFCURVE",
"253 406 OFFCURVE",
"253 501 CURVE SMOOTH",
"253 610 OFFCURVE",
"179 663 OFFCURVE",
"89 663 CURVE SMOOTH",
"77 663 OFFCURVE",
"65 662 OFFCURVE",
"50 659 CURVE",
"57 626 LINE",
"68 627 OFFCURVE",
"78 628 OFFCURVE",
"91 628 CURVE SMOOTH",
"171 628 OFFCURVE",
"219 588 OFFCURVE",
"219 500 CURVE SMOOTH",
"219 436 OFFCURVE",
"193 383 OFFCURVE",
"57 267 CURVE",
"117 197 OFFCURVE",
"202 101 OFFCURVE",
"300 -9 CURVE"
);
}
);
width = 344;
},
{
layerId = "C50897A6-2E0F-4413-920D-1E10F1328263";
paths = (
{
closed = 1;
nodes = (
"393 70 LINE",
"313 149 OFFCURVE",
"248 220 OFFCURVE",
"179 290 CURVE",
"179 209 LINE",
"276 285 OFFCURVE",
"323 361 OFFCURVE",
"323 458 CURVE SMOOTH",
"323 600 OFFCURVE",
"215 671 OFFCURVE",
"93 671 CURVE SMOOTH",
"72 671 OFFCURVE",
"48 669 OFFCURVE",
"25 667 CURVE",
"34 529 LINE",
"57 532 OFFCURVE",
"66 532 OFFCURVE",
"79 532 CURVE SMOOTH",
"131 532 OFFCURVE",
"168 507 OFFCURVE",
"168 448 CURVE SMOOTH",
"168 399 OFFCURVE",
"142 354 OFFCURVE",
"27 259 CURVE",
"90 189 OFFCURVE",
"178 88 OFFCURVE",
"280 -19 CURVE"
);
}
);
width = 403;
},
{
layerId = "B2B7298B-4574-4E4E-9E4E-FF4301209A8A";
paths = (
{
closed = 1;
nodes = (
"348 40 LINE",
"268 126 OFFCURVE",
"203 203 OFFCURVE",
"134 280 CURVE",
"132 237 LINE",
"235 330 OFFCURVE",
"278 392 OFFCURVE",
"278 481 CURVE SMOOTH",
"278 606 OFFCURVE",
"193 665 OFFCURVE",
"91 665 CURVE SMOOTH",
"78 665 OFFCURVE",
"68 664 OFFCURVE",
"50 661 CURVE",
"59 586 LINE",
"65 587 OFFCURVE",
"71 588 OFFCURVE",
"82 588 CURVE SMOOTH",
"147 588 OFFCURVE",
"196 551 OFFCURVE",
"196 473 CURVE SMOOTH",
"196 420 OFFCURVE",
"173 371 OFFCURVE",
"52 269 CURVE",
"111 199 OFFCURVE",
"194 98 OFFCURVE",
"290 -9 CURVE"
);
}
);
width = 368;
}
);
unicode = AAF4;
script = mtei;
category = Letter;
subCategory = Modifier;
},
{
glyphname = "visargaMatra-mtei";
production = uAAF5;
lastChange = "2020-03-25 01:49:53 +0000";
layers = (
{
layerId = UUID0;
paths = (
{
closed = 1;
nodes = (
"152 0 LINE",
"152 438 LINE",
"118 438 LINE",
"118 0 LINE"
);
},
{
closed = 1;
nodes = (
"199 417 OFFCURVE",
"252 465 OFFCURVE",
"252 536 CURVE SMOOTH",
"252 607 OFFCURVE",
"198 659 OFFCURVE",
"134 659 CURVE SMOOTH",
"70 659 OFFCURVE",
"16 607 OFFCURVE",
"16 536 CURVE SMOOTH",
"16 465 OFFCURVE",
"69 417 OFFCURVE",
"134 417 CURVE SMOOTH"
);
},
{
closed = 1;
nodes = (
"86 447 OFFCURVE",
"48 484 OFFCURVE",
"48 537 CURVE SMOOTH",
"48 589 OFFCURVE",
"85 629 OFFCURVE",
"134 629 CURVE SMOOTH",
"184 629 OFFCURVE",
"220 589 OFFCURVE",
"220 537 CURVE SMOOTH",
"220 484 OFFCURVE",
"183 447 OFFCURVE",
"134 447 CURVE SMOOTH"
);
}
);
width = 269;
},
{
background = {
paths = (
{
closed = 1;
nodes = (
"288 113 OFFCURVE",
"350 163 OFFCURVE",
"350 235 CURVE SMOOTH",
"350 309 OFFCURVE",
"288 362 OFFCURVE",
"212 362 CURVE SMOOTH",
"141 362 OFFCURVE",
"80 309 OFFCURVE",
"80 235 CURVE SMOOTH",
"80 163 OFFCURVE",
"141 113 OFFCURVE",
"212 113 CURVE SMOOTH"
);
},
{
closed = 1;
nodes = (
"253 0 LINE",
"253 158 LINE",
"171 158 LINE",
"171 0 LINE"
);
},
{
closed = 1;
nodes = (
"179 177 OFFCURVE",
"153 202 OFFCURVE",
"153 238 CURVE SMOOTH",
"153 272 OFFCURVE",
"179 299 OFFCURVE",
"212 299 CURVE SMOOTH",
"248 299 OFFCURVE",
"274 272 OFFCURVE",
"274 238 CURVE SMOOTH",
"274 202 OFFCURVE",
"248 177 OFFCURVE",
"212 177 CURVE SMOOTH"
);
}
);
};
layerId = "C50897A6-2E0F-4413-920D-1E10F1328263";
paths = (
{
closed = 1;
nodes = (
"260 0 LINE",
"260 456 LINE",
"108 456 LINE",
"108 0 LINE"
);
},
{
closed = 1;
nodes = (
"275 382 OFFCURVE",
"351 440 OFFCURVE",
"351 526 CURVE SMOOTH",
"351 612 OFFCURVE",
"274 674 OFFCURVE",
"183 674 CURVE SMOOTH",
"92 674 OFFCURVE",
"15 612 OFFCURVE",
"15 526 CURVE SMOOTH",
"15 440 OFFCURVE",
"91 382 OFFCURVE",
"183 382 CURVE SMOOTH"
);
},
{
closed = 1;
nodes = (
"160 487 OFFCURVE",
"142 504 OFFCURVE",
"142 527 CURVE SMOOTH",
"142 550 OFFCURVE",
"160 569 OFFCURVE",
"183 569 CURVE SMOOTH",
"207 569 OFFCURVE",
"224 550 OFFCURVE",
"224 527 CURVE SMOOTH",
"224 504 OFFCURVE",
"206 487 OFFCURVE",
"183 487 CURVE SMOOTH"
);
}
);
width = 367;
},
{
layerId = "B2B7298B-4574-4E4E-9E4E-FF4301209A8A";
paths = (
{
closed = 1;
nodes = (
"193 0 LINE",
"193 458 LINE",
"111 458 LINE",
"111 0 LINE"
);
},
{
closed = 1;
nodes = (
"224 413 OFFCURVE",
"286 463 OFFCURVE",
"286 536 CURVE SMOOTH",
"286 609 OFFCURVE",
"223 662 OFFCURVE",
"150 662 CURVE SMOOTH",
"77 662 OFFCURVE",
"16 609 OFFCURVE",
"16 536 CURVE SMOOTH",
"16 463 OFFCURVE",
"76 413 OFFCURVE",
"150 413 CURVE SMOOTH"
);
},
{
closed = 1;
nodes = (
"117 477 OFFCURVE",
"91 502 OFFCURVE",
"91 537 CURVE SMOOTH",
"91 572 OFFCURVE",
"116 599 OFFCURVE",
"151 599 CURVE SMOOTH",
"186 599 OFFCURVE",
"212 572 OFFCURVE",
"212 537 CURVE SMOOTH",
"212 502 OFFCURVE",
"185 477 OFFCURVE",
"151 477 CURVE SMOOTH"
);
}
);
width = 303;
}
);
unicode = AAF5;
script = mtei;
category = Letter;
subCategory = Other;
},
{
glyphname = "virama-mtei";
production = uAAF6;
lastChange = "2020-03-25 01:49:53 +0000";
layers = (
{
anchors = (
{
name = _bottom;
position = "{-498, -48}";
}
);
layerId = UUID0;
paths = (
{
closed = 1;
nodes = (
"-500 -318 LINE",
"-500 -90 LINE",
"-530 -90 LINE",
"-530 -318 LINE"
);
},
{
closed = 1;
nodes = (
"-630 -218 LINE",
"-402 -218 LINE",
"-402 -190 LINE",
"-630 -190 LINE"
);
}
);
width = 0;
},
{
anchors = (
{
name = _bottom;
position = "{-498, -8}";
}
);
background = {
paths = (
{
closed = 1;
nodes = (
"-463 -318 LINE",
"-463 -90 LINE",
"-530 -90 LINE",
"-530 -318 LINE"
);
},
{
closed = 1;
nodes = (
"-611 -235 LINE",
"-383 -235 LINE",
"-383 -172 LINE",
"-611 -172 LINE"
);
}
);
};
layerId = "C50897A6-2E0F-4413-920D-1E10F1328263";
paths = (
{
closed = 1;
nodes = (
"-437 -321 LINE",
"-437 -83 LINE",
"-554 -83 LINE",
"-554 -321 LINE"
);
},
{
closed = 1;
nodes = (
"-634 -254 LINE",
"-356 -254 LINE",
"-356 -151 LINE",
"-634 -151 LINE"
);
}
);
width = 0;
},
{
anchors = (
{
name = _bottom;
position = "{-498, -48}";
}
);
layerId = "B2B7298B-4574-4E4E-9E4E-FF4301209A8A";
paths = (
{
closed = 1;
nodes = (
"-463 -318 LINE",
"-463 -90 LINE",
"-530 -90 LINE",
"-530 -318 LINE"
);
},
{
closed = 1;
nodes = (
"-611 -235 LINE",
"-383 -235 LINE",
"-383 -172 LINE",
"-611 -172 LINE"
);
}
);
width = 0;
}
);
unicode = AAF6;
script = mtei;
category = Mark;
subCategory = Nonspacing;
},
{
glyphname = "kok-mtei";
production = uABC0;
lastChange = "2020-03-25 01:49:53 +0000";
layers = (
{
anchors = (
{
name = bottom;
position = "{768, 0}";
},
{
name = bottom_left;
position = "{0, 0}";
},
{
name = bottom_right;
position = "{871, 0}";
},
{
name = top;
position = "{734, 713}";
}
);
layerId = UUID0;
paths = (
{
closed = 1;
nodes = (
"816 627 LINE",
"816 659 LINE",
"55 659 LINE",
"55 627 LINE"
);
},
{
closed = 1;
nodes = (
"747 635 LINE",
"124 67 LINE",
"124 24 LINE",
"747 593 LINE"
);
},
{
closed = 1;
nodes = (
"734 11 LINE",
"756 32 LINE",
"116 32 LINE",
"137 11 LINE",
"137 641 LINE",
"103 641 LINE",
"103 0 LINE",
"768 0 LINE",
"768 641 LINE",
"734 641 LINE"
);
},
{
closed = 1;
nodes = (
"520 23 LINE",
"554 23 LINE",
"554 641 LINE",
"520 641 LINE"
);
},
{
closed = 1;
nodes = (
"316 23 LINE",
"350 23 LINE",
"350 641 LINE",
"316 641 LINE"
);
}
);
width = 871;
},
{
anchors = (
{
name = bottom;
position = "{908, 0}";
},
{
name = bottom_left;
position = "{0, 0}";
},
{
name = bottom_right;
position = "{981, 0}";
},
{
name = top;
position = "{754, 713}";
}
);
background = {
paths = (
{
closed = 0;
nodes = (
"612 523 LINE"
);
}
);
};
layerId = "C50897A6-2E0F-4413-920D-1E10F1328263";
paths = (
{
closed = 1;
nodes = (
"956 537 LINE",
"956 659 LINE",
"25 659 LINE",
"25 537 LINE"
);
},
{
closed = 1;
nodes = (
"767 525 LINE",
"214 207 LINE",
"214 134 LINE",
"767 453 LINE"
);
},
{
closed = 1;
nodes = (
"754 11 LINE",
"816 122 LINE",
"206 122 LINE",
"227 11 LINE",
"227 641 LINE",
"73 641 LINE",
"73 0 LINE",
"908 0 LINE",
"908 641 LINE",
"754 641 LINE"
);
},
{
closed = 1;
nodes = (
"530 23 LINE",
"664 23 LINE",
"664 641 LINE",
"530 641 LINE"
);
},
{
closed = 1;
nodes = (
"316 23 LINE",
"450 23 LINE",
"450 641 LINE",
"316 641 LINE"
);
}
);
width = 981;
},
{
anchors = (
{
name = bottom;
position = "{819, 0}";
},
{
name = bottom_left;
position = "{0, 0}";
},
{
name = bottom_right;
position = "{924, 0}";
},
{
name = top;
position = "{739, 713}";
}
);
layerId = "B2B7298B-4574-4E4E-9E4E-FF4301209A8A";
paths = (
{
closed = 1;
nodes = (
"869 586 LINE",
"869 659 LINE",
"55 659 LINE",
"55 586 LINE"
);
},
{
closed = 1;
nodes = (
"752 587 LINE",
"175 153 LINE",
"175 71 LINE",
"752 508 LINE"
);
},
{
closed = 1;
nodes = (
"739 31 LINE",
"777 72 LINE",
"150 72 LINE",
"187 31 LINE",
"187 601 LINE",
"105 601 LINE",
"105 0 LINE",
"819 0 LINE",
"819 601 LINE",
"739 601 LINE"
);
},
{
closed = 1;
nodes = (
"525 53 LINE",
"605 53 LINE",
"605 601 LINE",
"525 601 LINE"
);
},
{
closed = 1;
nodes = (
"319 53 LINE",
"399 53 LINE",
"399 601 LINE",
"319 601 LINE"
);
}
);
width = 924;
}
);
unicode = ABC0;
script = mtei;
category = Letter;
subCategory = Other;
},
{
glyphname = "sam-mtei";
production = uABC1;
lastChange = "2020-03-25 01:49:53 +0000";
layers = (
{
anchors = (
{
name = bottom;
position = "{653, 0}";
},
{
name = bottom_left;
position = "{0, 0}";
},
{
name = bottom_right;
position = "{798, 0}";
},
{
name = top;
position = "{563, 713}";
}
);
background = {
paths = (
{
closed = 1;
nodes = (
"326 32 LINE",
"167 42 OFFCURVE",
"82 154 OFFCURVE",
"82 365 CURVE SMOOTH",
"82 562 OFFCURVE",
"156 631 OFFCURVE",
"241 631 CURVE SMOOTH",
"313 631 OFFCURVE",
"380 581 OFFCURVE",
"382 372 CURVE",
"416 372 LINE",
"419 584 OFFCURVE",
"491 631 OFFCURVE",
"562 631 CURVE SMOOTH",
"645 631 OFFCURVE",
"716 569 OFFCURVE",
"716 370 CURVE SMOOTH",
"716 158 OFFCURVE",
"636 42 OFFCURVE",
"472 32 CURVE",
"472 -1 LINE",
"650 8 OFFCURVE",
"750 131 OFFCURVE",
"750 367 CURVE SMOOTH",
"750 580 OFFCURVE",
"669 663 OFFCURVE",
"563 663 CURVE SMOOTH",
"492 663 OFFCURVE",
"421 626 OFFCURVE",
"399 492 CURVE",
"424 499 LINE",
"376 499 LINE",
"398 492 LINE",
"381 626 OFFCURVE",
"308 663 OFFCURVE",
"240 663 CURVE SMOOTH",
"137 663 OFFCURVE",
"48 580 OFFCURVE",
"48 366 CURVE SMOOTH",
"48 129 OFFCURVE",
"156 5 OFFCURVE",
"326 -1 CURVE"
);
}
);
};
layerId = UUID0;
paths = (
{
closed = 1;
nodes = (
"326 32 LINE",
"167 42 OFFCURVE",
"82 154 OFFCURVE",
"82 365 CURVE SMOOTH",
"82 562 OFFCURVE",
"156 631 OFFCURVE",
"241 631 CURVE SMOOTH",
"313 631 OFFCURVE",
"380 581 OFFCURVE",
"382 372 CURVE",
"416 372 LINE",
"419 584 OFFCURVE",
"491 631 OFFCURVE",
"562 631 CURVE SMOOTH",
"645 631 OFFCURVE",
"716 569 OFFCURVE",
"716 370 CURVE SMOOTH",
"716 158 OFFCURVE",
"636 42 OFFCURVE",
"472 32 CURVE",
"472 -1 LINE",
"650 8 OFFCURVE",
"750 131 OFFCURVE",
"750 367 CURVE SMOOTH",
"750 580 OFFCURVE",
"669 663 OFFCURVE",
"563 663 CURVE SMOOTH",
"492 663 OFFCURVE",
"421 626 OFFCURVE",
"399 492 CURVE",
"424 499 LINE",
"376 499 LINE",
"398 492 LINE",
"381 626 OFFCURVE",
"308 663 OFFCURVE",
"240 663 CURVE SMOOTH",
"137 663 OFFCURVE",
"48 580 OFFCURVE",
"48 366 CURVE SMOOTH",
"48 129 OFFCURVE",
"156 5 OFFCURVE",
"326 -1 CURVE"
);
}
);
width = 798;
},
{
anchors = (
{
name = bottom;
position = "{781, 0}";
},
{
name = bottom_left;
position = "{0, 0}";
},
{
name = bottom_right;
position = "{882, 0}";
},
{
name = top;
position = "{618, 713}";
}
);
layerId = "C50897A6-2E0F-4413-920D-1E10F1328263";
paths = (
{
closed = 1;
nodes = (
"388 132 LINE",
"238 141 OFFCURVE",
"189 217 OFFCURVE",
"189 351 CURVE SMOOTH",
"189 479 OFFCURVE",
"234 531 OFFCURVE",
"281 531 CURVE SMOOTH",
"325 531 OFFCURVE",
"358 485 OFFCURVE",
"359 322 CURVE",
"523 322 LINE",
"525 486 OFFCURVE",
"561 531 OFFCURVE",
"607 531 CURVE SMOOTH",
"651 531 OFFCURVE",
"693 489 OFFCURVE",
"693 363 CURVE SMOOTH",
"693 212 OFFCURVE",
"634 140 OFFCURVE",
"494 132 CURVE",
"494 -11 LINE",
"732 -1 OFFCURVE",
"857 114 OFFCURVE",
"857 358 CURVE SMOOTH",
"857 582 OFFCURVE",
"751 673 OFFCURVE",
"618 673 CURVE SMOOTH",
"542 673 OFFCURVE",
"457 643 OFFCURVE",
"431 492 CURVE",
"466 549 LINE",
"418 549 LINE",
"450 492 LINE",
"429 645 OFFCURVE",
"339 673 OFFCURVE",
"268 673 CURVE SMOOTH",
"140 673 OFFCURVE",
"25 582 OFFCURVE",
"25 356 CURVE SMOOTH",
"25 106 OFFCURVE",
"166 -4 OFFCURVE",
"388 -11 CURVE"
);
}
);
width = 882;
},
{
anchors = (
{
name = bottom;
position = "{707, 0}";
},
{
name = bottom_left;
position = "{0, 0}";
},
{
name = bottom_right;
position = "{837, 0}";
},
{
name = top;
position = "{591, 713}";
}
);
layerId = "B2B7298B-4574-4E4E-9E4E-FF4301209A8A";
paths = (
{
closed = 1;
nodes = (
"327 77 LINE",
"199 80 OFFCURVE",
"135 181 OFFCURVE",
"135 352 CURVE SMOOTH",
"135 540 OFFCURVE",
"186 590 OFFCURVE",
"254 590 CURVE SMOOTH",
"320 590 OFFCURVE",
"379 545 OFFCURVE",
"381 342 CURVE",
"463 342 LINE",
"466 549 OFFCURVE",
"525 591 OFFCURVE",
"596 591 CURVE SMOOTH",
"659 591 OFFCURVE",
"707 544 OFFCURVE",
"707 353 CURVE SMOOTH",
"707 182 OFFCURVE",
"638 82 OFFCURVE",
"515 77 CURVE",
"515 -1 LINE",
"685 5 OFFCURVE",
"789 135 OFFCURVE",
"789 353 CURVE SMOOTH",
"789 593 OFFCURVE",
"691 669 OFFCURVE",
"593 669 CURVE SMOOTH",
"506 669 OFFCURVE",
"441 625 OFFCURVE",
"415 493 CURVE",
"462 529 LINE",
"382 529 LINE",
"427 492 LINE",
"410 625 OFFCURVE",
"330 668 OFFCURVE",
"259 668 CURVE SMOOTH",
"153 668 OFFCURVE",
"48 593 OFFCURVE",
"48 352 CURVE SMOOTH",
"48 134 OFFCURVE",
"161 2 OFFCURVE",
"327 -1 CURVE"
);
}
);
width = 837;
}
);
unicode = ABC1;
script = mtei;
category = Letter;
subCategory = Other;
},
{
glyphname = "lai-mtei";
production = uABC2;
lastChange = "2020-03-25 01:49:53 +0000";
layers = (
{
anchors = (
{
name = bottom;
position = "{543, 0}";
},
{
name = bottom_left;
position = "{0, 0}";
},
{
name = bottom_right;
position = "{606, 0}";
},
{
name = top;
position = "{485, 713}";
}
);
layerId = UUID0;
paths = (
{
closed = 1;
nodes = (
"566 627 LINE",
"566 659 LINE",
"40 659 LINE",
"40 627 LINE"
);
},
{
closed = 1;
nodes = (
"484 643 LINE",
"484 414 LINE",
"496 410 LINE",
"444 475 OFFCURVE",
"373 501 OFFCURVE",
"307 501 CURVE SMOOTH",
"202 501 OFFCURVE",
"75 436 OFFCURVE",
"75 253 CURVE SMOOTH",
"75 71 OFFCURVE",
"199 -3 OFFCURVE",
"322 -3 CURVE SMOOTH",
"409 -3 OFFCURVE",
"478 34 OFFCURVE",
"543 91 CURVE",
"524 118 LINE",
"461 62 OFFCURVE",
"400 29 OFFCURVE",
"322 29 CURVE SMOOTH",
"211 29 OFFCURVE",
"109 95 OFFCURVE",
"109 252 CURVE SMOOTH",
"109 402 OFFCURVE",
"202 469 OFFCURVE",
"309 469 CURVE SMOOTH",
"388 469 OFFCURVE",
"446 432 OFFCURVE",
"485 375 CURVE",
"518 375 LINE",
"518 643 LINE"
);
}
);
width = 606;
},
{
anchors = (
{
name = bottom;
position = "{643, 0}";
},
{
name = bottom_left;
position = "{0, 0}";
},
{
name = bottom_right;
position = "{691, 0}";
},
{
name = top;
position = "{478, 713}";
}
);
layerId = "C50897A6-2E0F-4413-920D-1E10F1328263";
paths = (
{
closed = 1;
nodes = (
"676 537 LINE",
"676 659 LINE",
"20 659 LINE",
"20 537 LINE"
);
},
{
closed = 1;
nodes = (
"478 643 LINE",
"478 404 LINE",
"552 385 LINE",
"487 463 OFFCURVE",
"415 496 OFFCURVE",
"323 496 CURVE SMOOTH",
"166 496 OFFCURVE",
"55 400 OFFCURVE",
"55 252 CURVE SMOOTH",
"55 96 OFFCURVE",
"179 -13 OFFCURVE",
"355 -13 CURVE SMOOTH",
"456 -13 OFFCURVE",
"553 23 OFFCURVE",
"643 99 CURVE",
"567 218 LINE",
"502 161 OFFCURVE",
"429 129 OFFCURVE",
"361 129 CURVE SMOOTH",
"276 129 OFFCURVE",
"219 178 OFFCURVE",
"219 249 CURVE SMOOTH",
"219 317 OFFCURVE",
"272 364 OFFCURVE",
"344 364 CURVE SMOOTH",
"396 364 OFFCURVE",
"441 340 OFFCURVE",
"465 305 CURVE",
"628 305 LINE",
"628 643 LINE"
);
}
);
width = 691;
},
{
anchors = (
{
name = bottom;
position = "{575, 0}";
},
{
name = bottom_left;
position = "{0, 0}";
},
{
name = bottom_right;
position = "{646, 0}";
},
{
name = top;
position = "{474, 713}";
}
);
layerId = "B2B7298B-4574-4E4E-9E4E-FF4301209A8A";
paths = (
{
closed = 1;
nodes = (
"606 586 LINE",
"606 659 LINE",
"40 659 LINE",
"40 586 LINE"
);
},
{
closed = 1;
nodes = (
"474 602 LINE",
"474 414 LINE",
"496 429 LINE",
"448 477 OFFCURVE",
"387 506 OFFCURVE",
"308 506 CURVE SMOOTH",
"188 506 OFFCURVE",
"65 438 OFFCURVE",
"65 258 CURVE SMOOTH",
"65 70 OFFCURVE",
"201 -4 OFFCURVE",
"331 -4 CURVE SMOOTH",
"429 -4 OFFCURVE",
"514 37 OFFCURVE",
"575 100 CURVE",
"530 163 LINE",
"484 116 OFFCURVE",
"415 70 OFFCURVE",
"330 70 CURVE SMOOTH",
"237 70 OFFCURVE",
"148 126 OFFCURVE",
"148 253 CURVE SMOOTH",
"148 375 OFFCURVE",
"230 432 OFFCURVE",
"317 432 CURVE SMOOTH",
"382 432 OFFCURVE",
"439 401 OFFCURVE",
"474 355 CURVE",
"556 355 LINE",
"556 602 LINE"
);
}
);
width = 646;
}
);
unicode = ABC2;
script = mtei;
category = Letter;
subCategory = Other;
},
{
glyphname = "mit-mtei";
production = uABC3;
lastChange = "2020-03-25 01:49:53 +0000";
layers = (
{
anchors = (
{
name = bottom;
position = "{687, 0}";
},
{
name = bottom_left;
position = "{0, 0}";
},
{
name = bottom_right;
position = "{732, 0}";
},
{
name = top;
position = "{587, 713}";
}
);
layerId = UUID0;
paths = (
{
closed = 1;
nodes = (
"103 643 LINE",
"103 0 LINE",
"137 0 LINE",
"137 643 LINE"
);
},
{
closed = 1;
nodes = (
"611 292 LINE",
"615 307 LINE",
"535 273 OFFCURVE",
"500 206 OFFCURVE",
"500 143 CURVE SMOOTH",
"500 57 OFFCURVE",
"564 -3 OFFCURVE",
"648 -3 CURVE SMOOTH",
"666 -3 OFFCURVE",
"683 0 OFFCURVE",
"696 4 CURVE",
"689 36 LINE",
"679 33 OFFCURVE",
"665 31 OFFCURVE",
"650 31 CURVE SMOOTH",
"580 31 OFFCURVE",
"534 75 OFFCURVE",
"534 144 CURVE SMOOTH",
"534 218 OFFCURVE",
"588 276 OFFCURVE",
"657 292 CURVE",
"657 324 LINE",
"121 324 LINE",
"121 292 LINE"
);
},
{
closed = 1;
nodes = (
"687 627 LINE",
"687 659 LINE",
"55 659 LINE",
"55 627 LINE"
);
},
{
closed = 1;
nodes = (
"324 0 LINE",
"358 0 LINE",
"358 643 LINE",
"324 643 LINE"
);
}
);
width = 732;
},
{
anchors = (
{
name = bottom;
position = "{797, 0}";
},
{
name = bottom_left;
position = "{0, 0}";
},
{
name = bottom_right;
position = "{827, 0}";
},
{
name = top;
position = "{617, 713}";
}
);
layerId = "C50897A6-2E0F-4413-920D-1E10F1328263";
paths = (
{
closed = 1;
nodes = (
"73 553 LINE",
"73 0 LINE",
"227 0 LINE",
"227 553 LINE"
);
},
{
closed = 1;
nodes = (
"721 232 LINE",
"650 267 LINE",
"571 243 OFFCURVE",
"530 198 OFFCURVE",
"530 130 CURVE SMOOTH",
"530 33 OFFCURVE",
"623 -13 OFFCURVE",
"726 -13 CURVE SMOOTH",
"757 -13 OFFCURVE",
"787 -8 OFFCURVE",
"807 -1 CURVE",
"783 121 LINE",
"772 117 OFFCURVE",
"756 114 OFFCURVE",
"742 114 CURVE SMOOTH",
"702 114 OFFCURVE",
"679 133 OFFCURVE",
"679 162 CURVE SMOOTH",
"679 199 OFFCURVE",
"713 225 OFFCURVE",
"757 232 CURVE",
"757 354 LINE",
"211 354 LINE",
"211 232 LINE"
);
},
{
closed = 1;
nodes = (
"797 537 LINE",
"797 659 LINE",
"25 659 LINE",
"25 537 LINE"
);
},
{
closed = 1;
nodes = (
"317 0 LINE",
"465 0 LINE",
"465 553 LINE",
"317 553 LINE"
);
}
);
width = 827;
},
{
anchors = (
{
name = bottom;
position = "{706, 0}";
},
{
name = bottom_left;
position = "{0, 0}";
},
{
name = bottom_right;
position = "{751, 0}";
},
{
name = top;
position = "{578, 713}";
}
);
layerId = "B2B7298B-4574-4E4E-9E4E-FF4301209A8A";
paths = (
{
closed = 1;
nodes = (
"105 602 LINE",
"105 0 LINE",
"187 0 LINE",
"187 602 LINE"
);
},
{
closed = 1;
nodes = (
"593 272 LINE",
"577 287 LINE",
"526 259 OFFCURVE",
"502 210 OFFCURVE",
"502 152 CURVE SMOOTH",
"502 62 OFFCURVE",
"560 -6 OFFCURVE",
"661 -6 CURVE SMOOTH",
"679 -6 OFFCURVE",
"699 -4 OFFCURVE",
"715 1 CURVE",
"702 72 LINE",
"692 68 OFFCURVE",
"680 67 OFFCURVE",
"670 67 CURVE SMOOTH",
"605 67 OFFCURVE",
"578 112 OFFCURVE",
"578 159 CURVE SMOOTH",
"578 213 OFFCURVE",
"612 266 OFFCURVE",
"684 272 CURVE",
"684 343 LINE",
"170 343 LINE",
"170 272 LINE"
);
},
{
closed = 1;
nodes = (
"706 586 LINE",
"706 659 LINE",
"55 659 LINE",
"55 586 LINE"
);
},
{
closed = 1;
nodes = (
"326 0 LINE",
"407 0 LINE",
"407 602 LINE",
"326 602 LINE"
);
}
);
width = 751;
}
);
unicode = ABC3;
script = mtei;
category = Letter;
subCategory = Other;
},
{
glyphname = "pa-mtei";
production = uABC4;
lastChange = "2020-03-25 01:49:53 +0000";
layers = (
{
anchors = (
{
name = bottom;
position = "{897, 0}";
},
{
name = bottom_left;
position = "{0, 0}";
},
{
name = bottom_right;
position = "{940, 0}";
},
{
name = top;
position = "{796, 713}";
}
);
layerId = UUID0;
paths = (
{
closed = 1;
nodes = (
"360 0 LINE",
"394 0 LINE",
"394 637 LINE",
"360 637 LINE"
);
},
{
closed = 1;
nodes = (
"547 0 LINE",
"581 0 LINE",
"581 637 LINE",
"547 637 LINE"
);
},
{
closed = 1;
nodes = (
"875 649 LINE",
"762 530 OFFCURVE",
"704 391 OFFCURVE",
"704 272 CURVE SMOOTH",
"704 144 OFFCURVE",
"770 31 OFFCURVE",
"897 0 CURVE",
"910 33 LINE",
"775 66 OFFCURVE",
"738 187 OFFCURVE",
"738 280 CURVE SMOOTH",
"738 391 OFFCURVE",
"791 518 OFFCURVE",
"896 627 CURVE",
"896 659 LINE",
"45 659 LINE",
"45 627 LINE",
"150 518 OFFCURVE",
"202 391 OFFCURVE",
"202 280 CURVE SMOOTH",
"202 187 OFFCURVE",
"165 66 OFFCURVE",
"30 33 CURVE",
"43 0 LINE",
"170 31 OFFCURVE",
"236 144 OFFCURVE",
"236 272 CURVE SMOOTH",
"236 391 OFFCURVE",
"179 530 OFFCURVE",
"66 649 CURVE",
"62 627 LINE",
"879 627 LINE"
);
}
);
width = 940;
},
{
anchors = (
{
name = bottom;
position = "{1017, 0}";
},
{
name = bottom_left;
position = "{0, 0}";
},
{
name = bottom_right;
position = "{1090, 0}";
},
{
name = top;
position = "{880, 713}";
}
);
background = {
paths = (
{
closed = 1;
nodes = (
"582 0 LINE",
"716 0 LINE",
"716 637 LINE",
"582 637 LINE"
);
},
{
closed = 0;
nodes = (
"1043 537 LINE",
"974 629 LINE",
"841 515 OFFCURVE",
"769 379 OFFCURVE",
"769 264 CURVE SMOOTH",
"769 130 OFFCURVE",
"857 20 OFFCURVE",
"1017 -10 CURVE",
"1075 113 LINE",
"948 145 OFFCURVE",
"913 216 OFFCURVE",
"913 282 CURVE SMOOTH",
"913 361 OFFCURVE",
"963 456 OFFCURVE",
"1060 537 CURVE",
"1060 659 LINE"
);
}
);
};
layerId = "C50897A6-2E0F-4413-920D-1E10F1328263";
paths = (
{
closed = 1;
nodes = (
"375 0 LINE",
"509 0 LINE",
"509 637 LINE",
"375 637 LINE"
);
},
{
closed = 1;
nodes = (
"582 0 LINE",
"716 0 LINE",
"716 637 LINE",
"582 637 LINE"
);
},
{
closed = 1;
nodes = (
"974 629 LINE",
"841 515 OFFCURVE",
"769 379 OFFCURVE",
"769 264 CURVE SMOOTH",
"769 130 OFFCURVE",
"857 20 OFFCURVE",
"1017 -10 CURVE",
"1075 113 LINE",
"948 145 OFFCURVE",
"913 216 OFFCURVE",
"913 282 CURVE SMOOTH",
"913 361 OFFCURVE",
"963 456 OFFCURVE",
"1060 537 CURVE",
"1060 659 LINE",
"30 659 LINE",
"30 537 LINE",
"128 456 OFFCURVE",
"177 361 OFFCURVE",
"177 282 CURVE SMOOTH",
"177 216 OFFCURVE",
"142 145 OFFCURVE",
"15 113 CURVE",
"83 -10 LINE",
"235 20 OFFCURVE",
"321 130 OFFCURVE",
"321 264 CURVE SMOOTH",
"321 378 OFFCURVE",
"252 513 OFFCURVE",
"116 629 CURVE",
"112 537 LINE",
"1043 537 LINE"
);
}
);
width = 1090;
},
{
anchors = (
{
name = bottom;
position = "{928, 0}";
},
{
name = bottom_left;
position = "{0, 0}";
},
{
name = bottom_right;
position = "{981, 0}";
},
{
name = top;
position = "{783, 713}";
}
);
layerId = "B2B7298B-4574-4E4E-9E4E-FF4301209A8A";
paths = (
{
closed = 1;
nodes = (
"357 0 LINE",
"438 0 LINE",
"438 602 LINE",
"357 602 LINE"
);
},
{
closed = 1;
nodes = (
"543 0 LINE",
"624 0 LINE",
"624 602 LINE",
"543 602 LINE"
);
},
{
closed = 1;
nodes = (
"852 608 LINE",
"756 503 OFFCURVE",
"701 380 OFFCURVE",
"701 272 CURVE SMOOTH",
"701 148 OFFCURVE",
"774 26 OFFCURVE",
"928 0 CURVE",
"951 73 LINE",
"822 100 OFFCURVE",
"783 198 OFFCURVE",
"783 285 CURVE SMOOTH",
"783 377 OFFCURVE",
"836 493 OFFCURVE",
"936 586 CURVE",
"936 659 LINE",
"45 659 LINE",
"45 586 LINE",
"149 492 OFFCURVE",
"198 381 OFFCURVE",
"198 285 CURVE SMOOTH",
"198 198 OFFCURVE",
"158 100 OFFCURVE",
"30 73 CURVE",
"52 0 LINE",
"207 26 OFFCURVE",
"280 148 OFFCURVE",
"280 272 CURVE SMOOTH",
"280 380 OFFCURVE",
"225 503 OFFCURVE",
"130 608 CURVE",
"111 586 LINE",
"871 586 LINE"
);
}
);
width = 981;
}
);
unicode = ABC4;
script = mtei;
category = Letter;
subCategory = Other;
},
{
glyphname = "na-mtei";
production = uABC5;
lastChange = "2020-03-25 01:49:53 +0000";
layers = (
{
anchors = (
{
name = bottom;
position = "{623, 0}";
},
{
name = bottom_left;
position = "{0, 0}";
},
{
name = bottom_right;
position = "{691, 0}";
},
{
name = top;
position = "{571, 713}";
}
);
layerId = UUID0;
paths = (
{
closed = 1;
nodes = (
"591 639 LINE",
"433 361 LINE",
"463 344 LINE",
"629 639 LINE"
);
},
{
closed = 1;
nodes = (
"140 637 LINE",
"111 566 OFFCURVE",
"72 443 OFFCURVE",
"72 326 CURVE SMOOTH",
"72 103 OFFCURVE",
"212 -3 OFFCURVE",
"369 -3 CURVE SMOOTH",
"462 -3 OFFCURVE",
"552 35 OFFCURVE",
"623 98 CURVE",
"603 122 LINE",
"543 73 OFFCURVE",
"468 31 OFFCURVE",
"371 31 CURVE SMOOTH",
"228 31 OFFCURVE",
"107 120 OFFCURVE",
"107 325 CURVE SMOOTH",
"107 460 OFFCURVE",
"159 593 OFFCURVE",
"178 632 CURVE"
);
},
{
closed = 1;
nodes = (
"671 627 LINE",
"671 659 LINE",
"50 659 LINE",
"50 627 LINE"
);
}
);
width = 691;
},
{
anchors = (
{
name = bottom;
position = "{728, 0}";
},
{
name = bottom_left;
position = "{0, 0}";
},
{
name = bottom_right;
position = "{794, 0}";
},
{
name = top;
position = "{536, 713}";
}
);
layerId = "C50897A6-2E0F-4413-920D-1E10F1328263";
paths = (
{
closed = 1;
nodes = (
"556 569 LINE",
"408 351 LINE",
"558 294 LINE",
"734 569 LINE"
);
},
{
closed = 1;
nodes = (
"115 567 LINE",
"83 505 OFFCURVE",
"47 419 OFFCURVE",
"47 319 CURVE SMOOTH",
"47 100 OFFCURVE",
"218 -13 OFFCURVE",
"409 -13 CURVE SMOOTH",
"526 -13 OFFCURVE",
"639 29 OFFCURVE",
"728 98 CURVE",
"643 222 LINE",
"583 173 OFFCURVE",
"507 131 OFFCURVE",
"413 131 CURVE SMOOTH",
"302 131 OFFCURVE",
"212 190 OFFCURVE",
"212 325 CURVE SMOOTH",
"212 429 OFFCURVE",
"264 532 OFFCURVE",
"283 562 CURVE"
);
},
{
closed = 1;
nodes = (
"776 537 LINE",
"776 659 LINE",
"25 659 LINE",
"25 537 LINE"
);
}
);
width = 794;
},
{
anchors = (
{
name = bottom;
position = "{640, 0}";
},
{
name = bottom_left;
position = "{0, 0}";
},
{
name = bottom_right;
position = "{709, 0}";
},
{
name = top;
position = "{549, 713}";
}
);
background = {
paths = (
{
closed = 1;
nodes = (
"557 600 LINE",
"433 371 LINE",
"507 332 LINE",
"646 600 LINE"
);
},
{
closed = 1;
nodes = (
"121 597 LINE",
"100 535 OFFCURVE",
"72 430 OFFCURVE",
"72 322 CURVE SMOOTH",
"72 102 OFFCURVE",
"217 -7 OFFCURVE",
"377 -7 CURVE SMOOTH",
"475 -7 OFFCURVE",
"565 33 OFFCURVE",
"640 98 CURVE",
"591 159 LINE",
"532 110 OFFCURVE",
"465 74 OFFCURVE",
"379 74 CURVE SMOOTH",
"263 74 OFFCURVE",
"161 151 OFFCURVE",
"161 322 CURVE SMOOTH",
"161 452 OFFCURVE",
"201 558 OFFCURVE",
"216 592 CURVE"
);
},
{
closed = 1;
nodes = (
"689 586 LINE",
"689 659 LINE",
"50 659 LINE",
"50 586 LINE"
);
}
);
};
layerId = "B2B7298B-4574-4E4E-9E4E-FF4301209A8A";
paths = (
{
closed = 1;
nodes = (
"556 600 LINE",
"433 370 LINE",
"508 335 LINE",
"646 600 LINE"
);
},
{
closed = 1;
nodes = (
"121 597 LINE",
"100 536 OFFCURVE",
"72 426 OFFCURVE",
"72 326 CURVE SMOOTH",
"72 100 OFFCURVE",
"217 -6 OFFCURVE",
"377 -6 CURVE SMOOTH",
"475 -6 OFFCURVE",
"565 34 OFFCURVE",
"640 98 CURVE",
"591 159 LINE",
"532 107 OFFCURVE",
"462 69 OFFCURVE",
"378 69 CURVE SMOOTH",
"259 69 OFFCURVE",
"154 144 OFFCURVE",
"154 330 CURVE SMOOTH",
"154 442 OFFCURVE",
"192 555 OFFCURVE",
"209 592 CURVE"
);
},
{
closed = 1;
nodes = (
"689 586 LINE",
"689 659 LINE",
"50 659 LINE",
"50 586 LINE"
);
}
);
width = 709;
}
);
unicode = ABC5;
script = mtei;
category = Letter;
subCategory = Other;
},
{
glyphname = "chil-mtei";
production = uABC6;
lastChange = "2020-03-25 01:49:53 +0000";
layers = (
{
anchors = (
{
name = bottom;
position = "{705, 0}";
},
{
name = bottom_left;
position = "{0, 0}";
},
{
name = bottom_right;
position = "{749, 0}";
},
{
name = top;
position = "{605, 713}";
}
);
background = {
paths = (
{
closed = 1;
nodes = (
"684 649 LINE",
"571 530 OFFCURVE",
"513 391 OFFCURVE",
"513 272 CURVE SMOOTH",
"513 144 OFFCURVE",
"579 31 OFFCURVE",
"706 0 CURVE",
"719 33 LINE",
"584 66 OFFCURVE",
"547 187 OFFCURVE",
"547 280 CURVE SMOOTH",
"547 391 OFFCURVE",
"600 518 OFFCURVE",
"705 627 CURVE",
"705 659 LINE",
"45 659 LINE",
"45 627 LINE",
"150 518 OFFCURVE",
"202 391 OFFCURVE",
"202 280 CURVE SMOOTH",
"202 187 OFFCURVE",
"165 66 OFFCURVE",
"30 33 CURVE",
"43 0 LINE",
"170 31 OFFCURVE",
"236 144 OFFCURVE",
"236 272 CURVE SMOOTH",
"236 391 OFFCURVE",
"179 530 OFFCURVE",
"66 649 CURVE",
"62 627 LINE",
"688 627 LINE"
);
},
{
closed = 1;
nodes = (
"536 318 LINE",
"216 318 LINE",
"223 286 LINE",
"529 286 LINE"
);
}
);
};
layerId = UUID0;
paths = (
{
closed = 1;
nodes = (
"536 318 LINE",
"216 318 LINE",
"223 286 LINE",
"529 286 LINE"
);
},
{
closed = 1;
nodes = (
"684 649 LINE",
"571 530 OFFCURVE",
"513 391 OFFCURVE",
"513 272 CURVE SMOOTH",
"513 144 OFFCURVE",
"579 31 OFFCURVE",
"706 0 CURVE",
"719 33 LINE",
"584 66 OFFCURVE",
"547 187 OFFCURVE",
"547 280 CURVE SMOOTH",
"547 391 OFFCURVE",
"600 518 OFFCURVE",
"705 627 CURVE",
"705 659 LINE",
"45 659 LINE",
"45 627 LINE",
"150 518 OFFCURVE",
"202 391 OFFCURVE",
"202 280 CURVE SMOOTH",
"202 187 OFFCURVE",
"165 66 OFFCURVE",
"30 33 CURVE",
"43 0 LINE",
"170 31 OFFCURVE",
"236 144 OFFCURVE",
"236 272 CURVE SMOOTH",
"236 391 OFFCURVE",
"179 530 OFFCURVE",
"66 649 CURVE",
"62 627 LINE",
"688 627 LINE"
);
}
);
width = 749;
},
{
anchors = (
{
name = bottom;
position = "{757, 0}";
},
{
name = bottom_left;
position = "{0, 0}";
},
{
name = bottom_right;
position = "{830, 0}";
},
{
name = top;
position = "{620, 713}";
}
);
layerId = "C50897A6-2E0F-4413-920D-1E10F1328263";
paths = (
{
closed = 1;
nodes = (
"591 348 LINE",
"201 348 LINE",
"208 226 LINE",
"584 226 LINE"
);
},
{
closed = 1;
nodes = (
"714 639 LINE",
"581 522 OFFCURVE",
"509 382 OFFCURVE",
"509 264 CURVE SMOOTH",
"509 130 OFFCURVE",
"597 20 OFFCURVE",
"757 -10 CURVE",
"815 113 LINE",
"688 145 OFFCURVE",
"653 216 OFFCURVE",
"653 282 CURVE SMOOTH",
"653 361 OFFCURVE",
"703 456 OFFCURVE",
"800 537 CURVE",
"800 659 LINE",
"30 659 LINE",
"30 537 LINE",
"128 456 OFFCURVE",
"177 361 OFFCURVE",
"177 282 CURVE SMOOTH",
"177 216 OFFCURVE",
"142 145 OFFCURVE",
"15 113 CURVE",
"83 -10 LINE",
"235 20 OFFCURVE",
"321 130 OFFCURVE",
"321 264 CURVE SMOOTH",
"321 381 OFFCURVE",
"252 520 OFFCURVE",
"116 639 CURVE",
"112 537 LINE",
"783 537 LINE"
);
}
);
width = 830;
},
{
anchors = (
{
name = bottom;
position = "{705, 0}";
},
{
name = bottom_left;
position = "{0, 0}";
},
{
name = bottom_right;
position = "{781, 0}";
},
{
name = top;
position = "{587, 713}";
}
);
layerId = "B2B7298B-4574-4E4E-9E4E-FF4301209A8A";
paths = (
{
closed = 1;
nodes = (
"529 338 LINE",
"252 338 LINE",
"259 266 LINE",
"522 266 LINE"
);
},
{
closed = 1;
nodes = (
"659 608 LINE",
"562 501 OFFCURVE",
"506 382 OFFCURVE",
"506 270 CURVE SMOOTH",
"506 138 OFFCURVE",
"579 25 OFFCURVE",
"728 0 CURVE",
"751 73 LINE",
"624 100 OFFCURVE",
"587 198 OFFCURVE",
"587 285 CURVE SMOOTH",
"587 377 OFFCURVE",
"645 499 OFFCURVE",
"739 586 CURVE",
"739 659 LINE",
"41 659 LINE",
"41 586 LINE",
"146 493 OFFCURVE",
"195 381 OFFCURVE",
"195 285 CURVE SMOOTH",
"195 198 OFFCURVE",
"158 100 OFFCURVE",
"30 73 CURVE",
"53 0 LINE",
"202 25 OFFCURVE",
"275 136 OFFCURVE",
"275 269 CURVE SMOOTH",
"275 378 OFFCURVE",
"223 503 OFFCURVE",
"126 608 CURVE",
"107 586 LINE",
"678 586 LINE"
);
}
);
width = 781;
}
);
unicode = ABC6;
script = mtei;
category = Letter;
subCategory = Other;
},
{
glyphname = "til-mtei";
production = uABC7;
lastChange = "2020-03-25 01:49:53 +0000";
layers = (
{
anchors = (
{
name = bottom;
position = "{669, 0}";
},
{
name = bottom_left;
position = "{0, 0}";
},
{
name = bottom_right;
position = "{731, 0}";
},
{
name = top;
position = "{540, 713}";
}
);
layerId = UUID0;
paths = (
{
closed = 1;
nodes = (
"701 568 OFFCURVE",
"497 659 OFFCURVE",
"301 659 CURVE SMOOTH",
"49 659 LINE",
"49 627 LINE",
"199 496 OFFCURVE",
"301 339 OFFCURVE",
"301 193 CURVE SMOOTH",
"301 107 OFFCURVE",
"265 32 OFFCURVE",
"181 32 CURVE SMOOTH",
"137 32 OFFCURVE",
"91 52 OFFCURVE",
"45 114 CURVE",
"20 89 LINE",
"67 26 OFFCURVE",
"120 -3 OFFCURVE",
"180 -3 CURVE SMOOTH",
"281 -3 OFFCURVE",
"336 79 OFFCURVE",
"336 190 CURVE SMOOTH",
"336 340 OFFCURVE",
"234 508 OFFCURVE",
"74 647 CURVE",
"65 627 LINE",
"294 627 LINE SMOOTH",
"475 627 OFFCURVE",
"669 557 OFFCURVE",
"669 408 CURVE SMOOTH",
"669 336 OFFCURVE",
"624 302 OFFCURVE",
"570 302 CURVE SMOOTH",
"504 302 OFFCURVE",
"469 352 OFFCURVE",
"469 411 CURVE SMOOTH",
"469 476 OFFCURVE",
"513 532 OFFCURVE",
"562 582 CURVE",
"539 603 LINE",
"498 562 OFFCURVE",
"437 498 OFFCURVE",
"437 409 CURVE SMOOTH",
"437 314 OFFCURVE",
"506 270 OFFCURVE",
"571 270 CURVE SMOOTH",
"635 270 OFFCURVE",
"701 313 OFFCURVE",
"701 405 CURVE SMOOTH"
);
},
{
closed = 1;
nodes = (
"564 584 LINE",
"590 610 OFFCURVE",
"638 651 OFFCURVE",
"677 677 CURVE",
"657 699 LINE",
"633 682 OFFCURVE",
"596 656 OFFCURVE",
"540 604 CURVE"
);
}
);
width = 731;
},
{
anchors = (
{
name = bottom;
position = "{805, 0}";
},
{
name = bottom_left;
position = "{0, 0}";
},
{
name = bottom_right;
position = "{851, 0}";
},
{
name = top;
position = "{513, 713}";
}
);
background = {
paths = (
{
closed = 0;
nodes = (
"684 395 LINE SMOOTH",
"684 359 OFFCURVE",
"666 337 OFFCURVE",
"640 337 CURVE SMOOTH",
"610 337 OFFCURVE",
"594 367 OFFCURVE",
"594 401 CURVE SMOOTH",
"594 461 OFFCURVE",
"644 510 OFFCURVE",
"697 552 CURVE",
"553 595 LINE",
"502 546 OFFCURVE",
"449 487 OFFCURVE",
"449 397 CURVE SMOOTH",
"449 274 OFFCURVE",
"550 215 OFFCURVE",
"642 215 CURVE SMOOTH",
"734 215 OFFCURVE",
"829 275 OFFCURVE",
"829 392 CURVE SMOOTH"
);
},
{
closed = 1;
nodes = (
"699 554 LINE",
"733 587 OFFCURVE",
"761 614 OFFCURVE",
"799 643 CURVE",
"703 727 LINE",
"655 689 OFFCURVE",
"605 649 OFFCURVE",
"556 598 CURVE"
);
}
);
};
layerId = "C50897A6-2E0F-4413-920D-1E10F1328263";
paths = (
{
closed = 1;
nodes = (
"829 566 OFFCURVE",
"622 659 OFFCURVE",
"416 659 CURVE SMOOTH",
"44 659 LINE",
"44 537 LINE",
"184 440 OFFCURVE",
"286 311 OFFCURVE",
"286 211 CURVE SMOOTH",
"286 161 OFFCURVE",
"260 130 OFFCURVE",
"215 130 CURVE SMOOTH",
"176 130 OFFCURVE",
"146 153 OFFCURVE",
"107 204 CURVE",
"15 109 LINE",
"77 28 OFFCURVE",
"135 -13 OFFCURVE",
"226 -13 CURVE SMOOTH",
"357 -13 OFFCURVE",
"441 73 OFFCURVE",
"441 191 CURVE SMOOTH",
"441 316 OFFCURVE",
"345 460 OFFCURVE",
"199 575 CURVE",
"190 537 LINE",
"399 537 LINE SMOOTH",
"546 537 OFFCURVE",
"684 494 OFFCURVE",
"684 395 CURVE SMOOTH",
"684 359 OFFCURVE",
"666 337 OFFCURVE",
"640 337 CURVE SMOOTH",
"610 337 OFFCURVE",
"594 367 OFFCURVE",
"594 401 CURVE SMOOTH",
"594 461 OFFCURVE",
"644 510 OFFCURVE",
"697 552 CURVE",
"553 595 LINE",
"502 546 OFFCURVE",
"449 487 OFFCURVE",
"449 397 CURVE SMOOTH",
"449 274 OFFCURVE",
"550 215 OFFCURVE",
"642 215 CURVE SMOOTH",
"734 215 OFFCURVE",
"829 275 OFFCURVE",
"829 392 CURVE SMOOTH"
);
},
{
closed = 1;
nodes = (
"699 554 LINE",
"733 587 OFFCURVE",
"761 614 OFFCURVE",
"799 643 CURVE",
"703 727 LINE",
"655 689 OFFCURVE",
"605 649 OFFCURVE",
"556 598 CURVE"
);
}
);
width = 851;
},
{
anchors = (
{
name = bottom;
position = "{656, 0}";
},
{
name = bottom_left;
position = "{0, 0}";
},
{
name = bottom_right;
position = "{765, 0}";
},
{
name = top;
position = "{506, 713}";
}
);
layerId = "B2B7298B-4574-4E4E-9E4E-FF4301209A8A";
paths = (
{
closed = 1;
nodes = (
"735 566 OFFCURVE",
"531 659 OFFCURVE",
"347 659 CURVE SMOOTH",
"49 659 LINE",
"49 586 LINE",
"178 493 OFFCURVE",
"287 347 OFFCURVE",
"287 212 CURVE SMOOTH",
"287 136 OFFCURVE",
"252 69 OFFCURVE",
"182 69 CURVE SMOOTH",
"143 69 OFFCURVE",
"112 89 OFFCURVE",
"81 129 CURVE",
"20 76 LINE",
"59 27 OFFCURVE",
"111 -6 OFFCURVE",
"181 -6 CURVE SMOOTH",
"297 -6 OFFCURVE",
"369 84 OFFCURVE",
"369 207 CURVE SMOOTH",
"369 343 OFFCURVE",
"280 487 OFFCURVE",
"148 606 CURVE",
"131 586 LINE",
"345 586 LINE SMOOTH",
"491 586 OFFCURVE",
"656 530 OFFCURVE",
"656 409 CURVE SMOOTH",
"656 355 OFFCURVE",
"623 330 OFFCURVE",
"581 330 CURVE SMOOTH",
"534 330 OFFCURVE",
"506 362 OFFCURVE",
"506 411 CURVE SMOOTH",
"506 461 OFFCURVE",
"535 506 OFFCURVE",
"579 548 CURVE",
"509 578 LINE",
"471 540 OFFCURVE",
"427 481 OFFCURVE",
"427 407 CURVE SMOOTH",
"427 307 OFFCURVE",
"508 260 OFFCURVE",
"583 260 CURVE SMOOTH",
"657 260 OFFCURVE",
"735 306 OFFCURVE",
"735 405 CURVE SMOOTH"
);
},
{
closed = 1;
nodes = (
"612 578 LINE",
"634 600 OFFCURVE",
"657 620 OFFCURVE",
"707 661 CURVE",
"656 716 LINE",
"632 696 OFFCURVE",
"572 646 OFFCURVE",
"530 601 CURVE"
);
}
);
width = 765;
}
);
unicode = ABC7;
script = mtei;
category = Letter;
subCategory = Other;
},
{
glyphname = "khou-mtei";
production = uABC8;
lastChange = "2020-03-25 01:49:53 +0000";
layers = (
{
anchors = (
{
name = bottom;
position = "{653, 0}";
},
{
name = bottom_left;
position = "{0, 0}";
},
{
name = bottom_right;
position = "{683, 0}";
},
{
name = top;
position = "{563, 713}";
}
);
layerId = UUID0;
paths = (
{
closed = 1;
nodes = (
"168 34 OFFCURVE",
"202 112 OFFCURVE",
"234 208 CURVE SMOOTH",
"270 317 OFFCURVE",
"303 410 OFFCURVE",
"412 410 CURVE SMOOTH",
"485 410 OFFCURVE",
"526 369 OFFCURVE",
"526 311 CURVE SMOOTH",
"526 266 OFFCURVE",
"501 212 OFFCURVE",
"501 171 CURVE SMOOTH",
"501 121 OFFCURVE",
"537 90 OFFCURVE",
"578 90 CURVE SMOOTH",
"602 90 OFFCURVE",
"628 100 OFFCURVE",
"653 123 CURVE",
"631 146 LINE",
"612 129 OFFCURVE",
"594 122 OFFCURVE",
"577 122 CURVE SMOOTH",
"551 122 OFFCURVE",
"534 138 OFFCURVE",
"534 172 CURVE SMOOTH",
"534 215 OFFCURVE",
"560 257 OFFCURVE",
"560 309 CURVE SMOOTH",
"560 393 OFFCURVE",
"492 442 OFFCURVE",
"411 442 CURVE SMOOTH",
"336 442 OFFCURVE",
"264 400 OFFCURVE",
"223 268 CURVE",
"236 280 LINE",
"233 435 OFFCURVE",
"147 554 OFFCURVE",
"59 646 CURVE",
"50 627 LINE",
"663 627 LINE",
"663 659 LINE",
"33 659 LINE",
"33 627 LINE",
"135 528 OFFCURVE",
"202 403 OFFCURVE",
"202 278 CURVE SMOOTH",
"202 171 OFFCURVE",
"153 63 OFFCURVE",
"30 33 CURVE",
"43 0 LINE"
);
}
);
width = 683;
},
{
anchors = (
{
name = bottom;
position = "{760, 0}";
},
{
name = bottom_left;
position = "{0, 0}";
},
{
name = bottom_right;
position = "{780, 0}";
},
{
name = top;
position = "{580, 713}";
}
);
layerId = "C50897A6-2E0F-4413-920D-1E10F1328263";
paths = (
{
closed = 1;
nodes = (
"247 31 OFFCURVE",
"274 96 OFFCURVE",
"319 208 CURVE SMOOTH",
"346 276 OFFCURVE",
"372 340 OFFCURVE",
"443 340 CURVE SMOOTH",
"484 340 OFFCURVE",
"499 319 OFFCURVE",
"499 296 CURVE SMOOTH",
"499 276 OFFCURVE",
"487 234 OFFCURVE",
"487 201 CURVE SMOOTH",
"487 118 OFFCURVE",
"564 60 OFFCURVE",
"643 60 CURVE SMOOTH",
"695 60 OFFCURVE",
"735 85 OFFCURVE",
"768 113 CURVE",
"700 213 LINE",
"681 195 OFFCURVE",
"668 187 OFFCURVE",
"654 187 CURVE SMOOTH",
"642 187 OFFCURVE",
"633 193 OFFCURVE",
"633 212 CURVE SMOOTH",
"633 236 OFFCURVE",
"648 261 OFFCURVE",
"648 301 CURVE SMOOTH",
"648 396 OFFCURVE",
"568 462 OFFCURVE",
"452 462 CURVE SMOOTH",
"366 462 OFFCURVE",
"279 425 OFFCURVE",
"238 268 CURVE",
"321 280 LINE",
"317 427 OFFCURVE",
"220 539 OFFCURVE",
"121 626 CURVE",
"177 537 LINE",
"760 537 LINE",
"760 659 LINE",
"30 659 LINE",
"30 537 LINE",
"118 465 OFFCURVE",
"177 370 OFFCURVE",
"177 282 CURVE SMOOTH",
"177 208 OFFCURVE",
"135 139 OFFCURVE",
"15 113 CURVE",
"83 -10 LINE"
);
}
);
width = 780;
},
{
anchors = (
{
name = bottom;
position = "{689, 0}";
},
{
name = bottom_left;
position = "{0, 0}";
},
{
name = bottom_right;
position = "{715, 0}";
},
{
name = top;
position = "{573, 713}";
}
);
background = {
paths = (
{
closed = 1;
nodes = (
"168 24 OFFCURVE",
"240 94 OFFCURVE",
"267 201 CURVE SMOOTH",
"302 340 OFFCURVE",
"354 382 OFFCURVE",
"423 382 CURVE SMOOTH",
"476 382 OFFCURVE",
"510 350 OFFCURVE",
"510 306 CURVE SMOOTH",
"510 292 OFFCURVE",
"493 208 OFFCURVE",
"493 184 CURVE SMOOTH",
"493 112 OFFCURVE",
"544 80 OFFCURVE",
"598 80 CURVE SMOOTH",
"628 80 OFFCURVE",
"662 90 OFFCURVE",
"689 117 CURVE",
"639 170 LINE",
"627 158 OFFCURVE",
"613 153 OFFCURVE",
"602 153 CURVE SMOOTH",
"584 153 OFFCURVE",
"573 163 OFFCURVE",
"573 184 CURVE SMOOTH",
"573 222 OFFCURVE",
"592 265 OFFCURVE",
"592 306 CURVE SMOOTH",
"592 406 OFFCURVE",
"509 453 OFFCURVE",
"426 453 CURVE SMOOTH",
"343 453 OFFCURVE",
"284 418 OFFCURVE",
"246 314 CURVE",
"262 321 LINE",
"254 422 OFFCURVE",
"185 525 OFFCURVE",
"114 605 CURVE",
"92 586 LINE",
"695 586 LINE",
"695 659 LINE",
"35 659 LINE",
"35 586 LINE",
"133 495 OFFCURVE",
"194 367 OFFCURVE",
"194 274 CURVE SMOOTH",
"194 181 OFFCURVE",
"150 102 OFFCURVE",
"30 72 CURVE",
"53 0 LINE"
);
}
);
};
layerId = "B2B7298B-4574-4E4E-9E4E-FF4301209A8A";
paths = (
{
closed = 1;
nodes = (
"168 24 OFFCURVE",
"240 94 OFFCURVE",
"267 201 CURVE SMOOTH",
"302 340 OFFCURVE",
"354 382 OFFCURVE",
"423 382 CURVE SMOOTH",
"476 382 OFFCURVE",
"510 350 OFFCURVE",
"510 306 CURVE SMOOTH",
"510 292 OFFCURVE",
"493 208 OFFCURVE",
"493 184 CURVE SMOOTH",
"493 112 OFFCURVE",
"544 80 OFFCURVE",
"598 80 CURVE SMOOTH",
"628 80 OFFCURVE",
"662 90 OFFCURVE",
"689 117 CURVE",
"642 173 LINE",
"629 159 OFFCURVE",
"614 153 OFFCURVE",
"602 153 CURVE SMOOTH",
"584 153 OFFCURVE",
"573 163 OFFCURVE",
"573 184 CURVE SMOOTH",
"573 222 OFFCURVE",
"592 265 OFFCURVE",
"592 306 CURVE SMOOTH",
"592 406 OFFCURVE",
"509 453 OFFCURVE",
"426 453 CURVE SMOOTH",
"343 453 OFFCURVE",
"278 415 OFFCURVE",
"243 314 CURVE",
"262 321 LINE",
"254 422 OFFCURVE",
"185 525 OFFCURVE",
"114 605 CURVE",
"92 586 LINE",
"695 586 LINE",
"695 659 LINE",
"35 659 LINE",
"35 586 LINE",
"133 495 OFFCURVE",
"194 367 OFFCURVE",
"194 274 CURVE SMOOTH",
"194 181 OFFCURVE",
"150 102 OFFCURVE",
"30 72 CURVE",
"53 0 LINE"
);
}
);
width = 715;
}
);
unicode = ABC8;
script = mtei;
category = Letter;
subCategory = Other;
},
{
glyphname = "ngou-mtei";
production = uABC9;
lastChange = "2020-03-25 01:49:53 +0000";
layers = (
{
anchors = (
{
name = bottom;
position = "{752, 0}";
},
{
name = bottom_left;
position = "{0, 0}";
},
{
name = bottom_right;
position = "{855, 0}";
},
{
name = top;
position = "{718, 713}";
}
);
background = {
paths = (
{
closed = 1;
nodes = (
"593 56 LINE",
"593 603 LINE",
"513 603 LINE",
"513 56 LINE"
);
},
{
closed = 1;
nodes = (
"389 56 LINE",
"389 625 LINE",
"351 587 LINE",
"836 587 LINE",
"836 659 LINE",
"303 659 LINE",
"303 56 LINE"
);
},
{
closed = 1;
nodes = (
"170 72 LINE",
"190 55 LINE",
"228 87 OFFCURVE",
"255 134 OFFCURVE",
"255 189 CURVE SMOOTH",
"255 289 OFFCURVE",
"186 333 OFFCURVE",
"98 333 CURVE SMOOTH",
"65 333 OFFCURVE",
"33 326 OFFCURVE",
"15 318 CURVE",
"41 250 LINE",
"54 255 OFFCURVE",
"74 261 OFFCURVE",
"96 261 CURVE SMOOTH",
"148 261 OFFCURVE",
"177 228 OFFCURVE",
"177 178 CURVE SMOOTH",
"177 131 OFFCURVE",
"144 85 OFFCURVE",
"80 72 CURVE",
"80 0 LINE",
"799 0 LINE",
"799 603 LINE",
"718 603 LINE",
"718 34 LINE",
"756 72 LINE"
);
}
);
};
layerId = UUID0;
paths = (
{
closed = 1;
nodes = (
"547 16 LINE",
"547 643 LINE",
"513 643 LINE",
"513 16 LINE"
);
},
{
closed = 1;
nodes = (
"341 16 LINE",
"341 645 LINE",
"315 627 LINE",
"800 627 LINE",
"800 659 LINE",
"307 659 LINE",
"307 16 LINE"
);
},
{
closed = 1;
nodes = (
"52 32 LINE",
"65 15 LINE",
"151 48 OFFCURVE",
"214 104 OFFCURVE",
"214 191 CURVE SMOOTH",
"214 275 OFFCURVE",
"157 324 OFFCURVE",
"88 324 CURVE SMOOTH",
"64 324 OFFCURVE",
"38 318 OFFCURVE",
"20 311 CURVE",
"32 280 LINE",
"44 284 OFFCURVE",
"66 290 OFFCURVE",
"89 290 CURVE SMOOTH",
"149 290 OFFCURVE",
"180 245 OFFCURVE",
"180 190 CURVE SMOOTH",
"180 115 OFFCURVE",
"120 65 OFFCURVE",
"30 32 CURVE",
"30 0 LINE",
"752 0 LINE",
"752 643 LINE",
"718 643 LINE",
"718 4 LINE",
"738 32 LINE"
);
}
);
width = 855;
},
{
anchors = (
{
name = bottom;
position = "{941, 0}";
},
{
name = bottom_left;
position = "{0, 0}";
},
{
name = bottom_right;
position = "{1014, 0}";
},
{
name = top;
position = "{787, 713}";
}
);
layerId = "C50897A6-2E0F-4413-920D-1E10F1328263";
paths = (
{
closed = 1;
nodes = (
"702 66 LINE",
"702 553 LINE",
"568 553 LINE",
"568 66 LINE"
);
},
{
closed = 1;
nodes = (
"484 66 LINE",
"484 555 LINE",
"338 537 LINE",
"989 537 LINE",
"989 659 LINE",
"330 659 LINE",
"330 66 LINE"
);
},
{
closed = 1;
nodes = (
"185 113 LINE",
"68 25 LINE",
"192 62 OFFCURVE",
"277 122 OFFCURVE",
"277 222 CURVE SMOOTH",
"277 313 OFFCURVE",
"208 389 OFFCURVE",
"90 389 CURVE SMOOTH",
"60 389 OFFCURVE",
"30 384 OFFCURVE",
"10 377 CURVE",
"22 250 LINE",
"34 254 OFFCURVE",
"54 260 OFFCURVE",
"75 260 CURVE SMOOTH",
"115 260 OFFCURVE",
"133 238 OFFCURVE",
"133 207 CURVE SMOOTH",
"133 163 OFFCURVE",
"96 132 OFFCURVE",
"33 113 CURVE",
"33 0 LINE",
"941 0 LINE",
"941 553 LINE",
"787 553 LINE",
"787 54 LINE",
"807 113 LINE"
);
}
);
width = 1014;
},
{
anchors = (
{
name = bottom;
position = "{802, 0}";
},
{
name = bottom_left;
position = "{0, 0}";
},
{
name = bottom_right;
position = "{907, 0}";
},
{
name = top;
position = "{721, 713}";
}
);
background = {
paths = (
{
closed = 0;
nodes = (
"852 586 LINE",
"852 659 LINE"
);
}
);
};
layerId = "B2B7298B-4574-4E4E-9E4E-FF4301209A8A";
paths = (
{
closed = 1;
nodes = (
"596 56 LINE",
"596 603 LINE",
"516 603 LINE",
"516 56 LINE"
);
},
{
closed = 1;
nodes = (
"391 56 LINE",
"391 625 LINE",
"354 586 LINE",
"852 586 LINE",
"852 659 LINE",
"310 659 LINE",
"310 56 LINE"
);
},
{
closed = 1;
nodes = (
"153 72 LINE",
"153 55 LINE",
"209 86 OFFCURVE",
"243 135 OFFCURVE",
"243 197 CURVE SMOOTH",
"243 281 OFFCURVE",
"180 334 OFFCURVE",
"100 334 CURVE SMOOTH",
"69 334 OFFCURVE",
"39 326 OFFCURVE",
"20 317 CURVE",
"43 249 LINE",
"56 255 OFFCURVE",
"78 260 OFFCURVE",
"97 260 CURVE SMOOTH",
"141 260 OFFCURVE",
"164 232 OFFCURVE",
"164 192 CURVE SMOOTH",
"164 139 OFFCURVE",
"123 94 OFFCURVE",
"43 72 CURVE",
"43 0 LINE",
"802 0 LINE",
"802 603 LINE",
"721 603 LINE",
"721 34 LINE",
"759 72 LINE"
);
}
);
width = 907;
}
);
unicode = ABC9;
script = mtei;
category = Letter;
subCategory = Other;
},
{
glyphname = "thou-mtei";
production = uABCA;
lastChange = "2020-03-25 01:49:53 +0000";
layers = (
{
anchors = (
{
name = bottom;
position = "{573, 0}";
},
{
name = bottom_left;
position = "{0, 0}";
},
{
name = bottom_right;
position = "{626, 0}";
},
{
name = top;
position = "{496, 713}";
}
);
layerId = UUID0;
paths = (
{
closed = 1;
nodes = (
"328 29 OFFCURVE",
"387 -3 OFFCURVE",
"442 -3 CURVE SMOOTH",
"515 -3 OFFCURVE",
"573 53 OFFCURVE",
"573 138 CURVE SMOOTH",
"573 229 OFFCURVE",
"506 268 OFFCURVE",
"467 277 CURVE",
"458 247 LINE",
"484 241 OFFCURVE",
"539 212 OFFCURVE",
"539 137 CURVE SMOOTH",
"539 70 OFFCURVE",
"495 29 OFFCURVE",
"438 29 CURVE SMOOTH",
"381 29 OFFCURVE",
"330 71 OFFCURVE",
"330 161 CURVE SMOOTH",
"330 640 LINE",
"296 640 LINE",
"296 161 LINE SMOOTH",
"296 71 OFFCURVE",
"245 29 OFFCURVE",
"188 29 CURVE SMOOTH",
"131 29 OFFCURVE",
"87 70 OFFCURVE",
"87 137 CURVE SMOOTH",
"87 212 OFFCURVE",
"142 241 OFFCURVE",
"168 247 CURVE",
"159 277 LINE",
"120 268 OFFCURVE",
"53 229 OFFCURVE",
"53 138 CURVE SMOOTH",
"53 53 OFFCURVE",
"111 -3 OFFCURVE",
"184 -3 CURVE SMOOTH",
"239 -3 OFFCURVE",
"298 29 OFFCURVE",
"316 103 CURVE",
"310 103 LINE"
);
},
{
closed = 1;
nodes = (
"596 627 LINE",
"596 659 LINE",
"30 659 LINE",
"30 627 LINE"
);
}
);
width = 626;
},
{
anchors = (
{
name = bottom;
position = "{745, 0}";
},
{
name = bottom_left;
position = "{0, 0}";
},
{
name = bottom_right;
position = "{780, 0}";
},
{
name = top;
position = "{568, 713}";
}
);
layerId = "C50897A6-2E0F-4413-920D-1E10F1328263";
paths = (
{
closed = 1;
nodes = (
"392 29 OFFCURVE",
"467 -13 OFFCURVE",
"553 -13 CURVE SMOOTH",
"665 -13 OFFCURVE",
"745 58 OFFCURVE",
"745 170 CURVE SMOOTH",
"745 303 OFFCURVE",
"632 346 OFFCURVE",
"574 357 CURVE",
"530 217 LINE",
"564 212 OFFCURVE",
"586 193 OFFCURVE",
"586 164 CURVE SMOOTH",
"586 138 OFFCURVE",
"568 119 OFFCURVE",
"537 119 CURVE SMOOTH",
"498 119 OFFCURVE",
"467 149 OFFCURVE",
"467 211 CURVE SMOOTH",
"467 640 LINE",
"313 640 LINE",
"313 211 LINE SMOOTH",
"313 149 OFFCURVE",
"282 119 OFFCURVE",
"243 119 CURVE SMOOTH",
"212 119 OFFCURVE",
"194 138 OFFCURVE",
"194 164 CURVE SMOOTH",
"194 193 OFFCURVE",
"216 212 OFFCURVE",
"250 217 CURVE",
"206 357 LINE",
"148 346 OFFCURVE",
"35 303 OFFCURVE",
"35 170 CURVE SMOOTH",
"35 58 OFFCURVE",
"115 -13 OFFCURVE",
"227 -13 CURVE SMOOTH",
"313 -13 OFFCURVE",
"388 29 OFFCURVE",
"413 123 CURVE",
"367 123 LINE"
);
},
{
closed = 1;
nodes = (
"758 537 LINE",
"758 659 LINE",
"22 659 LINE",
"22 537 LINE"
);
}
);
width = 780;
},
{
anchors = (
{
name = bottom;
position = "{618, 0}";
},
{
name = bottom_left;
position = "{0, 0}";
},
{
name = bottom_right;
position = "{649, 0}";
},
{
name = top;
position = "{498, 713}";
}
);
background = {
paths = (
{
closed = 1;
nodes = (
"346 23 OFFCURVE",
"398 -6 OFFCURVE",
"464 -6 CURVE SMOOTH",
"565 -6 OFFCURVE",
"618 61 OFFCURVE",
"618 143 CURVE SMOOTH",
"618 243 OFFCURVE",
"541 276 OFFCURVE",
"493 287 CURVE",
"478 212 LINE",
"505 206 OFFCURVE",
"537 190 OFFCURVE",
"537 144 CURVE SMOOTH",
"537 102 OFFCURVE",
"510 66 OFFCURVE",
"461 66 CURVE SMOOTH",
"414 66 OFFCURVE",
"374 100 OFFCURVE",
"374 181 CURVE SMOOTH",
"374 640 LINE",
"292 640 LINE",
"292 181 LINE SMOOTH",
"292 103 OFFCURVE",
"253 66 OFFCURVE",
"204 66 CURVE SMOOTH",
"155 66 OFFCURVE",
"130 103 OFFCURVE",
"130 144 CURVE SMOOTH",
"130 194 OFFCURVE",
"165 207 OFFCURVE",
"186 212 CURVE",
"172 287 LINE",
"129 277 OFFCURVE",
"49 246 OFFCURVE",
"49 144 CURVE SMOOTH",
"49 58 OFFCURVE",
"105 -6 OFFCURVE",
"198 -6 CURVE SMOOTH",
"267 -6 OFFCURVE",
"320 30 OFFCURVE",
"349 93 CURVE",
"322 95 LINE"
);
},
{
closed = 1;
nodes = (
"619 586 LINE",
"619 659 LINE",
"30 659 LINE",
"30 586 LINE"
);
}
);
};
layerId = "B2B7298B-4574-4E4E-9E4E-FF4301209A8A";
paths = (
{
closed = 1;
nodes = (
"346 23 OFFCURVE",
"398 -6 OFFCURVE",
"464 -6 CURVE SMOOTH",
"565 -6 OFFCURVE",
"618 61 OFFCURVE",
"618 143 CURVE SMOOTH",
"618 243 OFFCURVE",
"541 276 OFFCURVE",
"498 287 CURVE",
"474 213 LINE",
"505 206 OFFCURVE",
"537 190 OFFCURVE",
"537 144 CURVE SMOOTH",
"537 102 OFFCURVE",
"510 66 OFFCURVE",
"461 66 CURVE SMOOTH",
"414 66 OFFCURVE",
"374 100 OFFCURVE",
"374 181 CURVE SMOOTH",
"374 640 LINE",
"292 640 LINE",
"292 181 LINE SMOOTH",
"292 103 OFFCURVE",
"253 66 OFFCURVE",
"204 66 CURVE SMOOTH",
"155 66 OFFCURVE",
"130 103 OFFCURVE",
"130 144 CURVE SMOOTH",
"130 194 OFFCURVE",
"165 207 OFFCURVE",
"190 213 CURVE",
"167 287 LINE",
"129 277 OFFCURVE",
"49 246 OFFCURVE",
"49 144 CURVE SMOOTH",
"49 58 OFFCURVE",
"105 -6 OFFCURVE",
"198 -6 CURVE SMOOTH",
"267 -6 OFFCURVE",
"320 30 OFFCURVE",
"349 93 CURVE",
"322 95 LINE"
);
},
{
closed = 1;
nodes = (
"619 586 LINE",
"619 659 LINE",
"30 659 LINE",
"30 586 LINE"
);
}
);
width = 649;
}
);
unicode = ABCA;
script = mtei;
category = Letter;
subCategory = Other;
},
{
glyphname = "wai-mtei";
production = uABCB;
lastChange = "2020-03-25 01:49:53 +0000";
layers = (
{
anchors = (
{
name = bottom;
position = "{735, 0}";
},
{
name = bottom_left;
position = "{0, 0}";
},
{
name = bottom_right;
position = "{778, 0}";
},
{
name = top;
position = "{634, 713}";
}
);
layerId = UUID0;
paths = (
{
closed = 1;
nodes = (
"170 31 OFFCURVE",
"236 144 OFFCURVE",
"236 272 CURVE SMOOTH",
"236 391 OFFCURVE",
"179 530 OFFCURVE",
"66 649 CURVE",
"62 627 LINE",
"717 627 LINE",
"713 649 LINE",
"600 531 OFFCURVE",
"542 387 OFFCURVE",
"542 278 CURVE SMOOTH",
"542 235 OFFCURVE",
"551 171 OFFCURVE",
"582 113 CURVE",
"598 111 LINE",
"538 160 OFFCURVE",
"447 295 OFFCURVE",
"389 394 CURVE",
"361 376 LINE",
"452 230 OFFCURVE",
"556 47 OFFCURVE",
"735 0 CURVE",
"748 33 LINE",
"613 67 OFFCURVE",
"576 187 OFFCURVE",
"576 280 CURVE SMOOTH",
"576 391 OFFCURVE",
"629 518 OFFCURVE",
"734 627 CURVE",
"734 659 LINE",
"45 659 LINE",
"45 627 LINE",
"150 518 OFFCURVE",
"202 391 OFFCURVE",
"202 280 CURVE SMOOTH",
"202 187 OFFCURVE",
"165 66 OFFCURVE",
"30 33 CURVE",
"43 0 LINE"
);
}
);
width = 778;
},
{
anchors = (
{
name = bottom;
position = "{800, 0}";
},
{
name = bottom_left;
position = "{0, 0}";
},
{
name = bottom_right;
position = "{874, 0}";
},
{
name = top;
position = "{644, 713}";
}
);
layerId = "C50897A6-2E0F-4413-920D-1E10F1328263";
paths = (
{
closed = 1;
nodes = (
"232 19 OFFCURVE",
"321 128 OFFCURVE",
"321 263 CURVE SMOOTH",
"321 379 OFFCURVE",
"255 517 OFFCURVE",
"116 639 CURVE",
"112 537 LINE",
"827 537 LINE",
"758 639 LINE",
"625 531 OFFCURVE",
"563 383 OFFCURVE",
"563 286 CURVE SMOOTH",
"563 224 OFFCURVE",
"593 148 OFFCURVE",
"642 113 CURVE",
"678 161 LINE",
"610 212 OFFCURVE",
"527 319 OFFCURVE",
"463 424 CURVE",
"360 346 LINE",
"467 179 OFFCURVE",
"590 35 OFFCURVE",
"800 -10 CURVE",
"859 113 LINE",
"732 145 OFFCURVE",
"697 216 OFFCURVE",
"697 282 CURVE SMOOTH",
"697 361 OFFCURVE",
"747 456 OFFCURVE",
"844 537 CURVE",
"844 659 LINE",
"30 659 LINE",
"30 537 LINE",
"128 456 OFFCURVE",
"177 361 OFFCURVE",
"177 282 CURVE SMOOTH",
"177 216 OFFCURVE",
"142 145 OFFCURVE",
"15 113 CURVE",
"83 -10 LINE"
);
}
);
width = 874;
},
{
anchors = (
{
name = bottom;
position = "{767, 0}";
},
{
name = bottom_left;
position = "{0, 0}";
},
{
name = bottom_right;
position = "{820, 0}";
},
{
name = top;
position = "{618, 713}";
}
);
layerId = "B2B7298B-4574-4E4E-9E4E-FF4301209A8A";
paths = (
{
closed = 1;
nodes = (
"153 18 OFFCURVE",
"283 88 OFFCURVE",
"283 275 CURVE SMOOTH",
"283 393 OFFCURVE",
"229 503 OFFCURVE",
"133 608 CURVE",
"114 586 LINE",
"715 586 LINE",
"695 606 LINE",
"606 511 OFFCURVE",
"540 409 OFFCURVE",
"540 281 CURVE SMOOTH",
"540 266 OFFCURVE",
"540 260 OFFCURVE",
"551 199 CURVE",
"557 241 LINE",
"513 292 OFFCURVE",
"472 354 OFFCURVE",
"433 414 CURVE",
"366 367 LINE",
"450 244 OFFCURVE",
"590 43 OFFCURVE",
"767 0 CURVE",
"790 73 LINE",
"670 104 OFFCURVE",
"618 186 OFFCURVE",
"618 271 CURVE SMOOTH",
"618 370 OFFCURVE",
"673 483 OFFCURVE",
"780 588 CURVE",
"780 659 LINE",
"45 659 LINE",
"45 588 LINE",
"141 497 OFFCURVE",
"201 377 OFFCURVE",
"201 281 CURVE SMOOTH",
"201 193 OFFCURVE",
"158 107 OFFCURVE",
"30 80 CURVE",
"52 0 LINE"
);
}
);
width = 820;
}
);
unicode = ABCB;
script = mtei;
category = Letter;
subCategory = Other;
},
{
glyphname = "yang-mtei";
production = uABCC;
lastChange = "2020-03-25 01:49:53 +0000";
layers = (
{
anchors = (
{
name = bottom;
position = "{709, 0}";
},
{
name = bottom_left;
position = "{0, 0}";
},
{
name = bottom_right;
position = "{803, 0}";
},
{
name = top;
position = "{595, 713}";
}
);
background = {
paths = (
{
closed = 1;
nodes = (
"328 245 LINE",
"328 286 LINE",
"322 286 LINE SMOOTH",
"216 286 OFFCURVE",
"131 351 OFFCURVE",
"131 454 CURVE SMOOTH",
"131 555 OFFCURVE",
"212 627 OFFCURVE",
"356 627 CURVE SMOOTH",
"446 627 LINE SMOOTH",
"590 627 OFFCURVE",
"674 556 OFFCURVE",
"674 454 CURVE SMOOTH",
"674 349 OFFCURVE",
"585 286 OFFCURVE",
"482 286 CURVE SMOOTH",
"477 286 LINE",
"477 246 LINE",
"615 57 LINE SMOOTH",
"646 14 OFFCURVE",
"674 -3 OFFCURVE",
"705 -3 CURVE SMOOTH",
"723 -3 OFFCURVE",
"742 3 OFFCURVE",
"753 12 CURVE",
"740 41 LINE",
"727 33 OFFCURVE",
"717 29 OFFCURVE",
"706 29 CURVE SMOOTH",
"675 29 OFFCURVE",
"655 57 OFFCURVE",
"633 88 CURVE SMOOTH",
"493 280 LINE",
"479 250 LINE",
"629 259 OFFCURVE",
"708 347 OFFCURVE",
"708 449 CURVE SMOOTH",
"708 539 OFFCURVE",
"648 618 OFFCURVE",
"564 635 CURVE",
"553 627 LINE",
"751 627 LINE",
"751 659 LINE",
"50 659 LINE",
"50 627 LINE",
"250 627 LINE",
"240 634 LINE",
"157 619 OFFCURVE",
"97 544 OFFCURVE",
"97 452 CURVE SMOOTH",
"97 330 OFFCURVE",
"203 258 OFFCURVE",
"315 250 CURVE",
"316 279 LINE",
"77 16 LINE",
"104 -5 LINE"
);
}
);
};
layerId = UUID0;
paths = (
{
closed = 1;
nodes = (
"328 245 LINE",
"328 286 LINE",
"322 286 LINE SMOOTH",
"216 286 OFFCURVE",
"131 351 OFFCURVE",
"131 454 CURVE SMOOTH",
"131 555 OFFCURVE",
"212 627 OFFCURVE",
"356 627 CURVE SMOOTH",
"446 627 LINE SMOOTH",
"590 627 OFFCURVE",
"674 556 OFFCURVE",
"674 454 CURVE SMOOTH",
"674 349 OFFCURVE",
"585 286 OFFCURVE",
"482 286 CURVE SMOOTH",
"477 286 LINE",
"477 246 LINE",
"615 57 LINE SMOOTH",
"646 14 OFFCURVE",
"674 -3 OFFCURVE",
"705 -3 CURVE SMOOTH",
"723 -3 OFFCURVE",
"742 3 OFFCURVE",
"753 12 CURVE",
"740 41 LINE",
"727 33 OFFCURVE",
"717 29 OFFCURVE",
"706 29 CURVE SMOOTH",
"675 29 OFFCURVE",
"655 57 OFFCURVE",
"633 88 CURVE SMOOTH",
"493 280 LINE",
"479 250 LINE",
"629 259 OFFCURVE",
"708 347 OFFCURVE",
"708 449 CURVE SMOOTH",
"708 539 OFFCURVE",
"648 618 OFFCURVE",
"564 635 CURVE",
"553 627 LINE",
"751 627 LINE",
"751 659 LINE",
"50 659 LINE",
"50 627 LINE",
"250 627 LINE",
"240 634 LINE",
"157 619 OFFCURVE",
"97 544 OFFCURVE",
"97 452 CURVE SMOOTH",
"97 330 OFFCURVE",
"203 258 OFFCURVE",
"315 250 CURVE",
"316 279 LINE",
"77 16 LINE",
"104 -5 LINE"
);
}
);
width = 803;
},
{
anchors = (
{
name = bottom;
position = "{833, 0}";
},
{
name = bottom_left;
position = "{0, 0}";
},
{
name = bottom_right;
position = "{911, 0}";
},
{
name = top;
position = "{645, 713}";
}
);
layerId = "C50897A6-2E0F-4413-920D-1E10F1328263";
paths = (
{
closed = 1;
nodes = (
"413 205 LINE",
"413 326 LINE",
"407 326 LINE SMOOTH",
"318 326 OFFCURVE",
"246 362 OFFCURVE",
"246 427 CURVE SMOOTH",
"246 489 OFFCURVE",
"311 538 OFFCURVE",
"437 538 CURVE SMOOTH",
"476 538 LINE SMOOTH",
"603 538 OFFCURVE",
"669 489 OFFCURVE",
"669 427 CURVE SMOOTH",
"669 361 OFFCURVE",
"593 326 OFFCURVE",
"507 326 CURVE SMOOTH",
"502 326 LINE",
"502 206 LINE",
"623 51 LINE SMOOTH",
"650 17 OFFCURVE",
"681 -11 OFFCURVE",
"752 -11 CURVE SMOOTH",
"795 -11 OFFCURVE",
"838 -1 OFFCURVE",
"878 17 CURVE",
"836 141 LINE",
"818 130 OFFCURVE",
"800 122 OFFCURVE",
"775 122 CURVE SMOOTH",
"766 122 OFFCURVE",
"746 123 OFFCURVE",
"729 144 CURVE SMOOTH",
"638 260 LINE",
"634 210 LINE",
"749 220 OFFCURVE",
"833 307 OFFCURVE",
"833 412 CURVE SMOOTH",
"833 512 OFFCURVE",
"756 605 OFFCURVE",
"634 625 CURVE",
"688 537 LINE",
"886 537 LINE",
"886 659 LINE",
"25 659 LINE",
"25 537 LINE",
"325 537 LINE",
"280 624 LINE",
"159 605 OFFCURVE",
"82 524 OFFCURVE",
"82 418 CURVE SMOOTH",
"82 298 OFFCURVE",
"181 218 OFFCURVE",
"290 210 CURVE",
"271 259 LINE",
"72 86 LINE",
"194 -15 LINE"
);
}
);
width = 911;
},
{
anchors = (
{
name = bottom;
position = "{735, 0}";
},
{
name = bottom_left;
position = "{0, 0}";
},
{
name = bottom_right;
position = "{817, 0}";
},
{
name = top;
position = "{604, 713}";
}
);
background = {
paths = (
{
closed = 1;
nodes = (
"344 228 LINE",
"344 311 LINE",
"328 311 LINE SMOOTH",
"227 311 OFFCURVE",
"159 356 OFFCURVE",
"159 449 CURVE SMOOTH",
"159 537 OFFCURVE",
"228 586 OFFCURVE",
"352 586 CURVE SMOOTH",
"456 586 LINE SMOOTH",
"580 586 OFFCURVE",
"654 536 OFFCURVE",
"654 446 CURVE SMOOTH",
"654 356 OFFCURVE",
"580 311 OFFCURVE",
"481 311 CURVE SMOOTH",
"467 311 LINE",
"467 232 LINE",
"586 72 LINE SMOOTH",
"623 22 OFFCURVE",
"666 -5 OFFCURVE",
"708 -5 CURVE SMOOTH",
"726 -5 OFFCURVE",
"744 -4 OFFCURVE",
"765 4 CURVE",
"750 78 LINE",
"736 73 OFFCURVE",
"723 70 OFFCURVE",
"715 70 CURVE SMOOTH",
"686 70 OFFCURVE",
"666 93 OFFCURVE",
"641 124 CURVE SMOOTH",
"519 278 LINE",
"514 245 LINE",
"638 251 OFFCURVE",
"735 330 OFFCURVE",
"735 439 CURVE SMOOTH",
"735 515 OFFCURVE",
"686 579 OFFCURVE",
"625 594 CURVE",
"609 586 LINE",
"767 586 LINE",
"767 659 LINE",
"50 659 LINE",
"50 586 LINE",
"200 586 LINE",
"185 593 LINE",
"123 580 OFFCURVE",
"77 518 OFFCURVE",
"77 445 CURVE SMOOTH",
"77 308 OFFCURVE",
"197 252 OFFCURVE",
"285 246 CURVE",
"291 275 LINE",
"68 52 LINE",
"129 -5 LINE"
);
}
);
};
layerId = "B2B7298B-4574-4E4E-9E4E-FF4301209A8A";
paths = (
{
closed = 1;
nodes = (
"344 228 LINE",
"344 311 LINE",
"328 311 LINE SMOOTH",
"227 311 OFFCURVE",
"159 356 OFFCURVE",
"159 449 CURVE SMOOTH",
"159 537 OFFCURVE",
"228 586 OFFCURVE",
"352 586 CURVE SMOOTH",
"456 586 LINE SMOOTH",
"580 586 OFFCURVE",
"654 536 OFFCURVE",
"654 446 CURVE SMOOTH",
"654 356 OFFCURVE",
"580 311 OFFCURVE",
"481 311 CURVE SMOOTH",
"467 311 LINE",
"467 232 LINE",
"586 72 LINE SMOOTH",
"623 22 OFFCURVE",
"666 -5 OFFCURVE",
"708 -5 CURVE SMOOTH",
"726 -5 OFFCURVE",
"744 -4 OFFCURVE",
"765 4 CURVE",
"750 78 LINE",
"736 73 OFFCURVE",
"723 70 OFFCURVE",
"715 70 CURVE SMOOTH",
"686 70 OFFCURVE",
"666 93 OFFCURVE",
"641 124 CURVE SMOOTH",
"519 278 LINE",
"514 245 LINE",
"638 251 OFFCURVE",
"735 330 OFFCURVE",
"735 439 CURVE SMOOTH",
"735 515 OFFCURVE",
"686 579 OFFCURVE",
"625 594 CURVE",
"609 586 LINE",
"767 586 LINE",
"767 659 LINE",
"50 659 LINE",
"50 586 LINE",
"200 586 LINE",
"185 593 LINE",
"123 580 OFFCURVE",
"77 518 OFFCURVE",
"77 445 CURVE SMOOTH",
"77 308 OFFCURVE",
"197 252 OFFCURVE",
"285 246 CURVE",
"289 275 LINE",
"65 48 LINE",
"129 -6 LINE"
);
}
);
width = 817;
}
);
unicode = ABCC;
script = mtei;
category = Letter;
subCategory = Other;
},
{
glyphname = "huk-mtei";
production = uABCD;
lastChange = "2020-03-25 01:49:53 +0000";
layers = (
{
anchors = (
{
name = bottom;
position = "{659, 0}";
},
{
name = bottom_left;
position = "{0, 0}";
},
{
name = bottom_right;
position = "{723, 0}";
},
{
name = top;
position = "{575, 713}";
}
);
background = {
paths = (
{
closed = 1;
nodes = (
"236 0 OFFCURVE",
"319 57 OFFCURVE",
"366 252 CURVE SMOOTH",
"404 411 OFFCURVE",
"463 454 OFFCURVE",
"523 454 CURVE SMOOTH",
"573 454 OFFCURVE",
"610 419 OFFCURVE",
"610 349 CURVE SMOOTH",
"610 279 OFFCURVE",
"578 245 OFFCURVE",
"543 245 CURVE SMOOTH",
"510 245 OFFCURVE",
"483 255 OFFCURVE",
"466 264 CURVE",
"437 200 LINE",
"464 186 OFFCURVE",
"497 176 OFFCURVE",
"543 176 CURVE SMOOTH",
"610 176 OFFCURVE",
"687 223 OFFCURVE",
"687 351 CURVE SMOOTH",
"687 481 OFFCURVE",
"602 524 OFFCURVE",
"524 524 CURVE SMOOTH",
"443 524 OFFCURVE",
"348 468 OFFCURVE",
"300 287 CURVE SMOOTH",
"253 111 OFFCURVE",
"209 72 OFFCURVE",
"116 72 CURVE SMOOTH",
"109 72 OFFCURVE",
"105 72 OFFCURVE",
"94 73 CURVE",
"86 2 LINE",
"100 0 OFFCURVE",
"115 0 OFFCURVE",
"128 0 CURVE SMOOTH"
);
},
{
closed = 1;
nodes = (
"710 586 LINE",
"710 659 LINE",
"69 659 LINE",
"69 586 LINE"
);
}
);
};
layerId = UUID0;
paths = (
{
closed = 1;
nodes = (
"251 0 OFFCURVE",
"288 126 OFFCURVE",
"324 252 CURVE SMOOTH",
"353 353 OFFCURVE",
"394 485 OFFCURVE",
"507 485 CURVE SMOOTH",
"575 485 OFFCURVE",
"625 438 OFFCURVE",
"625 348 CURVE SMOOTH",
"625 260 OFFCURVE",
"576 215 OFFCURVE",
"518 215 CURVE SMOOTH",
"488 215 OFFCURVE",
"460 227 OFFCURVE",
"443 237 CURVE",
"428 209 LINE",
"452 194 OFFCURVE",
"484 183 OFFCURVE",
"517 183 CURVE SMOOTH",
"586 183 OFFCURVE",
"659 229 OFFCURVE",
"659 349 CURVE SMOOTH",
"659 473 OFFCURVE",
"580 516 OFFCURVE",
"505 516 CURVE SMOOTH",
"374 516 OFFCURVE",
"331 384 OFFCURVE",
"300 287 CURVE SMOOTH",
"241 101 OFFCURVE",
"219 32 OFFCURVE",
"98 32 CURVE SMOOTH",
"83 32 OFFCURVE",
"73 33 OFFCURVE",
"65 34 CURVE",
"65 3 LINE",
"76 1 OFFCURVE",
"90 0 OFFCURVE",
"103 0 CURVE SMOOTH"
);
},
{
closed = 1;
nodes = (
"687 627 LINE",
"687 659 LINE",
"36 659 LINE",
"36 627 LINE"
);
}
);
width = 723;
},
{
anchors = (
{
name = bottom;
position = "{763, 0}";
},
{
name = bottom_left;
position = "{0, 0}";
},
{
name = bottom_right;
position = "{821, 0}";
},
{
name = top;
position = "{576, 713}";
}
);
background = {
paths = (
{
closed = 1;
nodes = (
"374 0 OFFCURVE",
"413 126 OFFCURVE",
"448 252 CURVE SMOOTH",
"475 350 OFFCURVE",
"515 488 OFFCURVE",
"625 488 CURVE SMOOTH",
"690 488 OFFCURVE",
"739 440 OFFCURVE",
"739 348 CURVE SMOOTH",
"739 260 OFFCURVE",
"695 215 OFFCURVE",
"641 215 CURVE SMOOTH",
"613 215 OFFCURVE",
"584 227 OFFCURVE",
"567 237 CURVE",
"552 209 LINE",
"576 194 OFFCURVE",
"608 183 OFFCURVE",
"640 183 CURVE SMOOTH",
"705 183 OFFCURVE",
"773 229 OFFCURVE",
"773 348 CURVE SMOOTH",
"773 475 OFFCURVE",
"696 519 OFFCURVE",
"623 519 CURVE SMOOTH",
"495 519 OFFCURVE",
"453 382 OFFCURVE",
"424 287 CURVE SMOOTH",
"367 99 OFFCURVE",
"340 32 OFFCURVE",
"223 32 CURVE SMOOTH",
"209 32 OFFCURVE",
"200 33 OFFCURVE",
"193 34 CURVE",
"189 3 LINE",
"200 1 OFFCURVE",
"214 0 OFFCURVE",
"227 0 CURVE SMOOTH"
);
},
{
closed = 1;
nodes = (
"811 627 LINE",
"811 659 LINE",
"160 659 LINE",
"160 627 LINE"
);
}
);
};
layerId = "C50897A6-2E0F-4413-920D-1E10F1328263";
paths = (
{
closed = 1;
nodes = (
"359 -10 OFFCURVE",
"395 108 OFFCURVE",
"438 252 CURVE SMOOTH",
"462 332 OFFCURVE",
"482 383 OFFCURVE",
"541 383 CURVE SMOOTH",
"580 383 OFFCURVE",
"609 361 OFFCURVE",
"609 307 CURVE SMOOTH",
"609 261 OFFCURVE",
"588 235 OFFCURVE",
"557 235 CURVE SMOOTH",
"540 235 OFFCURVE",
"520 243 OFFCURVE",
"507 251 CURVE",
"462 124 LINE",
"488 112 OFFCURVE",
"524 103 OFFCURVE",
"562 103 CURVE SMOOTH",
"659 103 OFFCURVE",
"763 162 OFFCURVE",
"763 308 CURVE SMOOTH",
"763 461 OFFCURVE",
"650 514 OFFCURVE",
"538 514 CURVE SMOOTH",
"367 514 OFFCURVE",
"322 392 OFFCURVE",
"284 287 CURVE SMOOTH",
"240 163 OFFCURVE",
"223 122 OFFCURVE",
"117 122 CURVE SMOOTH",
"101 122 OFFCURVE",
"89 123 OFFCURVE",
"53 129 CURVE",
"49 1 LINE",
"99 -9 OFFCURVE",
"120 -10 OFFCURVE",
"140 -10 CURVE SMOOTH"
);
},
{
closed = 1;
nodes = (
"801 537 LINE",
"801 659 LINE",
"20 659 LINE",
"20 537 LINE"
);
}
);
width = 821;
},
{
anchors = (
{
name = bottom;
position = "{648, 0}";
},
{
name = bottom_left;
position = "{0, 0}";
},
{
name = bottom_right;
position = "{717, 0}";
},
{
name = top;
position = "{527, 713}";
}
);
background = {
paths = (
{
closed = 1;
nodes = (
"203 0 OFFCURVE",
"286 57 OFFCURVE",
"333 252 CURVE SMOOTH",
"371 411 OFFCURVE",
"430 454 OFFCURVE",
"490 454 CURVE SMOOTH",
"540 454 OFFCURVE",
"577 419 OFFCURVE",
"577 349 CURVE SMOOTH",
"577 279 OFFCURVE",
"545 245 OFFCURVE",
"510 245 CURVE SMOOTH",
"477 245 OFFCURVE",
"450 255 OFFCURVE",
"433 264 CURVE",
"404 200 LINE",
"431 186 OFFCURVE",
"464 176 OFFCURVE",
"510 176 CURVE SMOOTH",
"577 176 OFFCURVE",
"654 223 OFFCURVE",
"654 351 CURVE SMOOTH",
"654 481 OFFCURVE",
"569 524 OFFCURVE",
"491 524 CURVE SMOOTH",
"410 524 OFFCURVE",
"315 468 OFFCURVE",
"267 287 CURVE SMOOTH",
"220 111 OFFCURVE",
"176 72 OFFCURVE",
"83 72 CURVE SMOOTH",
"76 72 OFFCURVE",
"72 72 OFFCURVE",
"61 73 CURVE",
"53 2 LINE",
"67 0 OFFCURVE",
"82 0 OFFCURVE",
"95 0 CURVE SMOOTH"
);
},
{
closed = 1;
nodes = (
"677 586 LINE",
"677 659 LINE",
"36 659 LINE",
"36 586 LINE"
);
}
);
};
layerId = "B2B7298B-4574-4E4E-9E4E-FF4301209A8A";
paths = (
{
closed = 1;
nodes = (
"253 0 OFFCURVE",
"298 109 OFFCURVE",
"337 250 CURVE SMOOTH",
"362 341 OFFCURVE",
"393 451 OFFCURVE",
"486 451 CURVE SMOOTH",
"538 451 OFFCURVE",
"577 417 OFFCURVE",
"577 347 CURVE SMOOTH",
"577 280 OFFCURVE",
"541 247 OFFCURVE",
"495 247 CURVE SMOOTH",
"472 247 OFFCURVE",
"447 256 OFFCURVE",
"432 264 CURVE",
"404 200 LINE",
"428 185 OFFCURVE",
"459 175 OFFCURVE",
"495 175 CURVE SMOOTH",
"574 175 OFFCURVE",
"658 225 OFFCURVE",
"658 347 CURVE SMOOTH",
"658 474 OFFCURVE",
"570 524 OFFCURVE",
"484 524 CURVE SMOOTH",
"336 524 OFFCURVE",
"290 375 OFFCURVE",
"264 287 CURVE SMOOTH",
"221 142 OFFCURVE",
"200 72 OFFCURVE",
"83 72 CURVE SMOOTH",
"73 72 OFFCURVE",
"63 72 OFFCURVE",
"46 75 CURVE",
"46 4 LINE",
"65 1 OFFCURVE",
"80 0 OFFCURVE",
"95 0 CURVE SMOOTH"
);
},
{
closed = 1;
nodes = (
"681 586 LINE",
"681 659 LINE",
"36 659 LINE",
"36 586 LINE"
);
}
);
width = 717;
}
);
unicode = ABCD;
script = mtei;
category = Letter;
subCategory = Other;
},
{
glyphname = "un-mtei";
production = uABCE;
lastChange = "2020-03-25 01:49:53 +0000";
layers = (
{
anchors = (
{
name = bottom;
position = "{672, 0}";
},
{
name = bottom_left;
position = "{0, 0}";
},
{
name = bottom_right;
position = "{754, 0}";
},
{
name = top;
position = "{569, 713}";
}
);
background = {
paths = (
{
closed = 1;
nodes = (
"548 286 LINE",
"623 207 OFFCURVE",
"640 170 OFFCURVE",
"640 125 CURVE SMOOTH",
"640 82 OFFCURVE",
"624 50 OFFCURVE",
"592 18 CURVE",
"611 8 LINE",
"603 125 OFFCURVE",
"540 158 OFFCURVE",
"485 158 CURVE SMOOTH",
"429 158 OFFCURVE",
"376 123 OFFCURVE",
"373 18 CURVE",
"383 18 LINE",
"375 125 OFFCURVE",
"314 164 OFFCURVE",
"248 164 CURVE SMOOTH",
"130 164 OFFCURVE",
"106 46 OFFCURVE",
"104 0 CURVE",
"138 0 LINE",
"140 61 OFFCURVE",
"170 131 OFFCURVE",
"251 131 CURVE SMOOTH",
"326 131 OFFCURVE",
"359 71 OFFCURVE",
"362 0 CURVE",
"396 0 LINE",
"396 59 OFFCURVE",
"412 126 OFFCURVE",
"488 126 CURVE SMOOTH",
"555 126 OFFCURVE",
"578 74 OFFCURVE",
"582 0 CURVE",
"621 0 LINE",
"648 30 OFFCURVE",
"672 71 OFFCURVE",
"672 123 CURVE SMOOTH",
"672 172 OFFCURVE",
"651 222 OFFCURVE",
"565 311 CURVE"
);
},
{
closed = 1;
nodes = (
"689 627 LINE",
"689 659 LINE",
"30 659 LINE",
"30 627 LINE"
);
},
{
closed = 1;
nodes = (
"523 347 OFFCURVE",
"498 384 OFFCURVE",
"498 424 CURVE SMOOTH",
"498 464 OFFCURVE",
"522 493 OFFCURVE",
"569 493 CURVE SMOOTH",
"619 493 OFFCURVE",
"644 461 OFFCURVE",
"644 421 CURVE SMOOTH",
"644 327 OFFCURVE",
"507 277 OFFCURVE",
"382 277 CURVE SMOOTH",
"216 277 OFFCURVE",
"99 365 OFFCURVE",
"99 535 CURVE SMOOTH",
"99 577 OFFCURVE",
"106 613 OFFCURVE",
"110 634 CURVE",
"78 636 LINE",
"70 608 OFFCURVE",
"65 570 OFFCURVE",
"65 533 CURVE SMOOTH",
"65 347 OFFCURVE",
"193 245 OFFCURVE",
"382 245 CURVE SMOOTH",
"531 245 OFFCURVE",
"676 308 OFFCURVE",
"676 422 CURVE SMOOTH",
"676 488 OFFCURVE",
"628 525 OFFCURVE",
"569 525 CURVE SMOOTH",
"510 525 OFFCURVE",
"466 488 OFFCURVE",
"466 429 CURVE SMOOTH",
"466 374 OFFCURVE",
"504 329 OFFCURVE",
"551 285 CURVE",
"570 305 LINE"
);
}
);
};
layerId = UUID0;
paths = (
{
closed = 1;
nodes = (
"548 286 LINE",
"623 207 OFFCURVE",
"640 170 OFFCURVE",
"640 125 CURVE SMOOTH",
"640 82 OFFCURVE",
"624 50 OFFCURVE",
"592 18 CURVE",
"611 8 LINE",
"603 125 OFFCURVE",
"542 158 OFFCURVE",
"487 158 CURVE SMOOTH",
"431 158 OFFCURVE",
"376 123 OFFCURVE",
"373 18 CURVE",
"383 18 LINE",
"375 125 OFFCURVE",
"313 164 OFFCURVE",
"247 164 CURVE SMOOTH",
"130 164 OFFCURVE",
"104 48 OFFCURVE",
"104 0 CURVE",
"138 0 LINE",
"138 61 OFFCURVE",
"171 131 OFFCURVE",
"249 131 CURVE SMOOTH",
"323 131 OFFCURVE",
"359 73 OFFCURVE",
"362 0 CURVE",
"396 0 LINE",
"396 59 OFFCURVE",
"412 126 OFFCURVE",
"488 126 CURVE SMOOTH",
"555 126 OFFCURVE",
"578 74 OFFCURVE",
"582 0 CURVE",
"621 0 LINE",
"648 30 OFFCURVE",
"672 71 OFFCURVE",
"672 123 CURVE SMOOTH",
"672 172 OFFCURVE",
"651 222 OFFCURVE",
"565 311 CURVE"
);
},
{
closed = 1;
nodes = (
"699 627 LINE",
"699 659 LINE",
"30 659 LINE",
"30 627 LINE"
);
},
{
closed = 1;
nodes = (
"523 347 OFFCURVE",
"498 384 OFFCURVE",
"498 424 CURVE SMOOTH",
"498 464 OFFCURVE",
"522 493 OFFCURVE",
"569 493 CURVE SMOOTH",
"619 493 OFFCURVE",
"644 461 OFFCURVE",
"644 421 CURVE SMOOTH",
"644 327 OFFCURVE",
"507 277 OFFCURVE",
"382 277 CURVE SMOOTH",
"216 277 OFFCURVE",
"99 365 OFFCURVE",
"99 535 CURVE SMOOTH",
"99 577 OFFCURVE",
"106 613 OFFCURVE",
"110 634 CURVE",
"78 636 LINE",
"70 608 OFFCURVE",
"65 570 OFFCURVE",
"65 533 CURVE SMOOTH",
"65 347 OFFCURVE",
"193 245 OFFCURVE",
"382 245 CURVE SMOOTH",
"531 245 OFFCURVE",
"676 308 OFFCURVE",
"676 422 CURVE SMOOTH",
"676 488 OFFCURVE",
"628 525 OFFCURVE",
"569 525 CURVE SMOOTH",
"510 525 OFFCURVE",
"466 488 OFFCURVE",
"466 429 CURVE SMOOTH",
"466 374 OFFCURVE",
"504 329 OFFCURVE",
"551 285 CURVE",
"570 305 LINE"
);
}
);
width = 754;
},
{
anchors = (
{
name = bottom;
position = "{792, 0}";
},
{
name = bottom_left;
position = "{0, 0}";
},
{
name = bottom_right;
position = "{839, 0}";
},
{
name = top;
position = "{621, 713}";
}
);
layerId = "C50897A6-2E0F-4413-920D-1E10F1328263";
paths = (
{
closed = 1;
nodes = (
"563 247 LINE",
"642 184 OFFCURVE",
"665 155 OFFCURVE",
"665 113 CURVE SMOOTH",
"665 78 OFFCURVE",
"649 48 OFFCURVE",
"627 18 CURVE",
"681 8 LINE",
"671 131 OFFCURVE",
"606 168 OFFCURVE",
"545 168 CURVE SMOOTH",
"489 168 OFFCURVE",
"421 136 OFFCURVE",
"418 18 CURVE",
"463 18 LINE",
"451 128 OFFCURVE",
"383 184 OFFCURVE",
"287 184 CURVE SMOOTH",
"176 184 OFFCURVE",
"99 110 OFFCURVE",
"99 0 CURVE",
"253 0 LINE",
"253 41 OFFCURVE",
"273 71 OFFCURVE",
"307 71 CURVE SMOOTH",
"342 71 OFFCURVE",
"360 40 OFFCURVE",
"362 0 CURVE",
"506 0 LINE",
"506 35 OFFCURVE",
"521 56 OFFCURVE",
"550 56 CURVE SMOOTH",
"580 56 OFFCURVE",
"595 35 OFFCURVE",
"597 0 CURVE",
"766 0 LINE",
"780 25 OFFCURVE",
"792 66 OFFCURVE",
"792 104 CURVE SMOOTH",
"792 152 OFFCURVE",
"773 197 OFFCURVE",
"690 276 CURVE"
);
},
{
closed = 1;
nodes = (
"814 537 LINE",
"814 659 LINE",
"25 659 LINE",
"25 537 LINE"
);
},
{
closed = 1;
nodes = (
"627 333 OFFCURVE",
"587 362 OFFCURVE",
"587 398 CURVE SMOOTH",
"587 418 OFFCURVE",
"599 432 OFFCURVE",
"621 432 CURVE SMOOTH",
"642 432 OFFCURVE",
"653 418 OFFCURVE",
"653 402 CURVE SMOOTH",
"653 353 OFFCURVE",
"548 331 OFFCURVE",
"456 331 CURVE SMOOTH",
"298 331 OFFCURVE",
"219 396 OFFCURVE",
"219 498 CURVE SMOOTH",
"219 535 OFFCURVE",
"229 573 OFFCURVE",
"235 594 CURVE",
"83 596 LINE",
"69 567 OFFCURVE",
"60 533 OFFCURVE",
"60 491 CURVE SMOOTH",
"60 315 OFFCURVE",
"215 202 OFFCURVE",
"452 202 CURVE SMOOTH",
"642 202 OFFCURVE",
"786 275 OFFCURVE",
"786 395 CURVE SMOOTH",
"786 481 OFFCURVE",
"712 525 OFFCURVE",
"623 525 CURVE SMOOTH",
"532 525 OFFCURVE",
"463 479 OFFCURVE",
"463 404 CURVE SMOOTH",
"463 348 OFFCURVE",
"503 301 OFFCURVE",
"566 250 CURVE",
"696 270 LINE"
);
}
);
width = 839;
},
{
anchors = (
{
name = bottom;
position = "{720, 0}";
},
{
name = bottom_left;
position = "{0, 0}";
},
{
name = bottom_right;
position = "{803, 0}";
},
{
name = top;
position = "{606, 713}";
}
);
background = {
paths = (
{
closed = 1;
nodes = (
"552 283 LINE",
"629 197 OFFCURVE",
"649 146 OFFCURVE",
"649 120 CURVE SMOOTH",
"649 96 OFFCURVE",
"642 71 OFFCURVE",
"631 58 CURVE",
"648 38 LINE",
"638 139 OFFCURVE",
"577 167 OFFCURVE",
"527 167 CURVE SMOOTH",
"460 167 OFFCURVE",
"413 125 OFFCURVE",
"410 60 CURVE",
"420 58 LINE",
"412 138 OFFCURVE",
"349 170 OFFCURVE",
"282 170 CURVE SMOOTH",
"136 170 OFFCURVE",
"117 40 OFFCURVE",
"115 0 CURVE",
"197 0 LINE",
"198 43 OFFCURVE",
"216 99 OFFCURVE",
"289 99 CURVE SMOOTH",
"345 99 OFFCURVE",
"371 54 OFFCURVE",
"373 0 CURVE",
"455 0 LINE",
"456 50 OFFCURVE",
"467 96 OFFCURVE",
"527 96 CURVE SMOOTH",
"574 96 OFFCURVE",
"591 54 OFFCURVE",
"593 0 CURVE",
"680 0 LINE",
"700 27 OFFCURVE",
"721 72 OFFCURVE",
"721 120 CURVE SMOOTH",
"721 170 OFFCURVE",
"707 210 OFFCURVE",
"623 313 CURVE"
);
},
{
closed = 1;
nodes = (
"738 586 LINE",
"738 659 LINE",
"51 659 LINE",
"51 586 LINE"
);
},
{
closed = 1;
nodes = (
"578 355 OFFCURVE",
"556 393 OFFCURVE",
"556 418 CURVE SMOOTH",
"556 448 OFFCURVE",
"573 467 OFFCURVE",
"606 467 CURVE SMOOTH",
"639 467 OFFCURVE",
"655 445 OFFCURVE",
"655 418 CURVE SMOOTH",
"655 347 OFFCURVE",
"521 307 OFFCURVE",
"420 307 CURVE SMOOTH",
"258 307 OFFCURVE",
"159 385 OFFCURVE",
"158 534 CURVE SMOOTH",
"158 561 OFFCURVE",
"160 584 OFFCURVE",
"161 597 CURVE",
"81 599 LINE",
"78 581 OFFCURVE",
"76 557 OFFCURVE",
"76 530 CURVE SMOOTH",
"77 351 OFFCURVE",
"205 235 OFFCURVE",
"421 235 CURVE SMOOTH",
"572 235 OFFCURVE",
"735 302 OFFCURVE",
"735 422 CURVE SMOOTH",
"735 497 OFFCURVE",
"676 539 OFFCURVE",
"606 539 CURVE SMOOTH",
"531 539 OFFCURVE",
"477 496 OFFCURVE",
"477 425 CURVE SMOOTH",
"477 385 OFFCURVE",
"504 341 OFFCURVE",
"540 303 CURVE",
"613 326 LINE"
);
}
);
};
layerId = "B2B7298B-4574-4E4E-9E4E-FF4301209A8A";
paths = (
{
closed = 1;
nodes = (
"552 283 LINE",
"629 197 OFFCURVE",
"649 146 OFFCURVE",
"649 120 CURVE SMOOTH",
"649 96 OFFCURVE",
"642 71 OFFCURVE",
"631 58 CURVE",
"648 38 LINE",
"638 139 OFFCURVE",
"577 167 OFFCURVE",
"527 167 CURVE SMOOTH",
"460 167 OFFCURVE",
"413 125 OFFCURVE",
"410 60 CURVE",
"420 58 LINE",
"412 138 OFFCURVE",
"349 170 OFFCURVE",
"282 170 CURVE SMOOTH",
"136 170 OFFCURVE",
"115 40 OFFCURVE",
"115 0 CURVE",
"197 0 LINE",
"197 43 OFFCURVE",
"215 99 OFFCURVE",
"285 99 CURVE SMOOTH",
"344 99 OFFCURVE",
"371 54 OFFCURVE",
"373 0 CURVE",
"455 0 LINE",
"456 50 OFFCURVE",
"467 96 OFFCURVE",
"527 96 CURVE SMOOTH",
"574 96 OFFCURVE",
"591 54 OFFCURVE",
"593 0 CURVE",
"680 0 LINE",
"700 27 OFFCURVE",
"721 72 OFFCURVE",
"721 120 CURVE SMOOTH",
"721 170 OFFCURVE",
"707 210 OFFCURVE",
"623 313 CURVE"
);
},
{
closed = 1;
nodes = (
"748 586 LINE",
"748 659 LINE",
"30 659 LINE",
"30 586 LINE"
);
},
{
closed = 1;
nodes = (
"578 355 OFFCURVE",
"556 393 OFFCURVE",
"556 418 CURVE SMOOTH",
"556 448 OFFCURVE",
"573 467 OFFCURVE",
"606 467 CURVE SMOOTH",
"639 467 OFFCURVE",
"655 446 OFFCURVE",
"655 421 CURVE SMOOTH",
"655 348 OFFCURVE",
"521 307 OFFCURVE",
"420 307 CURVE SMOOTH",
"258 307 OFFCURVE",
"159 385 OFFCURVE",
"158 534 CURVE SMOOTH",
"158 561 OFFCURVE",
"160 584 OFFCURVE",
"161 597 CURVE",
"81 599 LINE",
"78 581 OFFCURVE",
"76 557 OFFCURVE",
"76 530 CURVE SMOOTH",
"77 351 OFFCURVE",
"205 235 OFFCURVE",
"421 235 CURVE SMOOTH",
"572 235 OFFCURVE",
"735 302 OFFCURVE",
"735 422 CURVE SMOOTH",
"735 497 OFFCURVE",
"676 539 OFFCURVE",
"606 539 CURVE SMOOTH",
"531 539 OFFCURVE",
"477 496 OFFCURVE",
"477 425 CURVE SMOOTH",
"477 385 OFFCURVE",
"504 341 OFFCURVE",
"540 303 CURVE",
"613 326 LINE"
);
}
);
width = 803;
}
);
unicode = ABCE;
script = mtei;
category = Letter;
subCategory = Other;
},
{
glyphname = "i-mtei";
production = uABCF;
lastChange = "2020-03-25 01:49:53 +0000";
layers = (
{
anchors = (
{
name = bottom;
position = "{663, 0}";
},
{
name = bottom_left;
position = "{0, 0}";
},
{
name = bottom_right;
position = "{693, 0}";
},
{
name = top;
position = "{548, 713}";
}
);
background = {
paths = (
{
closed = 1;
nodes = (
"612 -3 OFFCURVE",
"683 55 OFFCURVE",
"683 163 CURVE SMOOTH",
"683 292 OFFCURVE",
"583 354 OFFCURVE",
"447 395 CURVE SMOOTH",
"338 428 OFFCURVE",
"246 456 OFFCURVE",
"176 523 CURVE SMOOTH",
"143 555 OFFCURVE",
"102 606 OFFCURVE",
"71 648 CURVE",
"44 627 LINE",
"148 521 OFFCURVE",
"217 376 OFFCURVE",
"217 255 CURVE SMOOTH",
"217 163 OFFCURVE",
"177 56 OFFCURVE",
"30 32 CURVE",
"41 0 LINE",
"180 25 OFFCURVE",
"251 127 OFFCURVE",
"251 256 CURVE SMOOTH",
"251 319 OFFCURVE",
"234 395 OFFCURVE",
"182 490 CURVE",
"174 485 LINE",
"256 419 OFFCURVE",
"301 405 OFFCURVE",
"419 369 CURVE SMOOTH",
"560 326 OFFCURVE",
"649 277 OFFCURVE",
"649 165 CURVE SMOOTH",
"649 86 OFFCURVE",
"605 30 OFFCURVE",
"530 30 CURVE SMOOTH",
"490 30 OFFCURVE",
"456 46 OFFCURVE",
"434 60 CURVE",
"418 34 LINE",
"441 17 OFFCURVE",
"480 -3 OFFCURVE",
"529 -3 CURVE SMOOTH"
);
},
{
closed = 1;
nodes = (
"681 627 LINE",
"681 659 LINE",
"44 659 LINE",
"44 627 LINE"
);
}
);
};
layerId = UUID0;
paths = (
{
closed = 1;
nodes = (
"587 -3 OFFCURVE",
"663 54 OFFCURVE",
"663 167 CURVE SMOOTH",
"663 290 OFFCURVE",
"572 357 OFFCURVE",
"447 395 CURVE SMOOTH",
"338 428 OFFCURVE",
"246 456 OFFCURVE",
"176 523 CURVE SMOOTH",
"143 555 OFFCURVE",
"102 606 OFFCURVE",
"71 648 CURVE",
"44 627 LINE",
"148 521 OFFCURVE",
"217 376 OFFCURVE",
"217 255 CURVE SMOOTH",
"217 163 OFFCURVE",
"177 56 OFFCURVE",
"30 32 CURVE",
"41 0 LINE",
"180 25 OFFCURVE",
"251 127 OFFCURVE",
"251 256 CURVE SMOOTH",
"251 319 OFFCURVE",
"234 395 OFFCURVE",
"182 490 CURVE",
"174 485 LINE",
"255 420 OFFCURVE",
"295 407 OFFCURVE",
"419 369 CURVE SMOOTH",
"546 330 OFFCURVE",
"629 277 OFFCURVE",
"629 168 CURVE SMOOTH",
"629 85 OFFCURVE",
"581 30 OFFCURVE",
"502 30 CURVE SMOOTH",
"459 30 OFFCURVE",
"426 46 OFFCURVE",
"404 60 CURVE",
"388 34 LINE",
"411 17 OFFCURVE",
"449 -3 OFFCURVE",
"500 -3 CURVE SMOOTH"
);
},
{
closed = 1;
nodes = (
"661 627 LINE",
"661 659 LINE",
"44 659 LINE",
"44 627 LINE"
);
}
);
width = 693;
},
{
anchors = (
{
name = bottom;
position = "{736, 0}";
},
{
name = bottom_left;
position = "{0, 0}";
},
{
name = bottom_right;
position = "{763, 0}";
},
{
name = top;
position = "{556, 713}";
}
);
background = {
anchors = (
{
name = bottom;
position = "{736, 0}";
}
);
};
layerId = "C50897A6-2E0F-4413-920D-1E10F1328263";
paths = (
{
closed = 1;
nodes = (
"636 -13 OFFCURVE",
"738 51 OFFCURVE",
"738 192 CURVE SMOOTH",
"738 345 OFFCURVE",
"618 404 OFFCURVE",
"542 422 CURVE SMOOTH",
"503 431 OFFCURVE",
"344 460 OFFCURVE",
"267 503 CURVE SMOOTH",
"214 533 OFFCURVE",
"165 587 OFFCURVE",
"126 638 CURVE",
"39 537 LINE",
"132 457 OFFCURVE",
"192 343 OFFCURVE",
"192 258 CURVE SMOOTH",
"192 202 OFFCURVE",
"166 129 OFFCURVE",
"25 112 CURVE",
"91 -10 LINE",
"253 13 OFFCURVE",
"342 110 OFFCURVE",
"342 235 CURVE SMOOTH",
"342 304 OFFCURVE",
"315 387 OFFCURVE",
"232 490 CURVE",
"169 445 LINE",
"269 371 OFFCURVE",
"296 346 OFFCURVE",
"423 317 CURVE SMOOTH",
"486 303 OFFCURVE",
"584 283 OFFCURVE",
"584 196 CURVE SMOOTH",
"584 149 OFFCURVE",
"556 125 OFFCURVE",
"513 125 CURVE SMOOTH",
"479 125 OFFCURVE",
"450 140 OFFCURVE",
"431 154 CURVE",
"357 35 LINE",
"390 13 OFFCURVE",
"443 -13 OFFCURVE",
"518 -13 CURVE SMOOTH"
);
},
{
closed = 1;
nodes = (
"736 537 LINE",
"736 659 LINE",
"39 659 LINE",
"39 537 LINE"
);
}
);
width = 763;
},
{
anchors = (
{
name = bottom;
position = "{710, 0}";
},
{
name = bottom_left;
position = "{0, 0}";
},
{
name = bottom_right;
position = "{740, 0}";
},
{
name = top;
position = "{578, 713}";
}
);
layerId = "B2B7298B-4574-4E4E-9E4E-FF4301209A8A";
paths = (
{
closed = 1;
nodes = (
"626 -6 OFFCURVE",
"710 51 OFFCURVE",
"710 176 CURVE SMOOTH",
"710 309 OFFCURVE",
"613 368 OFFCURVE",
"496 405 CURVE SMOOTH",
"403 435 OFFCURVE",
"275 465 OFFCURVE",
"198 530 CURVE SMOOTH",
"167 557 OFFCURVE",
"132 605 OFFCURVE",
"104 639 CURVE",
"45 586 LINE",
"150 495 OFFCURVE",
"218 360 OFFCURVE",
"218 261 CURVE SMOOTH",
"218 182 OFFCURVE",
"174 97 OFFCURVE",
"30 78 CURVE",
"53 0 LINE",
"218 26 OFFCURVE",
"299 134 OFFCURVE",
"299 255 CURVE SMOOTH",
"299 309 OFFCURVE",
"283 367 OFFCURVE",
"238 439 CURVE",
"237 422 LINE",
"295 382 OFFCURVE",
"342 368 OFFCURVE",
"468 332 CURVE SMOOTH",
"569 303 OFFCURVE",
"628 262 OFFCURVE",
"628 178 CURVE SMOOTH",
"628 110 OFFCURVE",
"589 69 OFFCURVE",
"526 69 CURVE SMOOTH",
"486 69 OFFCURVE",
"459 86 OFFCURVE",
"434 104 CURVE",
"394 40 LINE",
"417 19 OFFCURVE",
"460 -6 OFFCURVE",
"526 -6 CURVE SMOOTH"
);
},
{
closed = 1;
nodes = (
"705 586 LINE",
"705 659 LINE",
"45 659 LINE",
"45 586 LINE"
);
}
);
width = 740;
}
);
unicode = ABCF;
script = mtei;
category = Letter;
subCategory = Other;
},
{
glyphname = "pham-mtei";
production = uABD0;
lastChange = "2020-03-25 01:49:53 +0000";
layers = (
{
anchors = (
{
name = bottom;
position = "{638, 0}";
},
{
name = bottom_left;
position = "{0, 0}";
},
{
name = bottom_right;
position = "{686, 0}";
},
{
name = top;
position = "{538, 713}";
}
);
layerId = UUID0;
paths = (
{
closed = 1;
nodes = (
"195 443 OFFCURVE",
"101 597 OFFCURVE",
"70 640 CURVE",
"47 627 LINE",
"638 627 LINE",
"638 659 LINE",
"40 659 LINE",
"40 627 LINE",
"81 576 OFFCURVE",
"161 442 OFFCURVE",
"161 293 CURVE SMOOTH",
"161 172 OFFCURVE",
"108 74 OFFCURVE",
"71 14 CURVE",
"103 -3 LINE",
"137 31 OFFCURVE",
"203 64 OFFCURVE",
"278 64 CURVE SMOOTH",
"377 64 OFFCURVE",
"419 5 OFFCURVE",
"516 5 CURVE SMOOTH",
"585 5 OFFCURVE",
"625 35 OFFCURVE",
"656 74 CURVE",
"632 96 LINE",
"603 62 OFFCURVE",
"578 37 OFFCURVE",
"518 37 CURVE SMOOTH",
"427 37 OFFCURVE",
"396 96 OFFCURVE",
"273 96 CURVE SMOOTH",
"208 96 OFFCURVE",
"161 80 OFFCURVE",
"106 40 CURVE",
"125 43 LINE",
"160 106 OFFCURVE",
"195 193 OFFCURVE",
"195 288 CURVE SMOOTH"
);
},
{
closed = 1;
nodes = (
"184 323 LINE",
"204 334 OFFCURVE",
"251 356 OFFCURVE",
"300 356 CURVE SMOOTH",
"366 356 OFFCURVE",
"415 316 OFFCURVE",
"481 316 CURVE SMOOTH",
"522 316 OFFCURVE",
"562 332 OFFCURVE",
"593 362 CURVE",
"576 389 LINE",
"544 360 OFFCURVE",
"506 348 OFFCURVE",
"478 348 CURVE SMOOTH",
"427 348 OFFCURVE",
"374 388 OFFCURVE",
"297 388 CURVE SMOOTH",
"249 388 OFFCURVE",
"204 372 OFFCURVE",
"172 357 CURVE"
);
}
);
width = 686;
},
{
anchors = (
{
name = bottom;
position = "{726, 0}";
},
{
name = bottom_left;
position = "{0, 0}";
},
{
name = bottom_right;
position = "{776, 0}";
},
{
name = top;
position = "{546, 713}";
}
);
layerId = "C50897A6-2E0F-4413-920D-1E10F1328263";
paths = (
{
closed = 1;
nodes = (
"284 442 OFFCURVE",
"161 597 OFFCURVE",
"120 640 CURVE",
"162 537 LINE",
"726 537 LINE",
"726 659 LINE",
"25 659 LINE",
"25 537 LINE",
"65 497 OFFCURVE",
"136 404 OFFCURVE",
"136 290 CURVE SMOOTH",
"136 196 OFFCURVE",
"88 111 OFFCURVE",
"56 64 CURVE",
"173 -13 LINE",
"207 11 OFFCURVE",
"277 38 OFFCURVE",
"356 38 CURVE SMOOTH",
"450 38 OFFCURVE",
"484 0 OFFCURVE",
"582 0 CURVE SMOOTH",
"662 0 OFFCURVE",
"715 26 OFFCURVE",
"761 65 CURVE",
"701 181 LINE",
"666 151 OFFCURVE",
"636 132 OFFCURVE",
"580 132 CURVE SMOOTH",
"502 132 OFFCURVE",
"462 170 OFFCURVE",
"356 170 CURVE SMOOTH",
"281 170 OFFCURVE",
"228 151 OFFCURVE",
"171 120 CURVE",
"195 53 LINE",
"240 113 OFFCURVE",
"284 196 OFFCURVE",
"284 288 CURVE SMOOTH"
);
},
{
closed = 1;
nodes = (
"234 253 LINE",
"254 265 OFFCURVE",
"300 288 OFFCURVE",
"353 288 CURVE SMOOTH",
"416 288 OFFCURVE",
"463 257 OFFCURVE",
"533 257 CURVE SMOOTH",
"589 257 OFFCURVE",
"652 277 OFFCURVE",
"698 312 CURVE",
"636 429 LINE",
"601 400 OFFCURVE",
"559 388 OFFCURVE",
"528 388 CURVE SMOOTH",
"478 388 OFFCURVE",
"425 420 OFFCURVE",
"349 420 CURVE SMOOTH",
"292 420 OFFCURVE",
"240 402 OFFCURVE",
"202 384 CURVE"
);
}
);
width = 776;
},
{
anchors = (
{
name = bottom;
position = "{667, 0}";
},
{
name = bottom_left;
position = "{0, 0}";
},
{
name = bottom_right;
position = "{728, 0}";
},
{
name = top;
position = "{550, 713}";
}
);
background = {
paths = (
{
closed = 1;
nodes = (
"233 346 OFFCURVE",
"220 444 OFFCURVE",
"131 596 CURVE",
"99 586 LINE",
"670 586 LINE",
"670 659 LINE",
"40 659 LINE",
"40 586 LINE",
"76 543 OFFCURVE",
"151 426 OFFCURVE",
"151 291 CURVE SMOOTH",
"151 172 OFFCURVE",
"93 73 OFFCURVE",
"61 23 CURVE",
"130 -13 LINE",
"167 13 OFFCURVE",
"225 34 OFFCURVE",
"296 34 CURVE SMOOTH",
"393 34 OFFCURVE",
"434 -6 OFFCURVE",
"530 -6 CURVE SMOOTH",
"622 -6 OFFCURVE",
"665 30 OFFCURVE",
"698 68 CURVE",
"647 124 LINE",
"616 90 OFFCURVE",
"592 70 OFFCURVE",
"531 70 CURVE SMOOTH",
"446 70 OFFCURVE",
"415 110 OFFCURVE",
"298 110 CURVE SMOOTH",
"240 110 OFFCURVE",
"202 100 OFFCURVE",
"158 83 CURVE",
"183 73 LINE",
"208 128 OFFCURVE",
"233 204 OFFCURVE",
"233 287 CURVE SMOOTH"
);
},
{
closed = 1;
nodes = (
"226 303 LINE",
"246 311 OFFCURVE",
"286 323 OFFCURVE",
"325 323 CURVE SMOOTH",
"384 323 OFFCURVE",
"422 294 OFFCURVE",
"501 294 CURVE SMOOTH",
"557 294 OFFCURVE",
"603 309 OFFCURVE",
"647 342 CURVE",
"608 408 LINE",
"575 383 OFFCURVE",
"533 370 OFFCURVE",
"498 370 CURVE SMOOTH",
"445 370 OFFCURVE",
"409 399 OFFCURVE",
"322 399 CURVE SMOOTH",
"263 399 OFFCURVE",
"233 386 OFFCURVE",
"204 376 CURVE"
);
}
);
};
layerId = "B2B7298B-4574-4E4E-9E4E-FF4301209A8A";
paths = (
{
closed = 1;
nodes = (
"233 346 OFFCURVE",
"220 444 OFFCURVE",
"131 596 CURVE",
"99 586 LINE",
"670 586 LINE",
"670 659 LINE",
"40 659 LINE",
"40 586 LINE",
"76 543 OFFCURVE",
"151 426 OFFCURVE",
"151 291 CURVE SMOOTH",
"151 172 OFFCURVE",
"93 73 OFFCURVE",
"61 23 CURVE",
"130 -13 LINE",
"167 13 OFFCURVE",
"225 34 OFFCURVE",
"296 34 CURVE SMOOTH",
"393 34 OFFCURVE",
"434 -6 OFFCURVE",
"530 -6 CURVE SMOOTH",
"622 -6 OFFCURVE",
"665 30 OFFCURVE",
"698 68 CURVE",
"647 124 LINE",
"616 90 OFFCURVE",
"592 70 OFFCURVE",
"531 70 CURVE SMOOTH",
"446 70 OFFCURVE",
"415 110 OFFCURVE",
"298 110 CURVE SMOOTH",
"240 110 OFFCURVE",
"202 100 OFFCURVE",
"158 83 CURVE",
"183 73 LINE",
"208 128 OFFCURVE",
"233 204 OFFCURVE",
"233 287 CURVE SMOOTH"
);
},
{
closed = 1;
nodes = (
"226 303 LINE",
"246 311 OFFCURVE",
"286 323 OFFCURVE",
"325 323 CURVE SMOOTH",
"384 323 OFFCURVE",
"422 294 OFFCURVE",
"501 294 CURVE SMOOTH",
"557 294 OFFCURVE",
"603 309 OFFCURVE",
"647 342 CURVE",
"608 408 LINE",
"575 383 OFFCURVE",
"533 370 OFFCURVE",
"498 370 CURVE SMOOTH",
"445 370 OFFCURVE",
"409 399 OFFCURVE",
"322 399 CURVE SMOOTH",
"263 399 OFFCURVE",
"233 386 OFFCURVE",
"204 376 CURVE"
);
}
);
width = 728;
}
);
unicode = ABD0;
script = mtei;
category = Letter;
subCategory = Other;
},
{
glyphname = "atiya-mtei";
production = uABD1;
lastChange = "2020-03-25 01:49:53 +0000";
layers = (
{
anchors = (
{
name = bottom;
position = "{724, 0}";
},
{
name = bottom_left;
position = "{0, 0}";
},
{
name = bottom_right;
position = "{759, 0}";
},
{
name = top;
position = "{594, 713}";
}
);
layerId = UUID0;
paths = (
{
closed = 1;
nodes = (
"550 -3 OFFCURVE",
"645 33 OFFCURVE",
"729 101 CURVE",
"708 127 LINE",
"612 53 OFFCURVE",
"527 29 OFFCURVE",
"446 29 CURVE SMOOTH",
"286 29 OFFCURVE",
"107 121 OFFCURVE",
"107 382 CURVE SMOOTH",
"107 495 OFFCURVE",
"141 594 OFFCURVE",
"166 639 CURVE",
"132 650 LINE",
"103 585 OFFCURVE",
"73 497 OFFCURVE",
"73 384 CURVE SMOOTH",
"73 90 OFFCURVE",
"279 -3 OFFCURVE",
"446 -3 CURVE SMOOTH"
);
},
{
closed = 1;
nodes = (
"352 25 LINE",
"352 640 LINE",
"318 640 LINE",
"318 25 LINE"
);
},
{
closed = 1;
nodes = (
"552 26 LINE",
"552 640 LINE",
"518 640 LINE",
"518 26 LINE"
);
},
{
closed = 1;
nodes = (
"724 627 LINE",
"724 659 LINE",
"50 659 LINE",
"50 627 LINE"
);
}
);
width = 759;
},
{
anchors = (
{
name = bottom;
position = "{839, 0}";
},
{
name = bottom_left;
position = "{0, 0}";
},
{
name = bottom_right;
position = "{870, 0}";
},
{
name = top;
position = "{659, 713}";
}
);
background = {
anchors = (
{
name = top;
position = "{659, 713}";
}
);
};
layerId = "C50897A6-2E0F-4413-920D-1E10F1328263";
paths = (
{
closed = 1;
nodes = (
"605 -13 OFFCURVE",
"746 25 OFFCURVE",
"855 99 CURVE",
"778 217 LINE",
"676 143 OFFCURVE",
"568 119 OFFCURVE",
"478 119 CURVE SMOOTH",
"339 119 OFFCURVE",
"209 176 OFFCURVE",
"209 353 CURVE SMOOTH",
"209 441 OFFCURVE",
"241 528 OFFCURVE",
"268 569 CURVE",
"107 580 LINE",
"83 524 OFFCURVE",
"58 449 OFFCURVE",
"58 355 CURVE SMOOTH",
"58 72 OFFCURVE",
"283 -13 OFFCURVE",
"476 -13 CURVE SMOOTH"
);
},
{
closed = 1;
nodes = (
"457 65 LINE",
"457 640 LINE",
"313 640 LINE",
"313 65 LINE"
);
},
{
closed = 1;
nodes = (
"677 66 LINE",
"677 640 LINE",
"533 640 LINE",
"533 66 LINE"
);
},
{
closed = 1;
nodes = (
"839 537 LINE",
"839 659 LINE",
"25 659 LINE",
"25 537 LINE"
);
}
);
width = 870;
},
{
anchors = (
{
name = bottom;
position = "{762, 0}";
},
{
name = bottom_left;
position = "{0, 0}";
},
{
name = bottom_right;
position = "{798, 0}";
},
{
name = top;
position = "{612, 713}";
}
);
background = {
paths = (
{
closed = 1;
nodes = (
"581 -4 OFFCURVE",
"684 27 OFFCURVE",
"772 87 CURVE",
"724 151 LINE",
"642 91 OFFCURVE",
"556 70 OFFCURVE",
"471 70 CURVE SMOOTH",
"326 70 OFFCURVE",
"155 132 OFFCURVE",
"155 384 CURVE SMOOTH",
"155 480 OFFCURVE",
"180 581 OFFCURVE",
"199 626 CURVE",
"125 650 LINE",
"121 645 OFFCURVE",
"73 532 OFFCURVE",
"73 387 CURVE SMOOTH",
"73 71 OFFCURVE",
"301 -4 OFFCURVE",
"471 -4 CURVE SMOOTH"
);
},
{
closed = 1;
nodes = (
"400 40 LINE",
"400 640 LINE",
"318 640 LINE",
"318 40 LINE"
);
},
{
closed = 1;
nodes = (
"600 48 LINE",
"600 640 LINE",
"518 640 LINE",
"518 48 LINE"
);
},
{
closed = 1;
nodes = (
"762 586 LINE",
"762 659 LINE",
"50 659 LINE",
"50 586 LINE"
);
}
);
};
layerId = "B2B7298B-4574-4E4E-9E4E-FF4301209A8A";
paths = (
{
closed = 1;
nodes = (
"581 -4 OFFCURVE",
"684 26 OFFCURVE",
"768 85 CURVE",
"724 151 LINE",
"642 91 OFFCURVE",
"556 70 OFFCURVE",
"471 70 CURVE SMOOTH",
"326 70 OFFCURVE",
"155 132 OFFCURVE",
"155 384 CURVE SMOOTH",
"155 480 OFFCURVE",
"180 581 OFFCURVE",
"199 626 CURVE",
"125 650 LINE",
"121 645 OFFCURVE",
"73 532 OFFCURVE",
"73 387 CURVE SMOOTH",
"73 71 OFFCURVE",
"301 -4 OFFCURVE",
"473 -4 CURVE SMOOTH"
);
},
{
closed = 1;
nodes = (
"399 40 LINE",
"399 640 LINE",
"318 640 LINE",
"318 40 LINE"
);
},
{
closed = 1;
nodes = (
"600 48 LINE",
"600 640 LINE",
"519 640 LINE",
"519 48 LINE"
);
},
{
closed = 1;
nodes = (
"762 586 LINE",
"762 659 LINE",
"50 659 LINE",
"50 586 LINE"
);
}
);
width = 798;
}
);
unicode = ABD1;
script = mtei;
category = Letter;
subCategory = Other;
},
